SplineFontDB: 3.0
FontName: WineSymbol
FullName: Symbol
FamilyName: Symbol
Weight: Book
Copyright: WineSymbol © (Jon Parshall for CodeWeavers). 2009.
UComments: "#pragma makedep install"
Version: 1.1 February 3, 2009, initial release
ItalicAngle: 0
UnderlinePosition: -173
UnderlineWidth: 100
Ascent: 1638
Descent: 410
LayerCount: 2
Layer: 0 1 "Back" 1
Layer: 1 1 "Fore" 0
XUID: [1021 982 1669365205 10590838]
FSType: 0
OS2Version: 1
OS2_WeightWidthSlopeOnly: 0
OS2_UseTypoMetrics: 1
PfmFamily: 81
TTFWeight: 400
TTFWidth: 5
LineGap: 0
VLineGap: 0
Panose: 5 5 1 2 1 7 6 2 5 7
OS2TypoAscent: -218
OS2TypoAOffset: 1
OS2TypoDescent: -32
OS2TypoDOffset: 1
OS2TypoLinegap: 307
OS2WinAscent: 0
OS2WinAOffset: 1
OS2WinDescent: -28
OS2WinDOffset: 1
HheadAscent: 0
HheadAOffset: 1
HheadDescent: 28
HheadDOffset: 1
OS2SubXSize: 1434
OS2SubYSize: 1331
OS2SubXOff: 0
OS2SubYOff: 293
OS2SupXSize: 1434
OS2SupYSize: 1331
OS2SupXOff: 0
OS2SupYOff: 928
OS2StrikeYSize: 102
OS2StrikeYPos: 530
OS2FamilyClass: 3075
OS2Vendor: 'Wine'
OS2CodePages: 80000000.00000000
OS2UnicodeRanges: 00000000.00000000.00000000.00000000
DEI: 91125
ShortTable: maxp 16
  1
  0
  192
  96
  5
  0
  0
  0
  0
  0
  0
  0
  0
  0
  0
  0
EndShort

StartChar: .notdef
Encoding: 255 711 0
AltUni2: 000001.ffffffff.0 000002.ffffffff.0 000003.ffffffff.0 000004.ffffffff.0 000005.ffffffff.0 000006.ffffffff.0 000007.ffffffff.0 00000a.ffffffff.0 00000b.ffffffff.0 00000c.ffffffff.0 00000e.ffffffff.0 00000f.ffffffff.0 000010.ffffffff.0 000011.ffffffff.0 000012.ffffffff.0 000013.ffffffff.0 000014.ffffffff.0 000015.ffffffff.0 000016.ffffffff.0 000017.ffffffff.0 000018.ffffffff.0 000019.ffffffff.0 00001a.ffffffff.0 00001b.ffffffff.0 00001c.ffffffff.0 00001e.ffffffff.0 00001f.ffffffff.0 00007f.ffffffff.0 0000c4.ffffffff.0 0000c5.ffffffff.0 0000c7.ffffffff.0 0000c9.ffffffff.0 0000d1.ffffffff.0 0000d6.ffffffff.0 0000dc.ffffffff.0 0000e1.ffffffff.0 0000e0.ffffffff.0 0000e2.ffffffff.0 0000e4.ffffffff.0 0000e3.ffffffff.0 0000e5.ffffffff.0 0000e7.ffffffff.0 0000e9.ffffffff.0 0000e8.ffffffff.0 0000ea.ffffffff.0 0000eb.ffffffff.0 0000ed.ffffffff.0 0000ec.ffffffff.0 0000ee.ffffffff.0 0000ef.ffffffff.0 0000f1.ffffffff.0 0000f3.ffffffff.0 0000f2.ffffffff.0 0000f4.ffffffff.0 0000f6.ffffffff.0 0000f5.ffffffff.0 0000fa.ffffffff.0 0000f9.ffffffff.0 0000fb.ffffffff.0 0000fc.ffffffff.0 002020.ffffffff.0
Width: 1229
Flags: W
LayerCount: 2
Fore
SplineSet
103 0 m 1,0,-1
 103 1344 l 1,1,-1
 1293 1344 l 1,2,-1
 1293 0 l 1,3,-1
 103 0 l 1,0,-1
144 43 m 1,4,-1
 1250 43 l 1,5,-1
 1250 1300 l 1,6,-1
 144 1300 l 1,7,-1
 144 43 l 1,4,-1
EndSplineSet
EndChar

StartChar: exclam
Encoding: 33 33 4
Width: 682
Flags: W
LayerCount: 2
Fore
SplineSet
31 6.5 m 128,-1,1
 0 38 0 38 0 83 c 0,2,3
 0 127 0 127 31 158.5 c 128,-1,4
 62 190 62 190 105 190 c 0,5,6
 149 190 149 190 179.5 158.5 c 128,-1,7
 210 127 210 127 210 83 c 0,8,9
 210 38 210 38 179.5 6.5 c 128,-1,10
 149 -25 149 -25 105 -25 c 0,11,0
 62 -25 62 -25 31 6.5 c 128,-1,1
0 1283 m 0,13,14
 0 1327 0 1327 31 1358.5 c 128,-1,15
 62 1390 62 1390 105 1390 c 0,16,17
 149 1390 149 1390 179.5 1358.5 c 128,-1,18
 210 1327 210 1327 210 1283 c 0,19,20
 210 1238 210 1238 122 355 c 1,21,-1
 89 355 l 1,22,12
 0 1238 0 1238 0 1283 c 0,13,14
EndSplineSet
EndChar

StartChar: universal
Encoding: 34 34 5
Width: 1460
Flags: W
LayerCount: 2
Fore
SplineSet
301 867 m 1,0,-1
 632 105 l 1,1,-1
 962 867 l 1,2,-1
 301 867 l 1,0,-1
265 950 m 1,3,-1
 998 950 l 1,4,-1
 1171 1349 l 1,5,-1
 1262 1349 l 1,6,-1
 677 0 l 1,7,-1
 586 0 l 1,8,-1
 586 1 l 1,9,-1
 1 1349 l 1,10,-1
 92 1349 l 1,11,-1
 265 950 l 1,3,-1
EndSplineSet
EndChar

StartChar: numbersign
Encoding: 35 35 6
Width: 1024
Flags: W
LayerCount: 2
Fore
SplineSet
181 506 m 1,0,-1
 254 850 l 1,1,-1
 0 850 l 1,2,-1
 0 926 l 1,3,-1
 270 926 l 1,4,-1
 366 1383 l 1,5,-1
 433 1383 l 1,6,-1
 337 926 l 1,7,-1
 700 926 l 1,8,-1
 796 1383 l 1,9,-1
 863 1383 l 1,10,-1
 767 926 l 1,11,-1
 950 926 l 1,12,-1
 950 850 l 1,13,-1
 751 850 l 1,14,-1
 678 506 l 1,15,-1
 950 506 l 1,16,-1
 950 430 l 1,17,-1
 662 430 l 1,18,-1
 567 -21 l 1,19,-1
 500 -21 l 1,20,-1
 595 430 l 1,21,-1
 232 430 l 1,22,-1
 137 -21 l 1,23,-1
 70 -21 l 1,24,-1
 165 430 l 1,25,-1
 0 430 l 1,26,-1
 0 506 l 1,27,-1
 181 506 l 1,0,-1
321 850 m 1,28,-1
 248 506 l 1,29,-1
 611 506 l 1,30,-1
 684 850 l 1,31,-1
 321 850 l 1,28,-1
EndSplineSet
EndChar

StartChar: existential
Encoding: 36 36 7
Width: 1124
Flags: W
LayerCount: 2
Fore
SplineSet
768 1250 m 1,0,-1
 0 1250 l 1,1,-1
 0 1350 l 1,2,-1
 868 1350 l 1,3,-1
 868 0 l 1,4,-1
 0 0 l 1,5,-1
 0 100 l 1,6,-1
 768 100 l 1,7,-1
 768 661 l 1,8,-1
 86 661 l 1,9,-1
 86 761 l 1,10,-1
 768 761 l 1,11,-1
 768 1250 l 1,0,-1
EndSplineSet
EndChar

StartChar: percent
Encoding: 37 37 8
Width: 1706
Flags: W
LayerCount: 2
Fore
SplineSet
289 654 m 0,0,1
 169 654 169 654 84.5 761 c 128,-1,2
 0 868 0 868 0 1019 c 256,3,4
 0 1170 0 1170 84.5 1277 c 128,-1,5
 169 1384 169 1384 289 1384 c 0,6,7
 408 1384 408 1384 492.5 1277 c 128,-1,8
 577 1170 577 1170 577 1019 c 256,9,10
 577 868 577 868 492.5 761 c 128,-1,11
 408 654 408 654 289 654 c 0,0,1
454 1019 m 256,12,13
 454 1151 454 1151 405.5 1244 c 128,-1,14
 357 1337 357 1337 289 1337 c 0,15,16
 220 1337 220 1337 172 1244 c 128,-1,17
 124 1151 124 1151 124 1019 c 256,18,19
 124 887 124 887 172 794.5 c 128,-1,20
 220 702 220 702 289 702 c 0,21,22
 357 702 357 702 405.5 794.5 c 128,-1,23
 454 887 454 887 454 1019 c 256,12,13
251 -50 m 1,24,-1
 1213 1384 l 1,25,-1
 1288 1384 l 1,26,-1
 326 -50 l 1,27,-1
 251 -50 l 1,24,-1
1225 -49 m 0,28,29
 1105 -49 1105 -49 1020.5 58 c 128,-1,30
 936 165 936 165 936 316 c 256,31,32
 936 467 936 467 1020.5 574 c 128,-1,33
 1105 681 1105 681 1225 681 c 0,34,35
 1344 681 1344 681 1428.5 574 c 128,-1,36
 1513 467 1513 467 1513 316 c 256,37,38
 1513 165 1513 165 1428.5 58 c 128,-1,39
 1344 -49 1344 -49 1225 -49 c 0,28,29
1390 316 m 256,40,41
 1390 448 1390 448 1341.5 541 c 128,-1,42
 1293 634 1293 634 1225 634 c 0,43,44
 1156 634 1156 634 1108 541 c 128,-1,45
 1060 448 1060 448 1060 316 c 256,46,47
 1060 184 1060 184 1108 91.5 c 128,-1,48
 1156 -1 1156 -1 1225 -1 c 0,49,50
 1293 -1 1293 -1 1341.5 91.5 c 128,-1,51
 1390 184 1390 184 1390 316 c 256,40,41
EndSplineSet
EndChar

StartChar: ampersand
Encoding: 38 38 9
Width: 1593
Flags: W
LayerCount: 2
Fore
SplineSet
586 875 m 1,0,1
 645 917 645 917 705 966 c 0,2,3
 832 1069 832 1069 833 1126 c 1,4,5
 838 1200 838 1200 796.5 1260 c 128,-1,6
 755 1320 755 1320 680 1322 c 1,7,8
 611 1325 611 1325 552 1268.5 c 128,-1,9
 493 1212 493 1212 499 1126 c 1,10,11
 502 1039 502 1039 586 875 c 1,0,1
619 813 m 1,12,13
 685 694 685 694 788 541 c 1,14,15
 843 456 843 456 894 389 c 1,16,17
 1069 605 1069 605 1063 716 c 1,18,19
 1068 826 1068 826 974 837 c 1,20,-1
 974 864 l 1,21,-1
 1396 864 l 1,22,-1
 1396 834 l 1,23,24
 1286 821 1286 821 1154 648 c 1,25,26
 1028 474 1028 474 925 348 c 1,27,28
 1108 114 1108 114 1215 112 c 0,29,30
 1308 110 1308 110 1357.5 151.5 c 128,-1,31
 1407 193 1407 193 1434 277 c 1,32,-1
 1453 248 l 1,33,34
 1439 130 1439 130 1349.5 51 c 128,-1,35
 1260 -28 1260 -28 1152 -19 c 1,36,37
 1009 -16 1009 -16 808 214 c 1,38,39
 764 167 764 167 727 132 c 0,40,41
 565 -18 565 -18 298 -17 c 1,42,43
 180 -18 180 -18 90 58.5 c 128,-1,44
 0 135 0 135 0 250 c 0,45,46
 0 415 0 415 104 515 c 0,47,48
 204 611 204 611 429 771 c 1,49,50
 342 942 342 942 336 1051 c 1,51,52
 342 1226 342 1226 450 1303 c 128,-1,53
 558 1380 558 1380 681 1378 c 1,54,55
 817 1382 817 1382 885.5 1295.5 c 128,-1,56
 954 1209 954 1209 947 1130 c 1,57,58
 945 1036 945 1036 780 923 c 0,59,60
 689 861 689 861 619 813 c 1,12,13
774 254 m 1,61,62
 715 325 715 325 652 415 c 0,63,64
 537 577 537 577 464 707 c 1,65,66
 376 642 376 642 298 567 c 0,67,68
 197 470 197 470 199 349 c 1,69,70
 195 241 195 241 253 161 c 128,-1,71
 311 81 311 81 472 83 c 1,72,73
 603 83 603 83 774 254 c 1,61,62
EndSplineSet
EndChar

StartChar: suchthat
Encoding: 39 39 10
Width: 899
Flags: W
LayerCount: 2
Fore
SplineSet
592 416 m 1,0,-1
 123 416 l 1,1,-1
 123 488 l 1,2,-1
 592 488 l 1,3,4
 580 635 580 635 466 753 c 0,5,6
 339 884 339 884 169 873 c 0,7,8
 118 870 118 870 61 853 c 1,9,-1
 49 901 l 1,10,11
 87 916 87 916 136.5 929 c 128,-1,12
 186 942 186 942 251 944 c 1,13,14
 492 940 492 940 628.5 798.5 c 128,-1,15
 765 657 765 657 769 459 c 1,16,17
 769 295 769 295 628 138 c 128,-1,18
 487 -19 487 -19 249 -27 c 1,19,20
 201 -31 201 -31 122.5 -17.5 c 128,-1,21
 44 -4 44 -4 1 13 c 1,22,-1
 20 60 l 1,23,24
 69 41 69 41 117 34 c 128,-1,25
 165 27 165 27 222 26 c 1,26,27
 400 36 400 36 498 159 c 0,28,29
 584 267 584 267 592 416 c 1,0,-1
EndSplineSet
EndChar

StartChar: parenleft
Encoding: 40 40 11
Width: 682
Flags: W
LayerCount: 2
Fore
SplineSet
554 -421 m 1,0,1
 368 -359 368 -359 222 -174 c 0,2,3
 1 104 1 104 1 498 c 0,4,5
 1 891 1 891 222 1170 c 0,6,7
 368 1354 368 1354 554 1416 c 1,8,-1
 554 1371 l 1,9,10
 429 1305 429 1305 327 1150 c 0,11,12
 150 880 150 880 150 498 c 0,13,14
 150 115 150 115 327 -155 c 0,15,16
 429 -310 429 -310 554 -376 c 1,17,-1
 554 -421 l 1,0,1
EndSplineSet
EndChar

StartChar: parenright
Encoding: 41 41 12
Width: 682
Flags: W
LayerCount: 2
Fore
SplineSet
47 -374 m 1,0,1
 173 -308 173 -308 274 -153 c 0,2,3
 451 117 451 117 451 500 c 0,4,5
 451 882 451 882 274 1152 c 0,6,7
 173 1307 173 1307 47 1373 c 1,8,-1
 47 1418 l 1,9,10
 233 1356 233 1356 380 1172 c 1,11,12
 600 893 600 893 600 500 c 0,13,14
 600 106 600 106 380 -172 c 0,15,16
 233 -357 233 -357 47 -419 c 1,17,-1
 47 -374 l 1,0,1
EndSplineSet
EndChar

StartChar: asterisk
Encoding: 42 42 13
Width: 1024
Flags: W
LayerCount: 2
Fore
SplineSet
383 722 m 1,0,1
 389 727 389 727 397 734 c 0,2,3
 447 772 447 772 486.5 821.5 c 128,-1,4
 526 871 526 871 571 898 c 1,5,6
 617 924 617 924 656.5 920 c 128,-1,7
 696 916 696 916 713 887 c 0,8,9
 729 858 729 858 713 822 c 128,-1,10
 697 786 697 786 651 759 c 0,11,12
 606 733 606 733 543 723.5 c 128,-1,13
 480 714 480 714 422 690 c 0,14,15
 412 686 412 686 405 684 c 1,16,17
 412 681 412 681 422 677 c 0,18,19
 480 653 480 653 543 644 c 128,-1,20
 606 635 606 635 651 609 c 0,21,22
 697 582 697 582 713 546 c 128,-1,23
 729 510 729 510 713 481 c 0,24,25
 696 452 696 452 657 447.5 c 128,-1,26
 618 443 618 443 571 470 c 0,27,28
 526 496 526 496 486.5 546 c 128,-1,29
 447 596 447 596 397 635 c 0,30,31
 389 641 389 641 383 646 c 1,32,33
 384 638 384 638 386 628 c 0,34,35
 394 565 394 565 417.5 506 c 128,-1,36
 441 447 441 447 441 395 c 0,37,38
 441 341 441 341 417.5 309 c 128,-1,39
 394 277 394 277 361 277 c 256,40,41
 328 277 328 277 304.5 309 c 128,-1,42
 281 341 281 341 281 395 c 0,43,44
 281 447 281 447 304.5 506 c 128,-1,45
 328 565 328 565 336 628 c 0,46,47
 337 637 337 637 339 646 c 1,48,49
 333 640 333 640 325 635 c 0,50,51
 275 596 275 596 235.5 546 c 128,-1,52
 196 496 196 496 151 470 c 0,53,54
 104 443 104 443 65 447.5 c 128,-1,55
 26 452 26 452 9 481 c 0,56,57
 -8 509 -8 509 8 545.5 c 128,-1,58
 24 582 24 582 70 608 c 0,59,60
 116 635 116 635 178.5 644 c 128,-1,61
 241 653 241 653 300 677 c 0,62,63
 309 681 309 681 316 684 c 1,64,65
 309 686 309 686 300 690 c 0,66,67
 241 714 241 714 178.5 723.5 c 128,-1,68
 116 733 116 733 70 759 c 256,69,70
 24 785 24 785 8 821.5 c 128,-1,71
 -8 858 -8 858 9 887 c 0,72,73
 25 915 25 915 64.5 919.5 c 128,-1,74
 104 924 104 924 150 897 c 0,75,76
 196 871 196 871 235 821.5 c 128,-1,77
 274 772 274 772 325 734 c 0,78,79
 332 728 332 728 339 722 c 1,80,81
 337 730 337 730 336 740 c 0,82,83
 328 803 328 803 304.5 861.5 c 128,-1,84
 281 920 281 920 281 973 c 256,85,86
 281 1026 281 1026 304.5 1058 c 128,-1,87
 328 1090 328 1090 361 1090 c 256,88,89
 394 1090 394 1090 417.5 1058 c 128,-1,90
 441 1026 441 1026 441 973 c 256,91,92
 441 920 441 920 417.5 861.5 c 128,-1,93
 394 803 394 803 386 740 c 0,94,95
 384 730 384 730 383 722 c 1,0,1
EndSplineSet
EndChar

StartChar: plus
Encoding: 43 43 14
Width: 1124
Flags: W
LayerCount: 2
Fore
SplineSet
577 577 m 1,0,-1
 1054 577 l 1,1,-1
 1054 477 l 1,2,-1
 577 477 l 1,3,-1
 577 0 l 1,4,-1
 477 0 l 1,5,-1
 477 477 l 1,6,-1
 0 477 l 1,7,-1
 0 577 l 1,8,-1
 477 577 l 1,9,-1
 477 1054 l 1,10,-1
 577 1054 l 1,11,-1
 577 577 l 1,0,-1
EndSplineSet
EndChar

StartChar: comma
Encoding: 44 44 15
Width: 512
Flags: W
LayerCount: 2
Fore
SplineSet
167 -16 m 1,0,1
 140 -35 140 -35 106 -35 c 0,2,3
 63 -35 63 -35 32 -3.5 c 128,-1,4
 1 28 1 28 1 73 c 0,5,6
 1 117 1 117 32 148.5 c 128,-1,7
 63 180 63 180 106 180 c 0,8,9
 180 180 180 180 237 126 c 128,-1,10
 294 72 294 72 300 -26 c 1,11,12
 298 -155 298 -155 188.5 -242 c 128,-1,13
 79 -329 79 -329 0 -351 c 1,14,-1
 20 -304 l 1,15,16
 135 -244 135 -244 186.5 -160.5 c 128,-1,17
 238 -77 238 -77 225 -33 c 1,18,19
 200 0 200 0 167 -16 c 1,0,1
EndSplineSet
EndChar

StartChar: minus
Encoding: 45 45 16
Width: 1124
Flags: W
LayerCount: 2
Fore
SplineSet
1048 580 m 1,0,-1
 1048 480 l 1,1,-1
 0 480 l 1,2,-1
 0 580 l 1,3,-1
 1048 580 l 1,0,-1
EndSplineSet
EndChar

StartChar: period
Encoding: 46 46 17
Width: 512
Flags: W
LayerCount: 2
Fore
SplineSet
31 6.5 m 128,-1,1
 0 38 0 38 0 83 c 0,2,3
 0 127 0 127 31 158.5 c 128,-1,4
 62 190 62 190 105 190 c 0,5,6
 149 190 149 190 179.5 158.5 c 128,-1,7
 210 127 210 127 210 83 c 0,8,9
 210 38 210 38 179.5 6.5 c 128,-1,10
 149 -25 149 -25 105 -25 c 0,11,0
 62 -25 62 -25 31 6.5 c 128,-1,1
EndSplineSet
EndChar

StartChar: slash
Encoding: 47 47 18
Width: 569
Flags: W
LayerCount: 2
Fore
SplineSet
2 -15 m 1,0,-1
 445 1410 l 1,1,-1
 529 1410 l 1,2,-1
 87 -15 l 1,3,-1
 2 -15 l 1,0,-1
EndSplineSet
EndChar

StartChar: zero
Encoding: 48 48 19
Width: 1024
Flags: W
LayerCount: 2
Fore
SplineSet
747 1173.5 m 128,-1,1
 875 968 875 968 875 677 c 256,2,3
 875 386 875 386 747 180.5 c 128,-1,4
 619 -25 619 -25 438 -25 c 0,5,6
 256 -25 256 -25 128 180.5 c 128,-1,7
 0 386 0 386 0 677 c 256,8,9
 0 968 0 968 128 1173.5 c 128,-1,10
 256 1379 256 1379 438 1379 c 0,11,0
 619 1379 619 1379 747 1173.5 c 128,-1,1
438 1315 m 0,12,13
 331 1315 331 1315 255.5 1128 c 128,-1,14
 180 941 180 941 180 677 c 256,15,16
 180 413 180 413 255.5 226 c 128,-1,17
 331 39 331 39 438 39 c 0,18,19
 544 39 544 39 619.5 226 c 128,-1,20
 695 413 695 413 695 677 c 256,21,22
 695 941 695 941 619.5 1128 c 128,-1,23
 544 1315 544 1315 438 1315 c 0,12,13
EndSplineSet
EndChar

StartChar: one
Encoding: 49 49 20
Width: 1024
Flags: W
LayerCount: 2
Fore
SplineSet
200 151 m 2,1,-1
 200 1053 l 1,2,3
 205 1172 205 1172 158.5 1205 c 128,-1,4
 112 1238 112 1238 13 1195 c 1,5,-1
 0 1211 l 1,6,-1
 325 1387 l 1,7,-1
 367 1387 l 1,8,-1
 367 151 l 2,9,10
 367 38 367 38 517 38 c 2,11,-1
 539 38 l 1,12,-1
 539 0 l 1,13,-1
 28 0 l 1,14,-1
 28 38 l 1,15,-1
 49 38 l 2,16,0
 200 38 200 38 200 151 c 2,1,-1
EndSplineSet
EndChar

StartChar: two
Encoding: 50 50 21
Width: 1024
Flags: W
LayerCount: 2
Fore
SplineSet
0 0 m 1,0,-1
 0 50 l 1,1,2
 434 432 434 432 541 606 c 128,-1,3
 648 780 648 780 652 927 c 1,4,5
 660 1066 660 1066 592.5 1152 c 128,-1,6
 525 1238 525 1238 373 1245 c 1,7,8
 229 1241 229 1241 161 1170 c 128,-1,9
 93 1099 93 1099 59 1013 c 1,10,-1
 35 1001 l 1,11,12
 61 1180 61 1180 167 1278.5 c 128,-1,13
 273 1377 273 1377 422 1376 c 1,14,15
 597 1373 597 1373 698.5 1267 c 128,-1,16
 800 1161 800 1161 802 1023 c 1,17,18
 798 695 798 695 512 424 c 0,19,20
 346 267 346 267 201 150 c 1,21,-1
 600 150 l 2,22,23
 815 150 815 150 866 263 c 1,24,-1
 893 270 l 1,25,-1
 800 0 l 1,26,-1
 0 0 l 1,0,-1
EndSplineSet
EndChar

StartChar: three
Encoding: 51 51 22
Width: 1024
Flags: W
LayerCount: 2
Fore
SplineSet
189 91 m 1,0,1
 273 32 273 32 373 52 c 1,2,3
 497 97 497 97 548.5 183 c 128,-1,4
 600 269 600 269 597 327 c 1,5,6
 602 529 602 529 494.5 609 c 128,-1,7
 387 689 387 689 236 668 c 1,8,-1
 218 691 l 1,9,10
 375 719 375 719 448 812 c 128,-1,11
 521 905 521 905 517 1024 c 1,12,13
 523 1125 523 1125 449 1187 c 128,-1,14
 375 1249 375 1249 299 1249 c 1,15,16
 194 1239 194 1239 135.5 1181.5 c 128,-1,17
 77 1124 77 1124 49 1077 c 1,18,-1
 24 1100 l 1,19,20
 61 1208 61 1208 161 1295.5 c 128,-1,21
 261 1383 261 1383 400 1383 c 0,22,23
 518 1383 518 1383 612 1300 c 128,-1,24
 706 1217 706 1217 706 1100 c 1,25,26
 701 1006 701 1006 638 923.5 c 128,-1,27
 575 841 575 841 499 799 c 1,28,29
 566 797 566 797 664 708.5 c 128,-1,30
 762 620 762 620 772 431 c 1,31,32
 767 203 767 203 604.5 93 c 128,-1,33
 442 -17 442 -17 218 -21 c 1,34,35
 147 -18 147 -18 86 0 c 0,36,37
 76 3 76 3 67 6 c 0,38,39
 24 21 24 21 9.5 48 c 128,-1,40
 -5 75 -5 75 5 103 c 0,41,42
 15 130 15 130 42.5 142.5 c 128,-1,43
 70 155 70 155 113 140 c 0,44,45
 132 133 132 133 150 123 c 0,46,47
 152 121 152 121 154 120 c 0,48,49
 172 107 172 107 189 91 c 1,0,1
EndSplineSet
EndChar

StartChar: four
Encoding: 52 52 23
Width: 1024
Flags: W
LayerCount: 2
Fore
SplineSet
82 498 m 1,0,-1
 575 498 l 1,1,-1
 575 1214 l 1,2,-1
 82 498 l 1,0,-1
738 1379 m 1,3,-1
 738 498 l 1,4,-1
 908 498 l 1,5,-1
 908 360 l 1,6,-1
 738 360 l 1,7,-1
 738 0 l 1,8,-1
 575 0 l 1,9,-1
 575 360 l 1,10,-1
 0 360 l 1,11,-1
 0 476 l 1,12,-1
 622 1379 l 1,13,-1
 738 1379 l 1,3,-1
EndSplineSet
EndChar

StartChar: five
Encoding: 53 53 24
Width: 1024
Flags: W
LayerCount: 2
Fore
SplineSet
151 133 m 1,0,1
 225 51 225 51 290 42 c 0,2,3
 432 23 432 23 532.5 123 c 128,-1,4
 633 223 633 223 640 376 c 1,5,6
 641 597 641 597 499 715 c 128,-1,7
 357 833 357 833 49 829 c 1,8,-1
 306 1358 l 1,9,-1
 791 1358 l 1,10,-1
 719 1190 l 1,11,-1
 306 1190 l 1,12,-1
 208 996 l 1,13,14
 504 952 504 952 632 795.5 c 128,-1,15
 760 639 760 639 768 465 c 1,16,17
 766 256 766 256 638 108.5 c 128,-1,18
 510 -39 510 -39 227 -30 c 1,19,20
 108 -19 108 -19 43 26 c 1,21,22
 33 31 33 31 24 40 c 0,23,24
 20 43 20 43 17 47 c 0,25,26
 0 68 0 68 0 95 c 0,27,28
 0 127 0 127 23.5 149.5 c 128,-1,29
 47 172 47 172 80 172 c 0,30,31
 114 172 114 172 138 150 c 0,32,33
 146 142 146 142 151 133 c 1,0,1
EndSplineSet
EndChar

StartChar: six
Encoding: 54 54 25
Width: 1024
Flags: W
LayerCount: 2
Fore
SplineSet
199 685 m 1,0,1
 185 600 185 600 184 504 c 0,2,3
 183 286 183 286 262 160 c 128,-1,4
 341 34 341 34 453 31 c 1,5,6
 543 30 543 30 613 141.5 c 128,-1,7
 683 253 683 253 684 386 c 0,8,9
 685 536 685 536 618.5 635.5 c 128,-1,10
 552 735 552 735 424 743 c 1,11,12
 312 743 312 743 199 685 c 1,0,1
211 746 m 1,13,14
 232 758 232 758 257 771 c 0,15,16
 349 815 349 815 485 813 c 1,17,18
 589 810 589 810 719 713.5 c 128,-1,19
 849 617 849 617 853 460 c 1,20,21
 852 245 852 245 742 112 c 128,-1,22
 632 -21 632 -21 426 -27 c 1,23,24
 275 -23 275 -23 141 111.5 c 128,-1,25
 7 246 7 246 0 534 c 1,26,27
 7 880 7 880 293 1130 c 128,-1,28
 579 1380 579 1380 816 1387 c 1,29,-1
 828 1362 l 1,30,31
 669 1342 669 1342 429 1130 c 0,32,33
 265 984 265 984 211 746 c 1,13,14
EndSplineSet
EndChar

StartChar: seven
Encoding: 55 55 26
Width: 1024
Flags: W
LayerCount: 2
Fore
SplineSet
403 -20 m 1,0,-1
 304 -20 l 1,1,-1
 713 1192 l 1,2,-1
 296 1192 l 2,3,4
 138 1192 138 1192 33 1042 c 1,5,-1
 8 1050 l 1,6,-1
 138 1359 l 1,7,-1
 855 1359 l 1,8,-1
 855 1316 l 1,9,-1
 403 -20 l 1,0,-1
EndSplineSet
EndChar

StartChar: eight
Encoding: 56 56 27
Width: 1024
Flags: W
LayerCount: 2
Fore
SplineSet
310 664 m 1,0,1
 240 604 240 604 201 546 c 0,2,3
 146 463 146 463 150 318 c 0,4,5
 153 193 153 193 225 114 c 128,-1,6
 297 35 297 35 400 27 c 1,7,8
 499 27 499 27 573 94 c 128,-1,9
 647 161 647 161 647 237 c 1,10,11
 648 303 648 303 608 354 c 128,-1,12
 568 405 568 405 489 484 c 2,13,-1
 310 664 l 1,0,1
411 789 m 1,14,15
 472 826 472 826 533 890 c 0,16,17
 611 973 611 973 611 1077 c 1,18,19
 616 1163 616 1163 562 1241 c 128,-1,20
 508 1319 508 1319 400 1327 c 1,21,22
 302 1324 302 1324 230 1266.5 c 128,-1,23
 158 1209 158 1209 155 1132 c 1,24,25
 156 1046 156 1046 220.5 976 c 128,-1,26
 285 906 285 906 348 852 c 1,27,-1
 411 789 l 1,14,15
269 705 m 1,28,-1
 233 741 l 2,29,30
 111 862 111 862 66 924.5 c 128,-1,31
 21 987 21 987 24 1060 c 1,32,33
 24 1179 24 1179 140.5 1275.5 c 128,-1,34
 257 1372 257 1372 399 1373 c 0,35,36
 554 1374 554 1374 650.5 1288 c 128,-1,37
 747 1202 747 1202 752 1077 c 1,38,39
 749 941 749 941 642 866 c 0,40,41
 552 803 552 803 447 753 c 1,42,-1
 603 597 l 2,43,44
 706 494 706 494 739.5 439 c 128,-1,45
 773 384 773 384 774 313 c 0,46,47
 777 185 777 185 667.5 81 c 128,-1,48
 558 -23 558 -23 373 -19 c 1,49,50
 242 -18 242 -18 120.5 76 c 128,-1,51
 -1 170 -1 170 0 300 c 0,52,53
 2 531 2 531 269 705 c 1,28,-1
EndSplineSet
EndChar

StartChar: nine
Encoding: 57 57 28
Width: 1024
Flags: W
LayerCount: 2
Fore
SplineSet
654 675 m 1,0,1
 668 760 668 760 669 856 c 0,2,3
 670 1074 670 1074 591 1200 c 128,-1,4
 512 1326 512 1326 400 1329 c 1,5,6
 310 1330 310 1330 240 1218.5 c 128,-1,7
 170 1107 170 1107 169 974 c 0,8,9
 168 824 168 824 234.5 724.5 c 128,-1,10
 301 625 301 625 429 617 c 1,11,12
 541 617 541 617 654 675 c 1,0,1
642 614 m 1,13,14
 621 602 621 602 597 590 c 0,15,16
 504 545 504 545 368 547 c 1,17,18
 264 550 264 550 134 646.5 c 128,-1,19
 4 743 4 743 0 900 c 1,20,21
 1 1115 1 1115 111 1248 c 128,-1,22
 221 1381 221 1381 427 1387 c 1,23,24
 578 1383 578 1383 712 1248.5 c 128,-1,25
 846 1114 846 1114 853 826 c 1,26,27
 846 480 846 480 560 230 c 128,-1,28
 274 -20 274 -20 37 -27 c 1,29,-1
 25 -2 l 1,30,31
 184 18 184 18 424 231 c 0,32,33
 588 376 588 376 642 614 c 1,13,14
EndSplineSet
EndChar

StartChar: colon
Encoding: 58 58 29
Width: 569
Flags: W
LayerCount: 2
Fore
SplineSet
31 766.5 m 128,-1,1
 0 798 0 798 0 843 c 0,2,3
 0 887 0 887 31 918.5 c 128,-1,4
 62 950 62 950 105 950 c 0,5,6
 149 950 149 950 179.5 918.5 c 128,-1,7
 210 887 210 887 210 843 c 0,8,9
 210 798 210 798 179.5 766.5 c 128,-1,10
 149 735 149 735 105 735 c 0,11,0
 62 735 62 735 31 766.5 c 128,-1,1
31 6.5 m 128,-1,13
 0 38 0 38 0 83 c 0,14,15
 0 127 0 127 31 158.5 c 128,-1,16
 62 190 62 190 105 190 c 0,17,18
 149 190 149 190 179.5 158.5 c 128,-1,19
 210 127 210 127 210 83 c 0,20,21
 210 38 210 38 179.5 6.5 c 128,-1,22
 149 -25 149 -25 105 -25 c 0,23,12
 62 -25 62 -25 31 6.5 c 128,-1,13
EndSplineSet
EndChar

StartChar: semicolon
Encoding: 59 59 30
Width: 569
Flags: W
LayerCount: 2
Fore
SplineSet
73 757.5 m 128,-1,1
 42 789 42 789 42 834 c 0,2,3
 42 878 42 878 73 909.5 c 128,-1,4
 104 941 104 941 147 941 c 0,5,6
 191 941 191 941 221.5 909.5 c 128,-1,7
 252 878 252 878 252 834 c 0,8,9
 252 789 252 789 221.5 757.5 c 128,-1,10
 191 726 191 726 147 726 c 0,11,0
 104 726 104 726 73 757.5 c 128,-1,1
167 -16 m 1,12,13
 140 -35 140 -35 106 -35 c 0,14,15
 63 -35 63 -35 32 -3.5 c 128,-1,16
 1 28 1 28 1 73 c 0,17,18
 1 117 1 117 32 148.5 c 128,-1,19
 63 180 63 180 106 180 c 0,20,21
 180 180 180 180 237 126 c 128,-1,22
 294 72 294 72 300 -26 c 1,23,24
 298 -155 298 -155 188.5 -242 c 128,-1,25
 79 -329 79 -329 0 -351 c 1,26,-1
 20 -304 l 1,27,28
 135 -244 135 -244 186.5 -160.5 c 128,-1,29
 238 -77 238 -77 225 -33 c 1,30,31
 200 0 200 0 167 -16 c 1,12,13
EndSplineSet
EndChar

StartChar: less
Encoding: 60 60 31
Width: 1124
Flags: W
LayerCount: 2
Fore
SplineSet
2 538 m 1,0,-1
 1006 1048 l 1,1,-1
 1006 946 l 1,2,-1
 168 521 l 1,3,-1
 1006 96 l 1,4,-1
 1006 -6 l 1,5,-1
 2 504 l 1,6,-1
 2 538 l 1,0,-1
EndSplineSet
EndChar

StartChar: equal
Encoding: 61 61 32
Width: 1124
Flags: W
LayerCount: 2
Fore
SplineSet
0 300 m 1,0,-1
 0 400 l 1,1,-1
 1050 400 l 1,2,-1
 1050 300 l 1,3,-1
 0 300 l 1,0,-1
0 650 m 1,4,-1
 0 750 l 1,5,-1
 1050 750 l 1,6,-1
 1050 650 l 1,7,-1
 0 650 l 1,4,-1
EndSplineSet
EndChar

StartChar: greater
Encoding: 62 62 33
Width: 1124
Flags: W
LayerCount: 2
Fore
SplineSet
1066 504 m 1,0,-1
 62 -6 l 1,1,-1
 62 96 l 1,2,-1
 900 521 l 1,3,-1
 62 946 l 1,4,-1
 62 1048 l 1,5,-1
 1066 538 l 1,6,-1
 1066 504 l 1,0,-1
EndSplineSet
EndChar

StartChar: question
Encoding: 63 63 34
Width: 909
Flags: W
LayerCount: 2
Fore
SplineSet
276 5.5 m 128,-1,1
 245 37 245 37 245 82 c 0,2,3
 245 126 245 126 276 157.5 c 128,-1,4
 307 189 307 189 350 189 c 0,5,6
 394 189 394 189 424.5 157.5 c 128,-1,7
 455 126 455 126 455 82 c 0,8,9
 455 37 455 37 424.5 5.5 c 128,-1,10
 394 -26 394 -26 350 -26 c 0,11,0
 307 -26 307 -26 276 5.5 c 128,-1,1
179 1057 m 1,12,13
 193 1038 193 1038 192 1018 c 1,14,15
 192 983 192 983 167.5 957.5 c 128,-1,16
 143 932 143 932 108 932 c 256,17,18
 73 932 73 932 49 953 c 1,19,20
 32 966 32 966 27 987 c 1,21,22
 6 1016 6 1016 0 1074 c 1,23,24
 -2 1249 -2 1249 105.5 1322.5 c 128,-1,25
 213 1396 213 1396 376 1399 c 1,26,27
 553 1392 553 1392 640.5 1294.5 c 128,-1,28
 728 1197 728 1197 734 1076 c 1,29,30
 733 925 733 925 565 775 c 128,-1,31
 397 625 397 625 366 311 c 1,32,-1
 336 311 l 1,33,34
 353 645 353 645 454.5 789.5 c 128,-1,35
 556 934 556 934 554 1049 c 1,36,37
 557 1197 557 1197 499.5 1271.5 c 128,-1,38
 442 1346 442 1346 326 1351 c 1,39,40
 237 1349 237 1349 186 1297 c 128,-1,41
 135 1245 135 1245 129 1174 c 1,42,43
 137 1089 137 1089 179 1057 c 1,12,13
EndSplineSet
EndChar

StartChar: congruent
Encoding: 64 64 35
Width: 1124
Flags: W
LayerCount: 2
Fore
SplineSet
51 675 m 1,0,-1
 5 691 l 1,1,2
 0 851 0 851 79.5 943.5 c 128,-1,3
 159 1036 159 1036 275 1039 c 1,4,5
 404 1038 404 1038 549.5 938.5 c 128,-1,6
 695 839 695 839 805 826 c 0,7,8
 902 815 902 815 942.5 889 c 128,-1,9
 983 963 983 963 973 1023 c 1,10,-1
 1018 1006 l 1,11,12
 1018 814 1018 814 938.5 742 c 128,-1,13
 859 670 859 670 793 673 c 1,14,15
 679 669 679 669 503 785 c 128,-1,16
 327 901 327 901 242 900 c 1,17,18
 156 902 156 902 101.5 840.5 c 128,-1,19
 47 779 47 779 51 675 c 1,0,-1
0 0 m 1,20,-1
 0 100 l 1,21,-1
 1050 100 l 1,22,-1
 1050 0 l 1,23,-1
 0 0 l 1,20,-1
0 350 m 1,24,-1
 0 450 l 1,25,-1
 1050 450 l 1,26,-1
 1050 350 l 1,27,-1
 0 350 l 1,24,-1
EndSplineSet
EndChar

StartChar: Alpha
Encoding: 65 65 36
Width: 1479
Flags: W
LayerCount: 2
Fore
SplineSet
881 508 m 1,0,-1
 659 1019 l 1,1,-1
 445 508 l 1,2,-1
 881 508 l 1,0,-1
314 196 m 2,3,4
 249 41 249 41 426 41 c 1,5,-1
 426 0 l 1,6,-1
 0 0 l 1,7,-1
 0 41 l 1,8,9
 140 41 140 41 205 196 c 2,10,-1
 699 1373 l 1,11,-1
 723 1373 l 1,12,-1
 1235 196 l 2,13,14
 1302 41 1302 41 1432 41 c 1,15,-1
 1432 0 l 1,16,-1
 908 0 l 1,17,-1
 908 41 l 1,18,19
 1084 41 1084 41 1017 196 c 2,20,-1
 904 455 l 1,21,-1
 423 455 l 1,22,-1
 314 196 l 2,3,4
EndSplineSet
EndChar

StartChar: Beta
Encoding: 66 66 37
Width: 1366
Flags: W
LayerCount: 2
Fore
SplineSet
993 347 m 1,0,1
 994 543 994 543 877 603 c 128,-1,2
 760 663 760 663 558 676 c 1,3,4
 473 676 473 676 380 661 c 1,5,-1
 380 78 l 1,6,-1
 700 78 l 1,7,8
 789 77 789 77 887 139.5 c 128,-1,9
 985 202 985 202 993 347 c 1,0,1
380 747 m 1,10,11
 446 734 446 734 539 730 c 1,12,13
 765 738 765 738 858.5 814.5 c 128,-1,14
 952 891 952 891 950 1007 c 1,15,16
 952 1102 952 1102 875 1182 c 128,-1,17
 798 1262 798 1262 600 1286 c 1,18,19
 476 1294 476 1294 380 1276 c 1,20,-1
 380 747 l 1,10,11
698 0 m 1,21,-1
 0 0 l 1,22,-1
 0 42 l 1,23,24
 200 42 200 42 200 201 c 2,25,-1
 200 1151 l 2,26,27
 200 1308 200 1308 0 1308 c 1,28,-1
 0 1350 l 1,29,-1
 611 1350 l 1,30,31
 874 1344 874 1344 983.5 1246 c 128,-1,32
 1093 1148 1093 1148 1095 1028 c 1,33,34
 1099 914 1099 914 1054 824 c 128,-1,35
 1009 734 1009 734 902 700 c 1,36,37
 1013 685 1013 685 1110.5 609.5 c 128,-1,38
 1208 534 1208 534 1213 371 c 1,39,40
 1204 174 1204 174 1081.5 84.5 c 128,-1,41
 959 -5 959 -5 698 0 c 1,21,-1
EndSplineSet
EndChar

StartChar: Chi
Encoding: 67 67 38
Width: 1479
Flags: W
LayerCount: 2
Fore
SplineSet
1159 202 m 2,0,1
 1265 41 1265 41 1440 41 c 1,2,-1
 1440 0 l 1,3,-1
 855 0 l 1,4,-1
 855 41 l 1,5,6
 1035 41 1035 41 929 202 c 1,7,-1
 862 305 l 1,8,-1
 688 569 l 1,9,-1
 472 305 l 1,10,-1
 387 202 l 2,11,12
 255 41 255 41 478 41 c 1,13,-1
 478 0 l 1,14,-1
 0 0 l 1,15,-1
 0 41 l 1,16,17
 129 41 129 41 261 202 c 2,18,-1
 381 348 l 1,19,-1
 632 654 l 1,20,-1
 416 982 l 1,21,-1
 304 1152 l 2,22,23
 201 1309 201 1309 0 1309 c 1,24,-1
 0 1350 l 1,25,-1
 655 1350 l 1,26,-1
 655 1309 l 1,27,28
 430 1309 430 1309 534 1152 c 2,29,-1
 595 1060 l 1,30,-1
 759 810 l 1,31,-1
 964 1060 l 1,32,-1
 1040 1152 l 2,33,34
 1169 1309 1169 1309 928 1309 c 1,35,-1
 928 1350 l 1,36,-1
 1413 1350 l 1,37,-1
 1413 1309 l 1,38,39
 1295 1309 1295 1309 1166 1152 c 2,40,-1
 1055 1017 l 1,41,-1
 815 724 l 1,42,-1
 1040 383 l 1,43,-1
 1159 202 l 2,0,1
EndSplineSet
EndChar

StartChar: Delta
Encoding: 68 68 39
Width: 1253
Flags: W
LayerCount: 2
Fore
SplineSet
967 80 m 1,0,-1
 546 1051 l 1,1,-1
 125 80 l 1,2,-1
 967 80 l 1,0,-1
0 0 m 1,3,-1
 600 1385 l 1,4,-1
 1200 0 l 1,5,-1
 0 0 l 1,3,-1
EndSplineSet
EndChar

StartChar: Epsilon
Encoding: 69 69 40
Width: 1251
Flags: W
LayerCount: 2
Fore
SplineSet
0 0 m 1,0,-1
 0 36 l 1,1,2
 195 36 195 36 195 190 c 2,3,-1
 195 1145 l 2,4,5
 195 1314 195 1314 0 1314 c 1,6,-1
 0 1350 l 1,7,-1
 1043 1350 l 1,8,-1
 1060 1059 l 1,9,-1
 1021 1071 l 1,10,11
 971 1279 971 1279 805 1281 c 1,12,-1
 388 1281 l 1,13,-1
 388 745 l 1,14,-1
 712 745 l 2,15,16
 900 745 900 745 900 944 c 1,17,-1
 938 944 l 1,18,-1
 938 476 l 1,19,-1
 900 476 l 1,20,21
 900 676 900 676 712 676 c 2,22,-1
 388 676 l 1,23,-1
 388 69 l 1,24,-1
 799 69 l 1,25,26
 1018 64 1018 64 1118 277 c 1,27,-1
 1165 295 l 1,28,-1
 1050 0 l 1,29,-1
 0 0 l 1,0,-1
EndSplineSet
EndChar

StartChar: Phi
Encoding: 70 70 41
Width: 1563
Flags: W
LayerCount: 2
Fore
SplineSet
808 230 m 1,0,1
 966 254 966 254 1087 356 c 0,2,3
 1243 488 1243 488 1243 675 c 256,4,5
 1243 862 1243 862 1087 995 c 1,6,7
 966 1096 966 1096 808 1120 c 1,8,-1
 808 230 l 1,0,1
605 1119 m 1,9,10
 450 1095 450 1095 332 995 c 0,11,12
 175 862 175 862 175 675 c 256,13,14
 175 488 175 488 332 356 c 1,15,16
 450 255 450 255 605 231 c 1,17,-1
 605 1119 l 1,9,10
605 1159 m 1,18,-1
 605 1172 l 2,19,20
 605 1314 605 1314 413 1314 c 1,21,-1
 413 1350 l 1,22,-1
 1000 1350 l 1,23,-1
 1000 1314 l 1,24,25
 808 1314 808 1314 808 1172 c 2,26,-1
 808 1160 l 1,27,28
 1039 1139 1039 1139 1211 1021 c 0,29,30
 1418 878 1418 878 1418 675 c 256,31,32
 1418 472 1418 472 1211 329 c 0,33,34
 1039 211 1039 211 808 190 c 1,35,-1
 808 164 l 2,36,37
 808 36 808 36 1000 36 c 1,38,-1
 1000 0 l 1,39,-1
 413 0 l 1,40,-1
 413 36 l 1,41,42
 605 36 605 36 605 164 c 2,43,-1
 605 191 l 1,44,45
 377 212 377 212 208 329 c 0,46,47
 0 472 0 472 0 675 c 256,48,49
 0 878 0 878 208 1021 c 0,50,51
 377 1138 377 1138 605 1159 c 1,18,-1
EndSplineSet
EndChar

StartChar: Gamma
Encoding: 71 71 42
Width: 1235
Flags: W
LayerCount: 2
Fore
SplineSet
0 1313 m 1,1,-1
 0 1350 l 1,2,-1
 1100 1350 l 1,3,-1
 1140 1027 l 1,4,-1
 1111 1042 l 1,5,6
 1035 1269 1035 1269 848 1270 c 1,7,-1
 391 1270 l 1,8,-1
 391 201 l 2,9,10
 391 37 391 37 604 37 c 1,11,-1
 604 0 l 1,12,-1
 0 0 l 1,13,-1
 0 37 l 1,14,15
 194 37 194 37 194 200 c 2,16,-1
 194 1149 l 2,17,0
 194 1313 194 1313 0 1313 c 1,1,-1
EndSplineSet
EndChar

StartChar: Eta
Encoding: 72 72 43
Width: 1479
Flags: W
LayerCount: 2
Fore
SplineSet
387 659 m 1,0,-1
 387 196 l 2,1,2
 387 40 387 40 574 40 c 1,3,-1
 574 0 l 1,4,-1
 0 0 l 1,5,-1
 0 40 l 1,6,7
 187 40 187 40 187 196 c 2,8,-1
 187 1145 l 2,9,10
 187 1310 187 1310 0 1310 c 1,11,-1
 0 1350 l 1,12,-1
 574 1350 l 1,13,-1
 574 1310 l 1,14,15
 387 1310 387 1310 387 1145 c 2,16,-1
 387 745 l 1,17,-1
 1014 745 l 1,18,-1
 1014 1145 l 2,19,20
 1014 1310 1014 1310 828 1310 c 1,21,-1
 828 1350 l 1,22,-1
 1400 1350 l 1,23,-1
 1400 1310 l 1,24,25
 1214 1310 1214 1310 1214 1145 c 2,26,-1
 1214 196 l 2,27,28
 1214 40 1214 40 1400 40 c 1,29,-1
 1400 0 l 1,30,-1
 828 0 l 1,31,-1
 828 40 l 1,32,33
 1014 40 1014 40 1014 196 c 2,34,-1
 1014 659 l 1,35,-1
 387 659 l 1,0,-1
EndSplineSet
EndChar

StartChar: Iota
Encoding: 73 73 44
Width: 682
Flags: W
LayerCount: 2
Fore
SplineSet
0 1313 m 1,1,-1
 0 1350 l 1,2,-1
 582 1350 l 1,3,-1
 582 1313 l 1,4,5
 391 1313 391 1313 391 1150 c 2,6,-1
 391 198 l 2,7,8
 391 37 391 37 582 37 c 1,9,-1
 582 0 l 1,10,-1
 0 0 l 1,11,-1
 0 37 l 1,12,13
 191 37 191 37 191 198 c 2,14,-1
 191 1150 l 2,15,0
 191 1313 191 1313 0 1313 c 1,1,-1
EndSplineSet
EndChar

StartChar: theta1
Encoding: 74 74 45
Width: 1292
Flags: W
LayerCount: 2
Fore
SplineSet
802 674 m 1,0,1
 802 1083 802 1083 745 1217 c 0,2,3
 683 1362 683 1362 548 1363 c 1,4,5
 429 1366 429 1366 372.5 1286 c 128,-1,6
 316 1206 316 1206 317 1024 c 1,7,8
 322 898 322 898 416.5 784 c 128,-1,9
 511 670 511 670 648 665 c 1,10,11
 744 669 744 669 792 674 c 1,12,-1
 802 674 l 1,0,1
965 666 m 1,13,14
 1027 645 1027 645 1054 578 c 0,15,16
 1092 482 1092 482 1094 380 c 1,17,-1
 1060 400 l 1,18,19
 1041 516 1041 516 979 534 c 0,20,21
 971 536 971 536 962 538 c 1,22,23
 947 356 947 356 856 176 c 0,24,25
 749 -34 749 -34 470 -37 c 1,26,27
 299 -34 299 -34 230 53.5 c 128,-1,28
 161 141 161 141 158 229 c 1,29,30
 159 412 159 412 129 457 c 128,-1,31
 99 502 99 502 20 478 c 1,32,-1
 0 500 l 1,33,34
 62 527 62 527 127 527 c 1,35,36
 238 516 238 516 276.5 426.5 c 128,-1,37
 315 337 315 337 312 227 c 1,38,39
 312 147 312 147 354 86 c 128,-1,40
 396 25 396 25 478 22 c 1,41,42
 682 19 682 19 741 205 c 0,43,44
 793 368 793 368 801 551 c 1,45,46
 601 552 601 552 401 704 c 1,47,48
 193 860 193 860 188 1082 c 1,49,50
 184 1201 184 1201 275.5 1307 c 128,-1,51
 367 1413 367 1413 551 1414 c 1,52,53
 763 1407 763 1407 865 1228 c 0,54,55
 959 1063 959 1063 965 666 c 1,13,14
EndSplineSet
EndChar

StartChar: Kappa
Encoding: 75 75 46
Width: 1479
Flags: W
LayerCount: 2
Fore
SplineSet
788 1314 m 1,1,-1
 788 1350 l 1,2,-1
 1289 1350 l 1,3,-1
 1289 1314 l 1,4,5
 1111 1314 1111 1314 939 1142 c 2,6,-1
 572 773 l 1,7,-1
 1133 212 l 2,8,9
 1310 36 1310 36 1472 36 c 1,10,-1
 1472 0 l 1,11,-1
 832 0 l 1,12,-1
 832 36 l 1,13,14
 1024 36 1024 36 868 193 c 1,15,-1
 392 666 l 1,16,-1
 392 198 l 2,17,18
 392 36 392 36 584 36 c 1,19,-1
 584 0 l 1,20,-1
 0 0 l 1,21,-1
 0 36 l 1,22,23
 192 36 192 36 192 197 c 2,24,-1
 192 1150 l 2,25,26
 192 1314 192 1314 0 1314 c 1,27,-1
 0 1350 l 1,28,-1
 584 1350 l 1,29,-1
 584 1314 l 1,30,31
 392 1314 392 1314 392 1139 c 2,32,-1
 392 694 l 1,33,-1
 847 1151 l 1,34,0
 1012 1314 1012 1314 788 1314 c 1,1,-1
EndSplineSet
EndChar

StartChar: Lambda
Encoding: 76 76 47
Width: 1405
Flags: W
LayerCount: 2
Fore
SplineSet
705 1386 m 1,0,-1
 1183 205 l 1,1,2
 1247 36 1247 36 1386 36 c 1,3,-1
 1386 0 l 1,4,-1
 841 0 l 1,5,-1
 841 36 l 1,6,7
 1056 36 1056 36 991 197 c 2,8,-1
 630 1096 l 1,9,-1
 263 200 l 2,10,11
 196 36 196 36 409 36 c 1,12,-1
 409 0 l 1,13,-1
 0 0 l 1,14,-1
 0 36 l 1,15,16
 105 36 105 36 171 201 c 1,17,-1
 585 1209 l 1,18,-1
 658 1386 l 1,19,-1
 705 1386 l 1,0,-1
EndSplineSet
EndChar

StartChar: Mu
Encoding: 77 77 48
Width: 1821
Flags: W
LayerCount: 2
Fore
SplineSet
801 0 m 1,0,-1
 764 79 l 1,1,-1
 766 83 l 1,2,-1
 284 1114 l 1,3,-1
 284 152 l 2,4,5
 284 33 284 33 376 33 c 2,6,-1
 468 33 l 1,7,-1
 468 3 l 1,8,-1
 0 3 l 1,9,-1
 0 33 l 1,10,-1
 92 33 l 2,11,12
 184 33 184 33 184 152 c 2,13,-1
 184 1210 l 2,14,15
 184 1323 184 1323 0 1323 c 1,16,-1
 0 1360 l 1,17,-1
 169 1360 l 1,18,-1
 168 1362 l 1,19,-1
 389 1362 l 1,20,-1
 390 1360 l 1,21,-1
 876 321 l 1,22,-1
 1358 1363 l 1,23,-1
 1468 1363 l 1,24,-1
 1467 1360 l 1,25,-1
 1736 1360 l 1,26,-1
 1736 1323 l 1,27,28
 1557 1323 1557 1323 1557 1202 c 2,29,-1
 1557 157 l 2,30,31
 1557 33 1557 33 1647 33 c 2,32,-1
 1736 33 l 1,33,-1
 1736 3 l 1,34,-1
 1177 3 l 1,35,-1
 1177 33 l 1,36,-1
 1267 33 l 2,37,38
 1357 33 1357 33 1357 157 c 2,39,-1
 1357 1123 l 1,40,-1
 932 202 l 1,41,-1
 933 199 l 1,42,-1
 841 0 l 1,43,-1
 801 0 l 1,0,-1
EndSplineSet
EndChar

StartChar: Nu
Encoding: 78 78 49
Width: 1479
Flags: W
LayerCount: 2
Fore
SplineSet
0 1313 m 1,1,-1
 0 1350 l 1,2,-1
 376 1350 l 1,3,-1
 1200 346 l 1,4,-1
 1200 1206 l 2,5,6
 1200 1312 1200 1312 1104 1312 c 2,7,-1
 1007 1312 l 1,8,-1
 1007 1350 l 1,9,-1
 1475 1350 l 1,10,-1
 1475 1312 l 1,11,-1
 1379 1312 l 2,12,13
 1282 1312 1282 1312 1282 1207 c 2,14,-1
 1282 -30 l 1,15,-1
 1249 -30 l 1,16,-1
 356 1058 l 1,17,-1
 356 136 l 2,18,19
 356 37 356 37 454 37 c 2,20,-1
 552 37 l 1,21,-1
 552 0 l 1,22,-1
 77 0 l 1,23,-1
 77 37 l 1,24,-1
 175 37 l 2,25,26
 273 37 273 37 273 136 c 2,27,-1
 273 1159 l 1,28,0
 147 1313 147 1313 0 1313 c 1,1,-1
EndSplineSet
EndChar

StartChar: Omicron
Encoding: 79 79 50
Width: 1479
Flags: W
LayerCount: 2
Fore
SplineSet
1122.5 1186.5 m 128,-1,1
 1315 979 1315 979 1315 685 c 256,2,3
 1315 391 1315 391 1122.5 183.5 c 128,-1,4
 930 -24 930 -24 658 -24 c 0,5,6
 385 -24 385 -24 192.5 183.5 c 128,-1,7
 0 391 0 391 0 685 c 256,8,9
 0 979 0 979 192.5 1186.5 c 128,-1,10
 385 1394 385 1394 658 1394 c 0,11,0
 930 1394 930 1394 1122.5 1186.5 c 128,-1,1
658 1346 m 0,12,13
 470 1346 470 1346 338 1152.5 c 128,-1,14
 206 959 206 959 206 685 c 256,15,16
 206 411 206 411 338 218 c 128,-1,17
 470 25 470 25 658 25 c 0,18,19
 845 25 845 25 977 218 c 128,-1,20
 1109 411 1109 411 1109 685 c 256,21,22
 1109 959 1109 959 977 1152.5 c 128,-1,23
 845 1346 845 1346 658 1346 c 0,12,13
EndSplineSet
EndChar

StartChar: Pi
Encoding: 80 80 51
Width: 1573
Flags: W
LayerCount: 2
Fore
SplineSet
551 49 m 2,1,-1
 606 49 l 1,2,-1
 606 0 l 1,3,-1
 0 0 l 1,4,-1
 0 49 l 1,5,-1
 51 49 l 2,6,7
 203 49 203 49 203 172 c 2,8,-1
 203 1168 l 2,9,10
 203 1309 203 1309 51 1309 c 2,11,-1
 0 1309 l 1,12,-1
 0 1358 l 1,13,-1
 1500 1358 l 1,14,-1
 1500 1309 l 1,15,-1
 1449 1309 l 2,16,17
 1295 1309 1295 1309 1295 1168 c 2,18,-1
 1295 172 l 2,19,20
 1295 49 1295 49 1449 49 c 2,21,-1
 1500 49 l 1,22,-1
 1500 0 l 1,23,-1
 904 0 l 1,24,-1
 904 49 l 1,25,-1
 956 49 l 2,26,27
 1113 49 1113 49 1113 171 c 2,28,-1
 1113 1282 l 1,29,-1
 385 1282 l 1,30,-1
 385 171 l 2,31,0
 385 49 385 49 551 49 c 2,1,-1
EndSplineSet
EndChar

StartChar: Theta
Encoding: 81 81 52
Width: 1518
Flags: W
LayerCount: 2
Fore
SplineSet
1173.5 1174 m 128,-1,1
 1375 968 1375 968 1375 676 c 256,2,3
 1375 384 1375 384 1173.5 178 c 128,-1,4
 972 -28 972 -28 688 -28 c 0,5,6
 403 -28 403 -28 201.5 178 c 128,-1,7
 0 384 0 384 0 676 c 256,8,9
 0 968 0 968 201.5 1174 c 128,-1,10
 403 1380 403 1380 688 1380 c 0,11,0
 972 1380 972 1380 1173.5 1174 c 128,-1,1
688 1324 m 0,12,13
 503 1324 503 1324 373 1134 c 128,-1,14
 243 944 243 944 243 676 c 256,15,16
 243 408 243 408 373 218.5 c 128,-1,17
 503 29 503 29 688 29 c 0,18,19
 872 29 872 29 1002.5 218.5 c 128,-1,20
 1133 408 1133 408 1133 676 c 256,21,22
 1133 944 1133 944 1002.5 1134 c 128,-1,23
 872 1324 872 1324 688 1324 c 0,12,13
904 897 m 1,25,-1
 932 897 l 1,26,-1
 932 456 l 1,27,-1
 904 456 l 1,28,29
 904 604 904 604 796 604 c 2,30,-1
 580 604 l 2,31,32
 472 604 472 604 472 456 c 1,33,-1
 444 456 l 1,34,-1
 444 897 l 1,35,-1
 472 897 l 1,36,37
 472 750 472 750 580 750 c 2,38,-1
 796 750 l 2,39,24
 904 750 904 750 904 897 c 1,25,-1
EndSplineSet
EndChar

StartChar: Rho
Encoding: 82 82 53
Width: 1139
Flags: W
LayerCount: 2
Fore
SplineSet
379 679 m 1,0,1
 472 661 472 661 530 659 c 1,2,3
 655 659 655 659 735 752.5 c 128,-1,4
 815 846 815 846 815 943 c 1,5,6
 820 1087 820 1087 739 1188 c 128,-1,7
 658 1289 658 1289 524 1290 c 1,8,9
 459 1287 459 1287 379 1253 c 1,10,-1
 379 679 l 1,0,1
379 631 m 1,11,-1
 379 196 l 2,12,13
 379 34 379 34 486 34 c 2,14,-1
 592 34 l 1,15,-1
 592 0 l 1,16,-1
 0 0 l 1,17,-1
 0 34 l 1,18,-1
 96 34 l 2,19,20
 192 34 192 34 192 196 c 2,21,-1
 192 1154 l 2,22,23
 192 1320 192 1320 0 1320 c 1,24,-1
 0 1354 l 1,25,-1
 592 1354 l 1,26,27
 806 1348 806 1348 916 1233.5 c 128,-1,28
 1026 1119 1026 1119 1029 932 c 1,29,30
 1018 773 1018 773 883.5 684 c 128,-1,31
 749 595 749 595 601 607 c 1,32,33
 513 609 513 609 379 631 c 1,11,-1
EndSplineSet
EndChar

StartChar: Sigma
Encoding: 83 83 54
Width: 1212
Flags: W
LayerCount: 2
Fore
SplineSet
0 1353 m 1,0,-1
 982 1353 l 1,1,-1
 1025 1027 l 1,2,-1
 993 1051 l 1,3,4
 973 1134 973 1134 926 1203 c 128,-1,5
 879 1272 879 1272 749 1277 c 1,6,-1
 263 1277 l 1,7,-1
 699 743 l 1,8,-1
 183 157 l 1,9,-1
 820 157 l 1,10,11
 915 158 915 158 967.5 196 c 128,-1,12
 1020 234 1020 234 1043 337 c 1,13,-1
 1083 355 l 1,14,-1
 1018 -2 l 1,15,-1
 0 -2 l 1,16,-1
 0 41 l 1,17,-1
 533 648 l 1,18,-1
 0 1308 l 1,19,-1
 0 1353 l 1,0,-1
EndSplineSet
EndChar

StartChar: Tau
Encoding: 84 84 55
Width: 1251
Flags: W
LayerCount: 2
Fore
SplineSet
470 1271 m 1,0,-1
 236 1271 l 2,1,2
 87 1271 87 1271 39 1037 c 1,3,-1
 0 1037 l 1,4,-1
 16 1357 l 1,5,-1
 1117 1357 l 1,6,-1
 1145 1037 l 1,7,-1
 1110 1037 l 1,8,9
 1057 1271 1057 1271 908 1271 c 2,10,-1
 663 1271 l 1,11,-1
 663 119 l 2,12,13
 663 26 663 26 759 26 c 2,14,-1
 855 26 l 1,15,-1
 855 0 l 1,16,-1
 278 0 l 1,17,-1
 278 26 l 1,18,-1
 374 26 l 2,19,20
 470 26 470 26 470 119 c 2,21,-1
 470 1271 l 1,0,-1
EndSplineSet
EndChar

StartChar: Upsilon
Encoding: 85 85 56
Width: 1413
Flags: W
LayerCount: 2
Fore
SplineSet
0 1312 m 1,1,-1
 0 1350 l 1,2,-1
 571 1350 l 1,3,-1
 571 1312 l 1,4,5
 373 1312 373 1312 466 1151 c 2,6,-1
 753 660 l 1,7,-1
 1030 1153 l 1,8,9
 1118 1312 1118 1312 907 1312 c 1,10,-1
 907 1350 l 1,11,-1
 1381 1350 l 1,12,-1
 1381 1312 l 1,13,14
 1200 1312 1200 1312 1110 1149 c 2,15,-1
 780 558 l 1,16,-1
 780 199 l 2,17,18
 780 37 780 37 974 37 c 1,19,-1
 974 -1 l 1,20,-1
 403 -1 l 1,21,-1
 403 37 l 1,22,23
 592 37 592 37 592 199 c 2,24,-1
 592 558 l 1,25,-1
 249 1148 l 1,26,0
 155 1312 155 1312 0 1312 c 1,1,-1
EndSplineSet
EndChar

StartChar: sigma1
Encoding: 86 86 57
Width: 899
Flags: W
LayerCount: 2
Fore
SplineSet
635 856 m 1,0,-1
 635 855 l 1,1,2
 509 902 509 902 328.5 796 c 128,-1,3
 148 690 148 690 102 463 c 1,4,5
 84 280 84 280 152.5 200 c 128,-1,6
 221 120 221 120 331 151 c 1,7,8
 444 178 444 178 478.5 185 c 128,-1,9
 513 192 513 192 570 193 c 1,10,11
 705 190 705 190 760.5 113.5 c 128,-1,12
 816 37 816 37 814 -112 c 0,13,14
 813 -243 813 -243 747.5 -320.5 c 128,-1,15
 682 -398 682 -398 600 -426 c 128,-1,16
 518 -454 518 -454 415 -453 c 1,17,18
 356 -455 356 -455 325 -434 c 128,-1,19
 294 -413 294 -413 294 -374 c 0,20,21
 294 -326 294 -326 347 -302 c 1,22,23
 402 -287 402 -287 463 -325 c 128,-1,24
 524 -363 524 -363 626.5 -320.5 c 128,-1,25
 729 -278 729 -278 733 -150 c 1,26,27
 734 -62 734 -62 686.5 -31 c 128,-1,28
 639 0 639 0 594 -2 c 1,29,30
 542 2 542 2 463 -24.5 c 128,-1,31
 384 -51 384 -51 281 -48 c 1,32,33
 185 -43 185 -43 112 28 c 128,-1,34
 39 99 39 99 19 195 c 128,-1,35
 -1 291 -1 291 2 387 c 1,36,37
 0 633 0 633 203 803 c 0,38,39
 391 960 391 960 621 980 c 1,40,41
 689 984 689 984 749 968 c 0,42,43
 809 953 809 953 825 926.5 c 128,-1,44
 841 900 841 900 833 870 c 0,45,46
 825 841 825 841 798 825.5 c 128,-1,47
 771 810 771 810 712 826 c 0,48,49
 673 836 673 836 635 856 c 1,0,-1
EndSplineSet
EndChar

StartChar: Omega
Encoding: 87 87 58
Width: 1573
Flags: W
LayerCount: 2
Fore
SplineSet
723 1329 m 1,0,1
 511 1319 511 1319 387 1171 c 0,2,3
 262 1022 262 1022 267 786 c 1,4,5
 263 622 263 622 320.5 478.5 c 128,-1,6
 378 335 378 335 531 270 c 1,7,-1
 569 0 l 1,8,-1
 0 0 l 1,9,-1
 0 250 l 1,10,-1
 34 250 l 1,11,12
 34 163 34 163 129 163 c 2,13,-1
 477 163 l 1,14,-1
 477 229 l 1,15,16
 352 242 352 242 202 385 c 128,-1,17
 52 528 52 528 45 778 c 1,18,19
 55 1047 55 1047 253 1218 c 0,20,21
 449 1388 449 1388 723 1385 c 1,22,23
 997 1388 997 1388 1194 1218 c 0,24,25
 1391 1047 1391 1047 1401 778 c 1,26,27
 1394 528 1394 528 1244 385 c 128,-1,28
 1094 242 1094 242 969 229 c 1,29,-1
 969 163 l 1,30,-1
 1318 163 l 2,31,32
 1412 163 1412 163 1412 250 c 1,33,-1
 1446 250 l 1,34,-1
 1446 0 l 1,35,-1
 877 0 l 1,36,-1
 915 270 l 1,37,38
 1068 335 1068 335 1125.5 478.5 c 128,-1,39
 1183 622 1183 622 1179 786 c 1,40,41
 1184 1022 1184 1022 1059 1171 c 0,42,43
 935 1319 935 1319 723 1329 c 1,0,1
EndSplineSet
EndChar

StartChar: Xi
Encoding: 88 88 59
Width: 1321
Flags: W
LayerCount: 2
Fore
SplineSet
924 898 m 1,1,-1
 956 898 l 1,2,-1
 956 447 l 1,3,-1
 924 447 l 1,4,5
 924 588 924 588 828 588 c 2,6,-1
 385 588 l 2,7,8
 275 588 275 588 275 447 c 1,9,-1
 243 447 l 1,10,-1
 243 898 l 1,11,-1
 275 898 l 1,12,13
 275 749 275 749 387 749 c 2,14,-1
 826 749 l 2,15,0
 924 749 924 749 924 898 c 1,1,-1
72 1047 m 1,17,-1
 40 1047 l 1,18,-1
 40 1349 l 1,19,-1
 1159 1349 l 1,20,-1
 1159 1047 l 1,21,-1
 1127 1047 l 1,22,23
 1127 1188 1127 1188 993 1188 c 2,24,-1
 200 1188 l 2,25,16
 72 1188 72 1188 72 1047 c 1,17,-1
1167 349 m 1,27,-1
 1199 349 l 1,28,-1
 1199 0 l 1,29,-1
 0 0 l 1,30,-1
 0 349 l 1,31,-1
 32 349 l 1,32,33
 32 160 32 160 178 160 c 2,34,-1
 1000 160 l 2,35,26
 1167 160 1167 160 1167 349 c 1,27,-1
EndSplineSet
EndChar

StartChar: Psi
Encoding: 89 89 60
Width: 1628
Flags: W
LayerCount: 2
Fore
SplineSet
1005 27 m 2,1,-1
 1056 27 l 1,2,-1
 1056 0 l 1,3,-1
 493 0 l 1,4,-1
 493 27 l 1,5,-1
 551 27 l 2,6,7
 683 27 683 27 683 124 c 2,8,-1
 683 594 l 1,9,10
 428 605 428 605 292 696 c 0,11,12
 145 794 145 794 126 1063 c 1,13,14
 126 1195 126 1195 96.5 1254 c 128,-1,15
 67 1313 67 1313 13 1338 c 1,16,-1
 4 1363 l 1,17,18
 146 1347 146 1347 218.5 1278 c 128,-1,19
 291 1209 291 1209 311 1060 c 1,20,21
 350 784 350 784 459 712 c 0,22,23
 553 649 553 649 683 637 c 1,24,-1
 683 1230 l 2,25,26
 683 1322 683 1322 588 1322 c 2,27,-1
 493 1322 l 1,28,-1
 493 1349 l 1,29,-1
 1056 1349 l 1,30,-1
 1056 1322 l 1,31,-1
 962 1322 l 2,32,33
 868 1322 868 1322 868 1230 c 2,34,-1
 868 638 l 1,35,36
 998 649 998 649 1092 712 c 0,37,38
 1200 784 1200 784 1239 1060 c 0,39,40
 1260 1209 1260 1209 1332 1278 c 128,-1,41
 1404 1347 1404 1347 1546 1363 c 1,42,-1
 1537 1338 l 1,43,44
 1483 1313 1483 1313 1453.5 1254 c 128,-1,45
 1424 1195 1424 1195 1424 1063 c 1,46,47
 1405 794 1405 794 1259 696 c 0,48,49
 1123 605 1123 605 868 594 c 1,50,-1
 868 124 l 2,51,0
 868 27 868 27 1005 27 c 2,1,-1
EndSplineSet
EndChar

StartChar: Zeta
Encoding: 90 90 61
Width: 1251
Flags: W
LayerCount: 2
Fore
SplineSet
0 42 m 1,0,-1
 875 1276 l 1,1,-1
 402 1276 l 1,2,3
 300 1278 300 1278 246.5 1223 c 128,-1,4
 193 1168 193 1168 161 1043 c 1,5,-1
 124 1025 l 1,6,-1
 151 1350 l 1,7,-1
 1149 1350 l 1,8,-1
 247 81 l 1,9,-1
 877 81 l 1,10,11
 982 78 982 78 1032.5 133 c 128,-1,12
 1083 188 1083 188 1141 353 c 1,13,-1
 1162 338 l 1,14,-1
 1097 0 l 1,15,-1
 0 0 l 1,16,-1
 0 42 l 1,0,-1
EndSplineSet
EndChar

StartChar: bracketleft
Encoding: 91 91 62
Width: 682
Flags: W
LayerCount: 2
Fore
SplineSet
0 1375 m 1,0,-1
 439 1375 l 1,1,-1
 439 1298 l 1,2,-1
 139 1298 l 1,3,-1
 139 105 l 1,4,-1
 439 105 l 1,5,-1
 439 28 l 1,6,-1
 0 28 l 1,7,-1
 0 1375 l 1,0,-1
EndSplineSet
EndChar

StartChar: therefore
Encoding: 92 92 63
Width: 1767
Flags: W
LayerCount: 2
Fore
SplineSet
559 790 m 0,0,1
 511 790 511 790 478 823 c 128,-1,2
 445 856 445 856 445 904 c 0,3,4
 445 951 445 951 478 984 c 128,-1,5
 511 1017 511 1017 559 1017 c 0,6,7
 606 1017 606 1017 639 984 c 128,-1,8
 672 951 672 951 672 904 c 0,9,10
 672 856 672 856 639 823 c 128,-1,11
 606 790 606 790 559 790 c 0,0,1
114 0 m 0,12,13
 66 0 66 0 33 33 c 128,-1,14
 0 66 0 66 0 114 c 0,15,16
 0 161 0 161 33 194 c 128,-1,17
 66 227 66 227 114 227 c 0,18,19
 161 227 161 227 194 194 c 128,-1,20
 227 161 227 161 227 114 c 0,21,22
 227 66 227 66 194 33 c 128,-1,23
 161 0 161 0 114 0 c 0,12,13
1004 0 m 0,24,25
 956 0 956 0 923 33 c 128,-1,26
 890 66 890 66 890 114 c 0,27,28
 890 161 890 161 923 194 c 128,-1,29
 956 227 956 227 1004 227 c 0,30,31
 1051 227 1051 227 1084 194 c 128,-1,32
 1117 161 1117 161 1117 114 c 0,33,34
 1117 66 1117 66 1084 33 c 128,-1,35
 1051 0 1051 0 1004 0 c 0,24,25
EndSplineSet
EndChar

StartChar: bracketright
Encoding: 93 93 64
Width: 682
Flags: W
LayerCount: 2
Fore
SplineSet
512 28 m 1,0,-1
 73 28 l 1,1,-1
 73 105 l 1,2,-1
 373 105 l 1,3,-1
 373 1298 l 1,4,-1
 73 1298 l 1,5,-1
 73 1375 l 1,6,-1
 512 1375 l 1,7,-1
 512 28 l 1,0,-1
EndSplineSet
EndChar

StartChar: perpendicular
Encoding: 94 94 65
Width: 1348
Flags: W
LayerCount: 2
Fore
SplineSet
675 100 m 1,0,-1
 1250 100 l 1,1,-1
 1250 0 l 1,2,-1
 0 0 l 1,3,-1
 0 100 l 1,4,-1
 575 100 l 1,5,-1
 575 1352 l 1,6,-1
 675 1352 l 1,7,-1
 675 100 l 1,0,-1
EndSplineSet
EndChar

StartChar: underscore
Encoding: 95 95 66
Width: 1024
Flags: W
LayerCount: 2
Fore
SplineSet
1015 -383 m 1,0,-1
 1015 -437 l 1,1,-1
 0 -437 l 1,2,-1
 0 -383 l 1,3,-1
 1015 -383 l 1,0,-1
EndSplineSet
EndChar

StartChar: radicalex
Encoding: 96 96 67
Width: 1024
Flags: W
LayerCount: 2
Fore
SplineSet
1015 1857 m 1,0,-1
 1015 1803 l 1,1,-1
 0 1803 l 1,2,-1
 0 1857 l 1,3,-1
 1015 1857 l 1,0,-1
EndSplineSet
EndChar

StartChar: alpha
Encoding: 97 97 68
Width: 1292
Flags: W
LayerCount: 2
Fore
SplineSet
741 522 m 1,0,1
 713 652 713 652 638 760 c 1,2,3
 556 876 556 876 422 867 c 1,4,5
 299 864 299 864 228.5 724 c 128,-1,6
 158 584 158 584 163 438 c 1,7,8
 157 308 157 308 219.5 176 c 128,-1,9
 282 44 282 44 422 37 c 1,10,11
 494 37 494 37 558.5 98.5 c 128,-1,12
 623 160 623 160 713 423 c 1,13,-1
 741 522 l 1,0,1
846 323 m 1,14,-1
 890 153 l 1,15,16
 909 99 909 99 941.5 84 c 128,-1,17
 974 69 974 69 1002 74 c 1,18,19
 1038 73 1038 73 1069.5 113 c 128,-1,20
 1101 153 1101 153 1112 198 c 1,21,-1
 1149 215 l 1,22,23
 1142 150 1142 150 1102.5 63.5 c 128,-1,24
 1063 -23 1063 -23 995 -23 c 0,25,26
 933 -23 933 -23 898 5.5 c 128,-1,27
 863 34 863 34 835 121 c 1,28,-1
 808 235 l 1,29,30
 752 127 752 127 676 67 c 0,31,32
 577 -12 577 -12 421 -14 c 1,33,34
 240 -11 240 -11 122 119.5 c 128,-1,35
 4 250 4 250 0 453 c 1,36,37
 0 637 0 637 98.5 785 c 128,-1,38
 197 933 197 933 403 937 c 1,39,40
 566 942 566 942 664 811 c 0,41,42
 745 702 745 702 769 621 c 1,43,-1
 851 907 l 1,44,-1
 1012 907 l 1,45,-1
 846 323 l 1,14,-1
EndSplineSet
EndChar

StartChar: beta
Encoding: 98 98 69
Width: 1124
Flags: W
LayerCount: 2
Fore
SplineSet
202 67 m 1,0,-1
 202 -57 l 1,1,2
 192 -246 192 -246 143 -446 c 1,3,-1
 -2 -446 l 1,4,5
 45 -265 45 -265 57 -82 c 1,6,-1
 57 962 l 2,7,8
 57 1151 57 1151 145 1284 c 128,-1,9
 233 1417 233 1417 404 1434 c 1,10,11
 621 1438 621 1438 723 1320.5 c 128,-1,12
 825 1203 825 1203 822 1058 c 1,13,14
 816 874 816 874 595 768 c 1,15,16
 632 746 632 746 724 655 c 0,17,18
 832 548 832 548 836 403 c 1,19,20
 835 226 835 226 741.5 94.5 c 128,-1,21
 648 -37 648 -37 448 -37 c 1,22,23
 310 -31 310 -31 202 67 c 1,0,-1
202 116 m 1,24,25
 325 25 325 25 452 18 c 1,26,27
 546 16 546 16 604 128 c 128,-1,28
 662 240 662 240 667 376 c 1,29,30
 670 518 670 518 622 622 c 0,31,32
 583 707 583 707 548 742 c 1,33,34
 539 740 539 740 529 738 c 0,35,36
 476 729 476 729 427 734 c 256,37,38
 378 739 378 739 362.5 754.5 c 128,-1,39
 347 770 347 770 349 789 c 0,40,41
 351 809 351 809 369 821 c 128,-1,42
 387 833 387 833 436 828 c 256,43,44
 485 823 485 823 536 804 c 0,45,46
 542 802 542 802 547 799 c 1,47,48
 595 839 595 839 626 898 c 0,49,50
 663 970 663 970 665 1057 c 0,51,52
 669 1177 669 1177 605 1272.5 c 128,-1,53
 541 1368 541 1368 397 1366 c 0,54,55
 316 1365 316 1365 264 1288 c 128,-1,56
 212 1211 212 1211 202 962 c 1,57,-1
 202 116 l 1,24,25
EndSplineSet
EndChar

StartChar: chi
Encoding: 99 99 70
Width: 1124
Flags: W
LayerCount: 2
Fore
SplineSet
465 430 m 1,0,-1
 714 906 l 1,1,-1
 920 906 l 1,2,-1
 532 166 l 1,3,-1
 592 -71 l 1,4,5
 621 -179 621 -179 662 -240.5 c 128,-1,6
 703 -302 703 -302 770 -318 c 1,7,8
 851 -331 851 -331 901.5 -295.5 c 128,-1,9
 952 -260 952 -260 976 -191 c 1,10,-1
 1006 -175 l 1,11,12
 1008 -255 1008 -255 954.5 -358.5 c 128,-1,13
 901 -462 901 -462 778 -449 c 1,14,15
 712 -440 712 -440 654 -383.5 c 128,-1,16
 596 -327 596 -327 545 -150 c 1,17,-1
 487 79 l 1,18,-1
 223 -424 l 1,19,-1
 18 -424 l 1,20,-1
 420 344 l 1,21,-1
 342 650 l 1,22,23
 325 703 325 703 290.5 758 c 128,-1,24
 256 813 256 813 200 809 c 1,25,26
 134 810 134 810 94.5 751 c 128,-1,27
 55 692 55 692 37 623 c 1,28,-1
 0 604 l 1,29,30
 11 770 11 770 62 855.5 c 128,-1,31
 113 941 113 941 205 942 c 1,32,33
 281 939 281 939 318 894.5 c 128,-1,34
 355 850 355 850 374 790 c 1,35,-1
 465 430 l 1,0,-1
EndSplineSet
EndChar

StartChar: delta
Encoding: 100 100 71
Width: 1012
Flags: W
LayerCount: 2
Fore
SplineSet
483 819 m 1,0,1
 292 768 292 768 237 662 c 0,2,3
 171 537 171 537 174 428 c 1,4,5
 173 275 173 275 222 190.5 c 128,-1,6
 271 106 271 106 334.5 78.5 c 128,-1,7
 398 51 398 51 482 53 c 1,8,9
 567 61 567 61 640 168.5 c 128,-1,10
 713 276 713 276 705 469 c 1,11,12
 704 659 704 659 483 819 c 1,0,1
661 1172 m 1,13,14
 572 1224 572 1224 508 1292 c 0,15,16
 438 1365 438 1365 363 1367 c 1,17,18
 303 1366 303 1366 247 1330.5 c 128,-1,19
 191 1295 191 1295 189 1233 c 1,20,21
 182 1107 182 1107 533 897 c 128,-1,22
 884 687 884 687 887 521 c 1,23,24
 902 267 902 267 774 121 c 128,-1,25
 646 -25 646 -25 451 -22 c 1,26,27
 251 -26 251 -26 129.5 74.5 c 128,-1,28
 8 175 8 175 0 400 c 1,29,30
 12 621 12 621 172 740 c 0,31,32
 290 827 290 827 414 865 c 1,33,34
 127 1043 127 1043 124 1218 c 0,35,36
 123 1299 123 1299 200 1359 c 128,-1,37
 277 1419 277 1419 385 1417 c 0,38,39
 469 1416 469 1416 575 1388.5 c 128,-1,40
 681 1361 681 1361 762 1312 c 1,41,-1
 761 1311 l 1,42,43
 782 1301 782 1301 793 1280 c 0,44,45
 810 1250 810 1250 799 1217 c 128,-1,46
 788 1184 788 1184 756 1167 c 1,47,48
 725 1149 725 1149 691 1158 c 0,49,50
 674 1162 674 1162 661 1172 c 1,13,14
EndSplineSet
EndChar

StartChar: epsilon
Encoding: 101 101 72
Width: 899
Flags: W
LayerCount: 2
Fore
SplineSet
583 215 m 1,0,1
 589 232 589 232 604 247 c 0,2,3
 631 274 631 274 670 274 c 1,4,5
 706 273 706 273 733.5 246 c 128,-1,6
 761 219 761 219 764 182 c 1,7,8
 764 144 764 144 737 117 c 0,9,10
 721 102 721 102 701 95 c 1,11,12
 654 56 654 56 578 16 c 0,13,14
 499 -25 499 -25 378 -27 c 1,15,16
 193 -23 193 -23 97.5 49 c 128,-1,17
 2 121 2 121 1 233 c 1,18,19
 2 379 2 379 158 433 c 0,20,21
 231 458 231 458 303 475 c 1,22,23
 48 544 48 544 50 700 c 0,24,25
 51 841 51 841 165.5 892 c 128,-1,26
 280 943 280 943 400 943 c 1,27,28
 477 942 477 942 535 931 c 0,29,30
 585 921 585 921 669 884 c 1,31,32
 683 880 683 880 696 873 c 0,33,34
 697 872 697 872 699 871 c 0,35,36
 705 866 705 866 712 860 c 0,37,38
 740 833 740 833 740 795 c 0,39,40
 740 760 740 760 712.5 733 c 128,-1,41
 685 706 685 706 646 703 c 1,42,43
 607 703 607 703 580 730 c 0,44,45
 572 738 572 738 566 747 c 0,46,47
 523 812 523 812 489.5 857.5 c 128,-1,48
 456 903 456 903 400 908 c 1,49,50
 298 912 298 912 243 852.5 c 128,-1,51
 188 793 188 793 192 702 c 1,52,53
 190 602 190 602 270 552 c 0,54,55
 331 513 331 513 396 494 c 1,56,57
 432 499 432 499 467 503 c 0,58,59
 491 506 491 506 513 506 c 0,60,61
 552 506 552 506 562.5 496 c 128,-1,62
 573 486 573 486 573 473 c 0,63,64
 573 459 573 459 562.5 449.5 c 128,-1,65
 552 440 552 440 513 440 c 0,66,67
 482 440 482 440 448 446 c 1,68,69
 413 451 413 451 380 458 c 1,70,71
 314 441 314 441 261 398 c 0,72,73
 194 342 194 342 191 231 c 0,74,75
 188 149 188 149 234 83 c 128,-1,76
 280 17 280 17 378 10 c 1,77,78
 469 19 469 19 508 77 c 0,79,80
 544 131 544 131 583 215 c 1,0,1
EndSplineSet
EndChar

StartChar: phi
Encoding: 102 102 73
Width: 1067
Flags: W
LayerCount: 2
Fore
SplineSet
509 13 m 1,0,1
 618 31 618 31 699 139 c 0,2,3
 796 268 796 268 796 451 c 0,4,5
 796 633 796 633 699 763 c 0,6,7
 618 870 618 870 509 888 c 1,8,-1
 509 13 l 1,0,1
416 888 m 1,9,10
 307 870 307 870 227 763 c 0,11,12
 129 633 129 633 129 451 c 0,13,14
 129 268 129 268 227 139 c 1,15,16
 307 31 307 31 416 13 c 1,17,-1
 416 888 l 1,9,10
416 932 m 1,18,-1
 416 1426 l 1,19,-1
 509 1426 l 1,20,-1
 509 932 l 1,21,22
 671 917 671 917 790 793 c 0,23,24
 925 651 925 651 925 451 c 0,25,26
 925 250 925 250 790 109 c 0,27,28
 671 -16 671 -16 509 -31 c 1,29,-1
 509 -444 l 1,30,-1
 416 -444 l 1,31,-1
 416 -31 l 1,32,33
 254 -15 254 -15 136 109 c 1,34,35
 0 250 0 250 0 451 c 0,36,37
 0 651 0 651 136 793 c 0,38,39
 254 916 254 916 416 932 c 1,18,-1
EndSplineSet
EndChar

StartChar: gamma
Encoding: 103 103 74
Width: 842
Flags: W
LayerCount: 2
Fore
SplineSet
463 240 m 1,0,1
 470 265 470 265 478 293 c 0,2,3
 539 509 539 509 676 910 c 1,4,-1
 836 910 l 1,5,6
 793 806 793 806 630 430 c 0,7,8
 537 215 537 215 488 96 c 1,9,10
 491 70 491 70 495 49 c 128,-1,11
 499 28 499 28 502 6 c 0,12,13
 515 -77 515 -77 503 -262 c 1,14,15
 487 -373 487 -373 455 -409.5 c 128,-1,16
 423 -446 423 -446 389 -439 c 0,17,18
 354 -432 354 -432 336.5 -386.5 c 128,-1,19
 319 -341 319 -341 335 -230 c 1,20,21
 364 -82 364 -82 394 -6 c 1,22,23
 408 44 408 44 430 124 c 1,24,25
 387 351 387 351 335 501 c 0,26,27
 271 684 271 684 227 737 c 128,-1,28
 183 790 183 790 144 789 c 1,29,30
 114 793 114 793 77 762 c 128,-1,31
 40 731 40 731 28 630 c 1,32,-1
 1 620 l 1,33,34
 -2 736 -2 736 29.5 828 c 128,-1,35
 61 920 61 920 151 924 c 1,36,37
 276 922 276 922 365 633 c 0,38,39
 424 439 424 439 463 240 c 1,0,1
EndSplineSet
EndChar

StartChar: eta
Encoding: 104 104 75
Width: 1235
Flags: W
LayerCount: 2
Fore
SplineSet
388 665 m 1,0,-1
 388 0 l 1,1,-1
 221 0 l 1,2,-1
 221 651 l 1,3,4
 224 700 224 700 211.5 773.5 c 128,-1,5
 199 847 199 847 128 853 c 1,6,7
 70 843 70 843 54 797 c 128,-1,8
 38 751 38 751 31 713 c 1,9,-1
 0 700 l 1,10,11
 2 838 2 838 55 891.5 c 128,-1,12
 108 945 108 945 206 942 c 1,13,14
 308 934 308 934 347 867 c 0,15,16
 376 816 376 816 385 718 c 1,17,18
 419 772 419 772 483 833 c 0,19,20
 582 926 582 926 709 937 c 1,21,22
 872 930 872 930 928 840.5 c 128,-1,23
 984 751 984 751 988 651 c 1,24,-1
 988 -231 l 1,25,26
 992 -352 992 -352 1026 -443 c 1,27,-1
 859 -443 l 1,28,29
 825 -352 825 -352 821 -231 c 1,30,-1
 821 651 l 1,31,32
 822 744 822 744 768.5 784.5 c 128,-1,33
 715 825 715 825 647 823 c 0,34,35
 594 822 594 822 524 783 c 0,36,37
 463 749 463 749 388 665 c 1,0,-1
EndSplineSet
EndChar

StartChar: iota
Encoding: 105 105 76
Width: 674
Flags: W
LayerCount: 2
Fore
SplineSet
307 945 m 1,0,-1
 307 185 l 1,1,2
 313 85 313 85 377 77 c 128,-1,3
 441 69 441 69 474 188 c 1,4,-1
 502 203 l 1,5,6
 502 121 502 121 458.5 51.5 c 128,-1,7
 415 -18 415 -18 336 -20 c 1,8,9
 238 -15 238 -15 197.5 46 c 128,-1,10
 157 107 157 107 157 185 c 2,11,-1
 157 697 l 1,12,13
 163 778 163 778 132 808.5 c 128,-1,14
 101 839 101 839 44 822 c 1,15,-1
 7 810 l 1,16,-1
 -4 833 l 1,17,-1
 277 945 l 1,18,-1
 307 945 l 1,0,-1
EndSplineSet
EndChar

StartChar: phi1
Encoding: 106 106 77
Width: 1235
Flags: W
LayerCount: 2
Fore
SplineSet
637 -9 m 0,0,1
 614 -13 614 -13 592 -14 c 1,2,-1
 592 -440 l 1,3,-1
 492 -440 l 1,4,-1
 492 -12 l 1,5,6
 350 2 350 2 195 100 c 1,7,8
 9 216 9 216 0 458 c 1,9,10
 3 689 3 689 139 811 c 128,-1,11
 275 933 275 933 421 933 c 1,12,-1
 403 898 l 1,13,14
 317 879 317 879 247 752.5 c 128,-1,15
 177 626 177 626 182 481 c 1,16,17
 187 208 187 208 306 117 c 0,18,19
 398 46 398 46 492 32 c 1,20,-1
 492 640 l 1,21,22
 495 760 495 760 560.5 842 c 128,-1,23
 626 924 626 924 739 934 c 1,24,25
 913 929 913 929 1001 791.5 c 128,-1,26
 1089 654 1089 654 1093 503 c 1,27,28
 1084 252 1084 252 901 115 c 0,29,30
 766 13 766 13 637 -9 c 0,0,1
592 31 m 1,31,32
 613 33 613 33 634 37 c 0,33,34
 730 56 730 56 804 121 c 0,35,36
 910 213 910 213 926 427 c 1,37,38
 926 623 926 623 850 722.5 c 128,-1,39
 774 822 774 822 691 813 c 1,40,41
 656 814 656 814 625.5 775 c 128,-1,42
 595 736 595 736 592 640 c 1,43,-1
 592 31 l 1,31,32
EndSplineSet
EndChar

StartChar: kappa
Encoding: 107 107 78
Width: 1124
Flags: W
LayerCount: 2
Fore
SplineSet
600 0 m 1,0,-1
 600 31 l 1,1,2
 668 29 668 29 638 75 c 1,3,-1
 310 403 l 1,4,-1
 310 0 l 1,5,-1
 152 0 l 1,6,-1
 152 761 l 1,7,8
 153 800 153 800 122 810.5 c 128,-1,9
 91 821 91 821 25 797 c 1,10,-1
 2 825 l 1,11,-1
 273 942 l 1,12,-1
 310 942 l 1,13,-1
 310 423 l 1,14,-1
 674 787 l 1,15,16
 819 946 819 946 912 932 c 0,17,18
 925 930 925 930 940 926 c 0,19,20
 983 912 983 912 1003.5 884 c 128,-1,21
 1024 856 1024 856 1019 825 c 256,22,23
 1014 794 1014 794 980 781.5 c 128,-1,24
 946 769 946 769 912 778 c 0,25,26
 885 785 885 785 871 802 c 128,-1,27
 857 819 857 819 838 830 c 0,28,29
 803 849 803 849 719 760 c 1,30,-1
 419 459 l 1,31,-1
 757 121 l 2,32,33
 848 31 848 31 1029 31 c 2,34,-1
 1090 31 l 1,35,-1
 1090 0 l 1,36,-1
 600 0 l 1,0,-1
EndSplineSet
EndChar

StartChar: lambda
Encoding: 108 108 79
Width: 1124
Flags: W
LayerCount: 2
Fore
SplineSet
0 0 m 1,0,-1
 468 851 l 1,1,-1
 411 1093 l 1,2,3
 386 1187 386 1187 351.5 1242 c 128,-1,4
 317 1297 317 1297 255 1300 c 1,5,6
 139 1302 139 1302 93 1116 c 1,7,-1
 51 1099 l 1,8,9
 50 1244 50 1244 102.5 1328 c 128,-1,10
 155 1412 155 1412 261 1416 c 1,11,12
 325 1412 325 1412 373.5 1354 c 128,-1,13
 422 1296 422 1296 469 1107 c 1,14,-1
 669 260 l 1,15,16
 701 166 701 166 744.5 133.5 c 128,-1,17
 788 101 788 101 846 103 c 1,18,19
 905 101 905 101 942.5 161 c 128,-1,20
 980 221 980 221 985 289 c 1,21,-1
 1016 308 l 1,22,23
 1017 111 1017 111 966 46.5 c 128,-1,24
 915 -18 915 -18 846 -18 c 0,25,26
 765 -19 765 -19 704 51 c 128,-1,27
 643 121 643 121 610 247 c 1,28,-1
 513 657 l 1,29,-1
 150 0 l 1,30,-1
 0 0 l 1,0,-1
EndSplineSet
EndChar

StartChar: mu
Encoding: 109 109 80
Width: 1180
Flags: W
LayerCount: 2
Fore
SplineSet
672 164 m 1,0,1
 632 119 632 119 565 66 c 0,2,3
 451 -26 451 -26 348 -30 c 1,4,5
 211 -26 211 -26 134 30 c 1,6,7
 141 -78 141 -78 159.5 -192.5 c 128,-1,8
 178 -307 178 -307 172 -353 c 1,9,10
 171 -392 171 -392 152 -416 c 128,-1,11
 133 -440 133 -440 85 -443 c 1,12,13
 42 -440 42 -440 22 -414 c 128,-1,14
 2 -388 2 -388 1 -348 c 0,15,16
 -1 -306 -1 -306 21 -193 c 128,-1,17
 43 -80 43 -80 52.5 57.5 c 128,-1,18
 62 195 62 195 64 301 c 1,19,-1
 64 839 l 1,20,-1
 224 859 l 1,21,-1
 224 301 l 2,22,23
 224 240 224 240 247 171.5 c 128,-1,24
 270 103 270 103 348 93 c 1,25,26
 452 82 452 82 536 126 c 0,27,28
 604 162 604 162 667 220 c 1,29,30
 663 271 663 271 664 301 c 1,31,-1
 664 839 l 1,32,-1
 824 859 l 1,33,-1
 824 301 l 1,34,35
 821 167 821 167 844.5 128 c 128,-1,36
 868 89 868 89 923 93.5 c 128,-1,37
 978 98 978 98 986 218 c 1,38,-1
 1013 202 l 1,39,40
 1016 111 1016 111 994.5 66 c 128,-1,41
 973 21 973 21 930 1 c 128,-1,42
 887 -19 887 -19 830 -22 c 1,43,44
 769 -19 769 -19 725 22.5 c 128,-1,45
 681 64 681 64 672 160 c 1,46,-1
 672 164 l 1,0,1
EndSplineSet
EndChar

StartChar: nu
Encoding: 110 110 81
Width: 959
Flags: W
LayerCount: 2
Fore
SplineSet
761 558 m 1,0,1
 804 646 804 646 777 728 c 1,2,3
 762 795 762 795 765 828 c 1,4,5
 765 887 765 887 793.5 918 c 128,-1,6
 822 949 822 949 862 949 c 256,7,8
 902 949 902 949 930.5 918 c 128,-1,9
 959 887 959 887 959 828 c 0,10,11
 959 750 959 750 919 681 c 2,12,-1
 510 -30 l 1,13,-1
 476 -30 l 1,14,-1
 85 864 l 1,15,-1
 18 834 l 1,16,-1
 0 858 l 1,17,-1
 227 954 l 1,18,-1
 234 941 l 1,19,-1
 235 941 l 1,20,-1
 559 205 l 1,21,-1
 761 558 l 1,0,1
EndSplineSet
EndChar

StartChar: omicron
Encoding: 111 111 82
Width: 1124
Flags: W
LayerCount: 2
Fore
SplineSet
809 806 m 128,-1,1
 948 662 948 662 948 458 c 0,2,3
 948 255 948 255 809 111 c 128,-1,4
 670 -33 670 -33 474 -33 c 0,5,6
 277 -33 277 -33 138.5 111 c 128,-1,7
 0 255 0 255 0 458 c 0,8,9
 0 662 0 662 138.5 806 c 128,-1,10
 277 950 277 950 474 950 c 0,11,0
 670 950 670 950 809 806 c 128,-1,1
431 872 m 0,12,13
 303 857 303 857 225 726 c 128,-1,14
 147 595 147 595 165 423 c 0,15,16
 182 252 182 252 285.5 141 c 128,-1,17
 389 30 389 30 517 45 c 0,18,19
 645 59 645 59 723 190.5 c 128,-1,20
 801 322 801 322 783 493 c 256,21,22
 765 664 765 664 662 775 c 128,-1,23
 559 886 559 886 431 872 c 0,12,13
EndSplineSet
EndChar

StartChar: pi
Encoding: 112 112 83
Width: 1124
Flags: W
LayerCount: 2
Fore
SplineSet
351 772 m 1,0,-1
 253 772 l 1,1,2
 189 769 189 769 137.5 745 c 128,-1,3
 86 721 86 721 37 641 c 1,4,-1
 0 632 l 1,5,6
 18 692 18 692 91 797.5 c 128,-1,7
 164 903 164 903 253 912 c 1,8,-1
 990 912 l 1,9,-1
 978 772 l 1,10,-1
 700 772 l 1,11,12
 662 482 662 482 660 313 c 0,13,14
 657 134 657 134 789 121 c 1,15,16
 899 124 899 124 950 232 c 1,17,-1
 983 251 l 1,18,19
 984 159 984 159 908 67.5 c 128,-1,20
 832 -24 832 -24 729 -28 c 1,21,22
 631 -21 631 -21 584 55 c 128,-1,23
 537 131 537 131 539 300 c 1,24,25
 544 410 544 410 577 772 c 1,26,-1
 439 772 l 1,27,28
 385 394 385 394 333 209 c 0,29,30
 278 15 278 15 199 -23 c 1,31,32
 139 -39 139 -39 112 -9 c 1,33,34
 84 28 84 28 92 75 c 1,35,36
 93 137 93 137 201 300 c 0,37,38
 304 455 304 455 351 772 c 1,0,-1
EndSplineSet
EndChar

StartChar: theta
Encoding: 113 113 84
Width: 1067
Flags: W
LayerCount: 2
Fore
SplineSet
907 266 m 256,1,2
 907 -42 907 -42 774 -260 c 128,-1,3
 641 -478 641 -478 452 -478 c 0,4,5
 264 -478 264 -478 131 -260 c 128,-1,6
 -2 -42 -2 -42 -2 266 c 256,7,8
 -2 574 -2 574 131 792 c 128,-1,9
 264 1010 264 1010 452 1010 c 0,10,11
 641 1010 641 1010 774 792 c 128,-1,0
 907 574 907 574 907 266 c 256,1,2
741 323 m 1,12,13
 733 567 733 567 657 746 c 0,14,15
 572 944 572 944 452 944 c 256,16,17
 332 944 332 944 248 746 c 0,18,19
 172 567 172 567 164 323 c 1,20,-1
 741 323 l 1,12,13
163 255 m 1,21,22
 165 -19 165 -19 248 -213 c 1,23,24
 332 -412 332 -412 452 -412 c 256,25,26
 572 -412 572 -412 657 -213 c 0,27,28
 740 -19 740 -19 742 255 c 1,29,-1
 163 255 l 1,21,22
EndSplineSet
EndChar

StartChar: rho
Encoding: 114 114 85
Width: 1124
Flags: W
LayerCount: 2
Fore
SplineSet
207 204 m 1,0,1
 248 58 248 58 450 35 c 1,2,3
 625 24 625 24 702.5 158.5 c 128,-1,4
 780 293 780 293 779 448 c 1,5,6
 770 654 770 654 660 757 c 128,-1,7
 550 860 550 860 387 856 c 1,8,9
 325 858 325 858 262.5 798.5 c 128,-1,10
 200 739 200 739 207 507 c 1,11,-1
 207 204 l 1,0,1
207 35 m 1,12,-1
 207 -170 l 1,13,14
 190 -364 190 -364 153 -425 c 1,15,-1
 -3 -444 l 1,16,17
 32 -359 32 -359 51 -170 c 1,18,-1
 51 507 l 1,19,20
 60 717 60 717 180.5 827.5 c 128,-1,21
 301 938 301 938 487 948 c 1,22,23
 718 938 718 938 826.5 811 c 128,-1,24
 935 684 935 684 939 496 c 1,25,26
 926 263 926 263 785 118 c 128,-1,27
 644 -27 644 -27 449 -29 c 1,28,29
 312 -24 312 -24 207 35 c 1,12,-1
EndSplineSet
EndChar

StartChar: sigma
Encoding: 115 115 86
Width: 1235
Flags: W
LayerCount: 2
Fore
SplineSet
634 786 m 1,0,-1
 506 786 l 1,1,2
 357 785 357 785 256 693 c 128,-1,3
 155 601 155 601 153 468 c 0,4,5
 151 306 151 306 242.5 176 c 128,-1,6
 334 46 334 46 490 46 c 1,7,8
 593 44 593 44 695 148.5 c 128,-1,9
 797 253 797 253 800 360 c 1,10,11
 813 628 813 628 634 786 c 1,0,-1
714 786 m 1,12,13
 802 741 802 741 875 655 c 0,14,15
 977 535 977 535 978 360 c 0,16,17
 978 221 978 221 844 99.5 c 128,-1,18
 710 -22 710 -22 503 -20 c 0,19,20
 291 -18 291 -18 145 128.5 c 128,-1,21
 -1 275 -1 275 -1 468 c 0,22,23
 -1 643 -1 643 129 776.5 c 128,-1,24
 259 910 259 910 506 912 c 1,25,-1
 1111 912 l 1,26,-1
 1091 786 l 1,27,-1
 714 786 l 1,12,13
EndSplineSet
EndChar

StartChar: tau
Encoding: 116 116 87
Width: 899
Flags: W
LayerCount: 2
Fore
SplineSet
471 772 m 1,0,1
 433 482 433 482 431 313 c 0,2,3
 428 134 428 134 560 121 c 1,4,5
 670 124 670 124 721 232 c 1,6,-1
 754 251 l 1,7,8
 755 159 755 159 679 67.5 c 128,-1,9
 603 -24 603 -24 500 -28 c 1,10,11
 402 -21 402 -21 355 55 c 128,-1,12
 308 131 308 131 310 300 c 1,13,14
 315 410 315 410 348 772 c 1,15,-1
 253 772 l 1,16,17
 189 769 189 769 137.5 745 c 128,-1,18
 86 721 86 721 37 641 c 1,19,-1
 0 632 l 1,20,21
 18 692 18 692 91 797.5 c 128,-1,22
 164 903 164 903 253 912 c 1,23,-1
 807 912 l 1,24,-1
 795 772 l 1,25,-1
 471 772 l 1,0,1
EndSplineSet
EndChar

StartChar: upsilon
Encoding: 117 117 88
Width: 1180
Flags: W
LayerCount: 2
Fore
SplineSet
0 850 m 1,0,1
 0 886 0 886 31.5 910 c 128,-1,2
 63 934 63 934 98 936 c 1,3,4
 135 936 135 936 182.5 894 c 128,-1,5
 230 852 230 852 234 750 c 1,6,7
 235 669 235 669 223 559.5 c 128,-1,8
 211 450 211 450 209 400 c 1,9,10
 199 254 199 254 282.5 137.5 c 128,-1,11
 366 21 366 21 547 24 c 0,12,13
 700 26 700 26 779 156.5 c 128,-1,14
 858 287 858 287 854 544 c 1,15,16
 848 714 848 714 767 805 c 128,-1,17
 686 896 686 896 570 910 c 1,18,-1
 556 936 l 1,19,20
 678 936 678 936 807.5 836 c 128,-1,21
 937 736 937 736 943 527 c 1,22,23
 944 274 944 274 847 128.5 c 128,-1,24
 750 -17 750 -17 519 -18 c 1,25,26
 355 -15 355 -15 229 92.5 c 128,-1,27
 103 200 103 200 98 394 c 1,28,29
 104 722 104 722 54 761 c 128,-1,30
 4 800 4 800 0 850 c 1,0,1
EndSplineSet
EndChar

StartChar: omega1
Encoding: 118 118 89
Width: 1460
Flags: W
LayerCount: 2
Fore
SplineSet
1119 791 m 1,0,1
 1129 781 1129 781 1138 770 c 0,2,3
 1249 631 1249 631 1256 401 c 1,4,5
 1253 245 1253 245 1186.5 147 c 128,-1,6
 1120 49 1120 49 1058 12 c 128,-1,7
 996 -25 996 -25 939 -29 c 1,8,9
 841 -26 841 -26 773 41 c 0,10,11
 711 101 711 101 697 151 c 1,12,13
 684 101 684 101 622 41 c 0,14,15
 554 -26 554 -26 456 -29 c 1,16,17
 399 -25 399 -25 336.5 12 c 128,-1,18
 274 49 274 49 208 147 c 128,-1,19
 142 245 142 245 139 401 c 1,20,21
 145 631 145 631 256 770 c 0,22,23
 265 781 265 781 275 791 c 1,24,-1
 194 791 l 1,25,26
 113 785 113 785 75.5 728.5 c 128,-1,27
 38 672 38 672 25 614 c 1,28,-1
 0 601 l 1,29,30
 8 757 8 757 64.5 836 c 128,-1,31
 121 915 121 915 194 921 c 1,32,-1
 1388 921 l 1,33,-1
 1371 791 l 1,34,-1
 1119 791 l 1,0,1
402 791 m 1,35,36
 366 746 366 746 343 673 c 0,37,38
 306 556 306 556 311 376 c 1,39,40
 308 271 308 271 348.5 153.5 c 128,-1,41
 389 36 389 36 474 28 c 1,42,43
 553 28 553 28 615 102.5 c 128,-1,44
 677 177 677 177 659 235 c 1,45,46
 611 364 611 364 609 458 c 1,47,48
 620 550 620 550 654 587 c 0,49,50
 682 618 682 618 697 618 c 128,-1,51
 712 618 712 618 741 587 c 0,52,53
 775 550 775 550 786 458 c 1,54,55
 784 364 784 364 735 235 c 1,56,57
 717 177 717 177 779.5 102.5 c 128,-1,58
 842 28 842 28 921 28 c 1,59,60
 1005 36 1005 36 1046.5 153.5 c 128,-1,61
 1088 271 1088 271 1083 376 c 1,62,63
 1089 556 1089 556 1051 673 c 0,64,65
 1027 746 1027 746 992 791 c 1,66,-1
 402 791 l 1,35,36
EndSplineSet
EndChar

StartChar: omega
Encoding: 119 119 90
Width: 1405
Flags: W
LayerCount: 2
Fore
SplineSet
622 171 m 1,0,1
 607 116 607 116 539 49 c 0,2,3
 463 -26 463 -26 353 -29 c 1,4,5
 290 -24 290 -24 220.5 17 c 128,-1,6
 151 58 151 58 77 167.5 c 128,-1,7
 3 277 3 277 0 450 c 1,8,9
 7 707 7 707 131 822.5 c 128,-1,10
 255 938 255 938 510 939 c 1,11,-1
 497 907 l 1,12,13
 423 907 423 907 346 856 c 128,-1,14
 269 805 269 805 227.5 714 c 128,-1,15
 186 623 186 623 192 423 c 1,16,17
 188 305 188 305 233.5 174.5 c 128,-1,18
 279 44 279 44 373 34 c 1,19,20
 462 34 462 34 531 117.5 c 128,-1,21
 600 201 600 201 580 265 c 1,22,23
 526 409 526 409 524 514 c 1,24,25
 536 617 536 617 574 658 c 0,26,27
 606 692 606 692 622.5 692 c 128,-1,28
 639 692 639 692 671 658 c 0,29,30
 709 617 709 617 721 514 c 1,31,32
 719 409 719 409 665 265 c 1,33,34
 645 201 645 201 714.5 117.5 c 128,-1,35
 784 34 784 34 872 34 c 1,36,37
 966 44 966 44 1012 174.5 c 128,-1,38
 1058 305 1058 305 1053 423 c 1,39,40
 1059 623 1059 623 1017.5 714 c 128,-1,41
 976 805 976 805 899.5 856 c 128,-1,42
 823 907 823 907 748 907 c 1,43,-1
 735 939 l 1,44,45
 990 938 990 938 1114 822.5 c 128,-1,46
 1238 707 1238 707 1245 450 c 1,47,48
 1242 277 1242 277 1168 167.5 c 128,-1,49
 1094 58 1094 58 1025 17 c 128,-1,50
 956 -24 956 -24 892 -29 c 1,51,52
 783 -26 783 -26 707 49 c 0,53,54
 638 116 638 116 622 171 c 1,0,1
EndSplineSet
EndChar

StartChar: xi
Encoding: 120 120 91
Width: 1010
Flags: W
LayerCount: 2
Fore
SplineSet
189.5 1060.5 m 128,-1,1
 220 1118 220 1118 275 1167 c 1,2,3
 249 1171 249 1171 223 1179 c 0,4,5
 93 1218 93 1218 91 1274 c 0,6,7
 89 1348 89 1348 284 1422 c 1,8,-1
 326 1409 l 1,9,10
 158 1334 158 1334 160 1282 c 1,11,12
 158 1231 158 1231 273 1216 c 0,13,14
 302 1212 302 1212 326 1210 c 1,15,16
 414 1283 414 1283 501 1331 c 0,17,18
 632 1405 632 1405 677 1414.5 c 128,-1,19
 722 1424 722 1424 744 1398 c 1,20,21
 778 1364 778 1364 704.5 1295 c 128,-1,22
 631 1226 631 1226 496 1183 c 1,23,24
 433 1164 433 1164 373 1161 c 1,25,26
 293 1092 293 1092 264.5 1046 c 128,-1,27
 236 1000 236 1000 235.5 937 c 128,-1,28
 235 874 235 874 326 811 c 1,29,30
 352 798 352 798 374 789 c 1,31,32
 481 829 481 829 579 847 c 0,33,34
 727 875 727 875 772.5 869.5 c 128,-1,35
 818 864 818 864 831 832 c 1,36,37
 852 789 852 789 760 747.5 c 128,-1,38
 668 706 668 706 527 708 c 1,39,40
 461 711 461 711 403 727 c 1,41,42
 277 693 277 693 180.5 612.5 c 128,-1,43
 84 532 84 532 75 406 c 128,-1,44
 66 280 66 280 143 192.5 c 128,-1,45
 220 105 220 105 407 155 c 1,46,47
 564 182 564 182 618 189 c 128,-1,48
 672 196 672 196 721 197 c 1,49,50
 856 194 856 194 911.5 117.5 c 128,-1,51
 967 41 967 41 965 -108 c 0,52,53
 964 -239 964 -239 882 -316.5 c 128,-1,54
 800 -394 800 -394 697 -422 c 128,-1,55
 594 -450 594 -450 491 -449 c 1,56,57
 432 -451 432 -451 401 -430 c 128,-1,58
 370 -409 370 -409 370 -370 c 0,59,60
 370 -322 370 -322 423 -298 c 1,61,62
 478 -283 478 -283 561 -321 c 128,-1,63
 644 -359 644 -359 768.5 -316.5 c 128,-1,64
 893 -274 893 -274 888 -106 c 1,65,66
 885 -58 885 -58 837.5 -27 c 128,-1,67
 790 4 790 4 745 2 c 0,68,69
 688 0 688 0 574 -23.5 c 128,-1,70
 460 -47 460 -47 305 -48 c 1,71,72
 181 -43 181 -43 108 28 c 128,-1,73
 35 99 35 99 12.5 204.5 c 128,-1,74
 -10 310 -10 310 8 427 c 128,-1,75
 26 544 26 544 119 633 c 128,-1,76
 212 722 212 722 312 764 c 1,77,78
 289 776 289 776 267 792 c 0,79,80
 178 859 178 859 168.5 931 c 128,-1,0
 159 1003 159 1003 189.5 1060.5 c 128,-1,1
EndSplineSet
EndChar

StartChar: psi
Encoding: 121 121 92
Width: 1405
Flags: W
LayerCount: 2
Fore
SplineSet
596 -18 m 1,0,-1
 596 917 l 1,1,-1
 697 917 l 1,2,-1
 697 -19 l 1,3,4
 895 15 895 15 924 293 c 0,5,6
 956 602 956 602 969 725.5 c 128,-1,7
 982 849 982 849 1039 893 c 128,-1,8
 1096 937 1096 937 1172 940 c 1,9,10
 1251 939 1251 939 1300 926 c 1,11,-1
 1300 900 l 1,12,13
 1179 934 1179 934 1152 791 c 128,-1,14
 1125 648 1125 648 1116 529 c 128,-1,15
 1107 410 1107 410 1080.5 276 c 128,-1,16
 1054 142 1054 142 961 46 c 1,17,18
 877 -39 877 -39 697 -49 c 1,19,-1
 697 -446 l 1,20,-1
 596 -446 l 1,21,-1
 596 -48 l 1,22,23
 422 -38 422 -38 340 46 c 0,24,25
 246 142 246 142 219.5 276 c 128,-1,26
 193 410 193 410 184 529 c 128,-1,27
 175 648 175 648 148.5 791 c 128,-1,28
 122 934 122 934 0 900 c 1,29,-1
 0 926 l 1,30,31
 49 939 49 939 128 940 c 1,32,33
 204 937 204 937 261.5 893 c 128,-1,34
 319 849 319 849 331.5 725.5 c 128,-1,35
 344 602 344 602 377 293 c 1,36,37
 405 20 405 20 596 -18 c 1,0,-1
EndSplineSet
EndChar

StartChar: zeta
Encoding: 122 122 93
Width: 1012
Flags: W
LayerCount: 2
Fore
SplineSet
391 1162 m 1,0,1
 365 1166 365 1166 339 1174 c 0,2,3
 209 1213 209 1213 207 1269 c 0,4,5
 205 1343 205 1343 400 1417 c 1,6,-1
 442 1404 l 1,7,8
 274 1329 274 1329 276 1277 c 1,9,10
 274 1226 274 1226 389 1211 c 0,11,12
 418 1207 418 1207 442 1205 c 1,13,14
 530 1278 530 1278 617 1326 c 0,15,16
 748 1400 748 1400 793 1409.5 c 128,-1,17
 838 1419 838 1419 860 1393 c 1,18,19
 894 1359 894 1359 820.5 1290 c 128,-1,20
 747 1221 747 1221 612 1178 c 1,21,22
 549 1159 549 1159 489 1156 c 1,23,24
 382 1064 382 1064 282 947 c 0,25,26
 87 718 87 718 78 511 c 1,27,28
 66 280 66 280 143 192.5 c 128,-1,29
 220 105 220 105 407 155 c 1,30,31
 564 182 564 182 618 189 c 128,-1,32
 672 196 672 196 721 197 c 1,33,34
 856 194 856 194 911.5 117.5 c 128,-1,35
 967 41 967 41 965 -108 c 0,36,37
 964 -239 964 -239 882 -316.5 c 128,-1,38
 800 -394 800 -394 697 -422 c 128,-1,39
 594 -450 594 -450 491 -449 c 1,40,41
 432 -451 432 -451 401 -430 c 128,-1,42
 370 -409 370 -409 370 -370 c 0,43,44
 370 -322 370 -322 423 -298 c 1,45,46
 478 -283 478 -283 561 -321 c 128,-1,47
 644 -359 644 -359 768.5 -316.5 c 128,-1,48
 893 -274 893 -274 888 -106 c 1,49,50
 885 -58 885 -58 837.5 -27 c 128,-1,51
 790 4 790 4 745 2 c 0,52,53
 688 0 688 0 574 -23.5 c 128,-1,54
 460 -47 460 -47 305 -48 c 1,55,56
 181 -43 181 -43 108 28 c 128,-1,57
 35 99 35 99 12.5 204.5 c 128,-1,58
 -10 310 -10 310 -2 491 c 1,59,60
 0 730 0 730 208 973 c 0,61,62
 300 1080 300 1080 391 1162 c 1,0,1
EndSplineSet
EndChar

StartChar: braceleft
Encoding: 123 123 94
Width: 983
Flags: W
LayerCount: 2
Fore
SplineSet
199 378 m 1,1,2
 277 293 277 293 280 142 c 1,3,4
 279 76 279 76 250 -52.5 c 128,-1,5
 221 -181 221 -181 273.5 -267.5 c 128,-1,6
 326 -354 326 -354 518 -421 c 1,7,-1
 532 -447 l 1,8,9
 297 -385 297 -385 213.5 -271.5 c 128,-1,10
 130 -158 130 -158 137 -68 c 1,11,12
 137 -52 137 -52 169 66 c 128,-1,13
 201 184 201 184 172 302 c 128,-1,14
 143 420 143 420 -2 477 c 1,15,-1
 -2 498 l 1,16,17
 143 555 143 555 172 673 c 128,-1,18
 201 791 201 791 169 909 c 128,-1,19
 137 1027 137 1027 137 1043 c 1,20,21
 130 1134 130 1134 213.5 1247 c 128,-1,22
 297 1360 297 1360 532 1422 c 1,23,-1
 518 1396 l 1,24,25
 326 1329 326 1329 273.5 1242.5 c 128,-1,26
 221 1156 221 1156 250 1028 c 128,-1,27
 279 900 279 900 280 833 c 1,28,29
 277 683 277 683 199 598 c 0,30,31
 127 519 127 519 69 488 c 1,32,0
 126 456 126 456 199 378 c 1,1,2
EndSplineSet
EndChar

StartChar: bar
Encoding: 124 124 95
Width: 410
Flags: W
LayerCount: 2
Fore
SplineSet
89 1414 m 1,0,-1
 89 -444 l 1,1,-1
 0 -444 l 1,2,-1
 0 1414 l 1,3,-1
 89 1414 l 1,0,-1
EndSplineSet
EndChar

StartChar: braceright
Encoding: 125 125 96
Width: 983
Flags: W
LayerCount: 2
Fore
SplineSet
662 488 m 1,0,1
 604 519 604 519 532 598 c 0,2,3
 454 683 454 683 451 833 c 1,4,5
 452 900 452 900 481 1028 c 128,-1,6
 510 1156 510 1156 457.5 1242.5 c 128,-1,7
 405 1329 405 1329 213 1396 c 1,8,-1
 199 1422 l 1,9,10
 434 1360 434 1360 517.5 1247 c 128,-1,11
 601 1134 601 1134 594 1043 c 1,12,13
 594 1027 594 1027 562 909 c 128,-1,14
 530 791 530 791 559 673 c 128,-1,15
 588 555 588 555 733 498 c 1,16,-1
 733 477 l 1,17,18
 588 420 588 420 559 302 c 128,-1,19
 530 184 530 184 562 66 c 128,-1,20
 594 -52 594 -52 594 -68 c 1,21,22
 601 -158 601 -158 517.5 -271.5 c 128,-1,23
 434 -385 434 -385 199 -447 c 1,24,-1
 213 -421 l 1,25,26
 405 -354 405 -354 457.5 -267.5 c 128,-1,27
 510 -181 510 -181 481 -52.5 c 128,-1,28
 452 76 452 76 451 142 c 1,29,30
 454 293 454 293 532 378 c 1,31,32
 605 456 605 456 662 488 c 1,0,1
EndSplineSet
EndChar

StartChar: similar
Encoding: 126 126 97
Width: 1124
Flags: W
LayerCount: 2
Fore
SplineSet
51 522 m 1,0,-1
 5 538 l 1,1,2
 0 698 0 698 79.5 790.5 c 128,-1,3
 159 883 159 883 275 886 c 1,4,5
 404 885 404 885 549.5 785.5 c 128,-1,6
 695 686 695 686 805 673 c 0,7,8
 902 662 902 662 942.5 736 c 128,-1,9
 983 810 983 810 973 870 c 1,10,-1
 1018 853 l 1,11,12
 1018 661 1018 661 938.5 589 c 128,-1,13
 859 517 859 517 793 520 c 1,14,15
 679 516 679 516 503 632 c 128,-1,16
 327 748 327 748 242 747 c 1,17,18
 156 749 156 749 101.5 687.5 c 128,-1,19
 47 626 47 626 51 522 c 1,0,-1
EndSplineSet
EndChar

StartChar: Upsilon1
Encoding: 161 176 98
Width: 1270
Flags: W
LayerCount: 2
Fore
SplineSet
644 172 m 1,0,1
 657 50 657 50 800 45 c 1,2,-1
 845 45 l 1,3,-1
 845 0 l 1,4,-1
 253 0 l 1,5,-1
 253 45 l 1,6,-1
 301 45 l 1,7,8
 441 47 441 47 454 166 c 1,9,-1
 454 550 l 2,10,11
 454 785 454 785 417.5 951.5 c 128,-1,12
 381 1118 381 1118 295 1229.5 c 128,-1,13
 209 1341 209 1341 106 1347 c 1,14,15
 61 1348 61 1348 15 1337 c 1,16,-1
 0 1366 l 1,17,18
 60 1389 60 1389 127 1386 c 1,19,20
 295 1370 295 1370 415.5 1226 c 128,-1,21
 536 1082 536 1082 574 800 c 1,22,23
 586 920 586 920 659 1086 c 128,-1,24
 732 1252 732 1252 832.5 1326.5 c 128,-1,25
 933 1401 933 1401 1068 1398 c 1,26,27
 1120 1399 1120 1399 1162 1364 c 0,28,29
 1205 1328 1205 1328 1212.5 1276.5 c 128,-1,30
 1220 1225 1220 1225 1189 1187 c 0,31,32
 1157 1149 1157 1149 1105 1147 c 128,-1,33
 1053 1145 1053 1145 1010 1181 c 0,34,35
 968 1216 968 1216 960 1268 c 0,36,37
 959 1280 959 1280 964.5 1294.5 c 128,-1,38
 970 1309 970 1309 962 1317 c 1,39,40
 920 1333 920 1333 835 1252 c 0,41,42
 734 1155 734 1155 688 964 c 128,-1,43
 642 773 642 773 644 550 c 1,44,-1
 644 172 l 1,0,1
EndSplineSet
EndChar

StartChar: minute
Encoding: 162 162 99
Width: 2048
Flags: W
LayerCount: 2
Fore
SplineSet
0 798 m 1,0,1
 18 981 18 981 19 1125.5 c 128,-1,2
 20 1270 20 1270 70 1355 c 1,3,4
 107 1398 107 1398 185.5 1384 c 128,-1,5
 264 1370 264 1370 263 1308 c 1,6,7
 254 1224 254 1224 172 1048.5 c 128,-1,8
 90 873 90 873 33 778 c 1,9,-1
 0 798 l 1,0,1
EndSplineSet
EndChar

StartChar: lessequal
Encoding: 163 163 100
Width: 1124
Flags: W
LayerCount: 2
Fore
SplineSet
1006 92 m 1,0,-1
 1006 5 l 1,1,-1
 1 5 l 1,2,-1
 1 92 l 1,3,-1
 1006 92 l 1,0,-1
6 702 m 1,4,-1
 6 745 l 1,5,-1
 997 1247 l 1,6,-1
 997 1150 l 1,7,-1
 158 723 l 1,8,-1
 997 297 l 1,9,-1
 997 199 l 1,10,-1
 6 702 l 1,4,-1
EndSplineSet
EndChar

StartChar: fraction
Encoding: 164 167 101
Width: 342
Flags: W
LayerCount: 2
Fore
SplineSet
2 -51 m 1,0,-1
 0 -50 l 1,1,-1
 939 1379 l 1,2,-1
 1026 1379 l 1,3,-1
 85 -51 l 1,4,-1
 2 -51 l 1,0,-1
EndSplineSet
EndChar

StartChar: infinity
Encoding: 165 8226 102
Width: 1460
Flags: W
LayerCount: 2
Fore
SplineSet
536 473 m 0,0,1
 553 506 553 506 570 542 c 0,2,3
 574 550 574 550 577 557 c 1,4,5
 524 636 524 636 464 684 c 0,6,7
 382 749 382 749 287 754 c 1,8,9
 159 752 159 752 96.5 661.5 c 128,-1,10
 34 571 34 571 37 485 c 0,11,12
 42 373 42 373 110 287.5 c 128,-1,13
 178 202 178 202 259 205 c 1,14,15
 387 189 387 189 536 473 c 0,0,1
1317 475 m 1,16,17
 1317 569 1317 569 1289 646.5 c 128,-1,18
 1261 724 1261 724 1203 772 c 128,-1,19
 1145 820 1145 820 1059 831 c 128,-1,20
 973 842 973 842 930 819 c 1,21,22
 850 786 850 786 722 562 c 0,23,24
 699 522 699 522 675 476 c 1,25,26
 708 404 708 404 741 346 c 0,27,28
 870 121 870 121 1005 112 c 1,29,30
 1079 103 1079 103 1136 121.5 c 128,-1,31
 1193 140 1193 140 1234 199 c 1,32,33
 1261 232 1261 232 1288 310.5 c 128,-1,34
 1315 389 1315 389 1317 475 c 1,16,17
1245 152 m 1,35,36
 1209 103 1209 103 1140 69.5 c 128,-1,37
 1071 36 1071 36 1001 44 c 1,38,39
 843 46 843 46 707 307 c 0,40,41
 686 347 686 347 665 394 c 0,42,43
 657 412 657 412 649 428 c 1,44,45
 628 389 628 389 606 356 c 0,46,47
 466 139 466 139 315 140 c 0,48,49
 181 140 181 140 91.5 239.5 c 128,-1,50
 2 339 2 339 -1 495 c 1,51,52
 1 627 1 627 81 727.5 c 128,-1,53
 161 828 161 828 267 830 c 1,54,55
 396 829 396 829 501 734 c 0,56,57
 556 684 556 684 604 609 c 1,58,59
 622 642 622 642 640 671 c 0,60,61
 782 896 782 896 953 898 c 1,62,63
 1070 897 1070 897 1135 867 c 128,-1,64
 1200 837 1200 837 1245 791 c 128,-1,65
 1290 745 1290 745 1322 674.5 c 128,-1,66
 1354 604 1354 604 1357 477 c 1,67,68
 1354 367 1354 367 1315 274.5 c 128,-1,69
 1276 182 1276 182 1245 152 c 1,35,36
EndSplineSet
EndChar

StartChar: florin
Encoding: 166 182 103
Width: 1024
Flags: W
LayerCount: 2
Fore
SplineSet
128 -349 m 0,0,1
 126 -372 126 -372 135 -382 c 0,2,3
 148 -395 148 -395 162 -393 c 1,4,5
 189 -387 189 -387 226.5 -326.5 c 128,-1,6
 264 -266 264 -266 301 -126 c 1,7,8
 432 496 432 496 537 841 c 1,9,-1
 339 841 l 1,10,-1
 354 901 l 1,11,12
 490 905 490 905 526 920 c 0,13,14
 556 932 556 932 584 990 c 1,15,16
 658 1227 658 1227 708 1299 c 1,17,18
 747 1360 747 1360 783.5 1387.5 c 128,-1,19
 820 1415 820 1415 873 1416 c 1,20,21
 948 1410 948 1410 987 1370 c 0,22,23
 1005 1351 1005 1351 1015 1334 c 0,24,25
 1020 1326 1020 1326 1022 1315 c 1,26,27
 1025 1306 1025 1306 1024 1297 c 0,28,29
 1022 1272 1022 1272 1006 1250 c 1,30,31
 986 1225 986 1225 956.5 1217.5 c 128,-1,32
 927 1210 927 1210 905 1225 c 256,33,34
 883 1240 883 1240 882 1269 c 1,35,36
 880 1296 880 1296 894 1320 c 1,37,38
 902 1329 902 1329 902 1348 c 1,39,40
 898 1377 898 1377 873 1379 c 0,41,42
 838 1383 838 1383 813.5 1360 c 128,-1,43
 789 1337 789 1337 772.5 1287.5 c 128,-1,44
 756 1238 756 1238 749 1202 c 0,45,46
 737 1135 737 1135 703 916 c 0,47,48
 702 908 702 908 701 901 c 1,49,-1
 896 901 l 1,50,-1
 881 841 l 1,51,-1
 690 841 l 1,52,53
 652 627 652 627 559 257 c 1,54,55
 407 -231 407 -231 301 -352 c 0,56,57
 268 -390 268 -390 229.5 -415.5 c 128,-1,58
 191 -441 191 -441 128 -442 c 1,59,60
 71 -440 71 -440 35 -406 c 0,61,62
 2 -376 2 -376 0 -343 c 1,63,-1
 0 -336 l 1,64,65
 -2 -308 -2 -308 18 -282 c 0,66,67
 38 -257 38 -257 67.5 -249.5 c 128,-1,68
 97 -242 97 -242 119 -257 c 0,69,70
 140 -272 140 -272 142 -300 c 1,71,72
 142 -322 142 -322 135.5 -332.5 c 128,-1,73
 129 -343 129 -343 128 -349 c 0,0,1
EndSplineSet
EndChar

StartChar: club
Encoding: 167 223 104
Width: 1542
Flags: W
LayerCount: 2
Fore
SplineSet
449 0 m 1,0,1
 482 59 482 59 495 114.5 c 128,-1,2
 508 170 508 170 511 207 c 1,3,4
 513 264 513 264 506.5 296 c 128,-1,5
 500 328 500 328 482 329 c 1,6,7
 467 328 467 328 414 247 c 128,-1,8
 361 166 361 166 220 166 c 1,9,10
 133 169 133 169 65.5 229.5 c 128,-1,11
 -2 290 -2 290 0 400 c 1,12,13
 0 507 0 507 49 588.5 c 128,-1,14
 98 670 98 670 228 675 c 1,15,16
 312 673 312 673 370.5 640 c 128,-1,17
 429 607 429 607 472 599 c 1,18,19
 504 601 504 601 509 637 c 0,20,21
 513 669 513 669 446 699 c 1,22,23
 392 726 392 726 355.5 776 c 128,-1,24
 319 826 319 826 319 901 c 1,25,26
 317 1014 317 1014 379.5 1071 c 128,-1,27
 442 1128 442 1128 583 1131 c 1,28,29
 724 1128 724 1128 786.5 1071 c 128,-1,30
 849 1014 849 1014 847 901 c 1,31,32
 847 826 847 826 810.5 776 c 128,-1,33
 774 726 774 726 720 699 c 1,34,35
 653 669 653 669 657 637 c 0,36,37
 662 601 662 601 694 599 c 1,38,39
 737 607 737 607 795.5 640 c 128,-1,40
 854 673 854 673 938 675 c 1,41,42
 1068 670 1068 670 1117 588.5 c 128,-1,43
 1166 507 1166 507 1166 400 c 1,44,45
 1168 290 1168 290 1100.5 229.5 c 128,-1,46
 1033 169 1033 169 946 166 c 1,47,48
 805 166 805 166 752 247 c 128,-1,49
 699 328 699 328 684 329 c 1,50,51
 666 328 666 328 659.5 296 c 128,-1,52
 653 264 653 264 655 207 c 1,53,54
 658 170 658 170 671 114.5 c 128,-1,55
 684 59 684 59 717 0 c 1,56,-1
 449 0 l 1,0,1
EndSplineSet
EndChar

StartChar: diamond
Encoding: 168 174 105
Width: 1542
Flags: W
LayerCount: 2
Fore
SplineSet
465 -33 m 1,0,-1
 0 550 l 1,1,-1
 465 1148 l 1,2,-1
 930 550 l 1,3,-1
 465 -33 l 1,0,-1
EndSplineSet
EndChar

StartChar: heart
Encoding: 169 169 106
Width: 1542
Flags: W
LayerCount: 2
Fore
SplineSet
520 -42 m 1,0,1
 488 27 488 27 292 298 c 1,2,3
 236 369 236 369 117.5 518 c 128,-1,4
 -1 667 -1 667 0 850 c 0,5,6
 0 960 0 960 68 1029 c 128,-1,7
 136 1098 136 1098 250 1100 c 1,8,9
 368 1097 368 1097 418.5 1040.5 c 128,-1,10
 469 984 469 984 475 903 c 0,11,12
 476 891 476 891 484.5 867.5 c 128,-1,13
 493 844 493 844 520 844 c 256,14,15
 547 844 547 844 555.5 867.5 c 128,-1,16
 564 891 564 891 565 903 c 0,17,18
 571 984 571 984 621.5 1040.5 c 128,-1,19
 672 1097 672 1097 790 1100 c 1,20,21
 904 1098 904 1098 972 1029 c 128,-1,22
 1040 960 1040 960 1040 850 c 0,23,24
 1041 667 1041 667 922.5 518 c 128,-1,25
 804 369 804 369 748 298 c 1,26,27
 552 27 552 27 520 -42 c 1,0,1
EndSplineSet
EndChar

StartChar: spade
Encoding: 170 8482 107
Width: 1542
Flags: W
LayerCount: 2
Fore
SplineSet
559 1114 m 1,0,1
 646 965 646 965 736 855 c 1,2,3
 861 694 861 694 970 542 c 1,4,5
 1010 490 1010 490 1029 441.5 c 128,-1,6
 1048 393 1048 393 1045 350 c 1,7,8
 1049 266 1049 266 1007 184.5 c 128,-1,9
 965 103 965 103 874 100 c 1,10,11
 788 99 788 99 737 144 c 128,-1,12
 686 189 686 189 665 272 c 0,13,14
 658 303 658 303 640 314 c 128,-1,15
 622 325 622 325 604.5 306.5 c 128,-1,16
 587 288 587 288 584 252 c 1,17,18
 580 162 580 162 595.5 97 c 128,-1,19
 611 32 611 32 641 0 c 1,20,-1
 405 0 l 1,21,22
 435 32 435 32 450.5 97 c 128,-1,23
 466 162 466 162 462 252 c 1,24,25
 459 288 459 288 441.5 306.5 c 128,-1,26
 424 325 424 325 406 314 c 128,-1,27
 388 303 388 303 381 272 c 0,28,29
 360 189 360 189 309 144 c 128,-1,30
 258 99 258 99 172 100 c 1,31,32
 81 103 81 103 39 184.5 c 128,-1,33
 -3 266 -3 266 0 350 c 1,34,35
 -2 393 -2 393 17 441.5 c 128,-1,36
 36 490 36 490 76 542 c 1,37,38
 185 694 185 694 310 855 c 1,39,40
 400 965 400 965 487 1114 c 1,41,-1
 523 1180 l 1,42,-1
 559 1114 l 1,0,1
EndSplineSet
EndChar

StartChar: arrowboth
Encoding: 171 180 108
Width: 2134
Flags: W
LayerCount: 2
Fore
SplineSet
357 457 m 1,0,1
 544 290 544 290 691 -22 c 1,2,-1
 603 -22 l 1,3,4
 325 316 325 316 3 482 c 1,5,-1
 3 532 l 1,6,7
 325 701 325 701 603 1028 c 1,8,-1
 692 1028 l 1,9,10
 543 734 543 734 360 557 c 1,11,-1
 1703 557 l 1,12,13
 1520 734 1520 734 1372 1028 c 1,14,-1
 1461 1028 l 1,15,16
 1739 701 1739 701 2061 532 c 1,17,-1
 2061 482 l 1,18,19
 1739 316 1739 316 1461 -22 c 1,20,-1
 1373 -22 l 1,21,22
 1519 290 1519 290 1706 457 c 1,23,-1
 357 457 l 1,0,1
EndSplineSet
EndChar

StartChar: arrowleft
Encoding: 172 168 109
Width: 2021
Flags: W
LayerCount: 2
Fore
SplineSet
1821 557 m 1,0,-1
 1821 457 l 1,1,-1
 357 457 l 1,2,3
 544 290 544 290 691 -22 c 1,4,-1
 603 -22 l 1,5,6
 325 316 325 316 3 482 c 1,7,-1
 3 532 l 1,8,9
 325 701 325 701 603 1028 c 1,10,-1
 692 1028 l 1,11,12
 543 734 543 734 360 557 c 1,13,-1
 1821 557 l 1,0,-1
EndSplineSet
EndChar

StartChar: arrowup
Encoding: 173 8800 110
Width: 1235
Flags: W
LayerCount: 2
Fore
SplineSet
581 -27 m 1,0,-1
 481 -27 l 1,1,-1
 481 1437 l 1,2,3
 314 1250 314 1250 1 1103 c 1,4,-1
 2 1191 l 1,5,6
 340 1469 340 1469 506 1791 c 1,7,-1
 556 1791 l 1,8,9
 725 1469 725 1469 1052 1191 c 1,10,-1
 1051 1103 l 1,11,12
 758 1251 758 1251 581 1431 c 1,13,-1
 581 -27 l 1,0,-1
EndSplineSet
EndChar

StartChar: arrowright
Encoding: 174 198 111
Width: 2021
Flags: W
LayerCount: 2
Fore
SplineSet
1537 556 m 1,0,1
 1357 734 1357 734 1208 1028 c 1,2,-1
 1297 1028 l 1,3,4
 1575 701 1575 701 1897 532 c 1,5,-1
 1897 482 l 1,6,7
 1575 316 1575 316 1296 -23 c 1,8,-1
 1209 -23 l 1,9,10
 1356 290 1356 290 1543 457 c 1,11,-1
 79 457 l 1,12,-1
 79 557 l 1,13,-1
 1537 556 l 1,0,1
EndSplineSet
EndChar

StartChar: arrowdown
Encoding: 175 216 112
Width: 1235
Flags: W
LayerCount: 2
Fore
SplineSet
680 333 m 1,0,1
 857 513 857 513 1150 661 c 1,2,-1
 1151 573 l 1,3,4
 824 295 824 295 655 -27 c 1,5,-1
 605 -27 l 1,6,7
 439 295 439 295 101 573 c 1,8,-1
 100 661 l 1,9,10
 413 514 413 514 580 327 c 1,11,-1
 580 1791 l 1,12,-1
 680 1791 l 1,13,-1
 680 333 l 1,0,1
EndSplineSet
EndChar

StartChar: degree
Encoding: 176 8734 113
Width: 819
Flags: W
LayerCount: 2
Fore
SplineSet
303 1307 m 256,0,1
 207 1307 207 1307 139 1239.5 c 128,-1,2
 71 1172 71 1172 71 1076 c 256,3,4
 71 980 71 980 139 912 c 128,-1,5
 207 844 207 844 303 844 c 256,6,7
 399 844 399 844 466.5 912 c 128,-1,8
 534 980 534 980 534 1076 c 256,9,10
 534 1172 534 1172 466.5 1239.5 c 128,-1,11
 399 1307 399 1307 303 1307 c 256,0,1
606 1076 m 0,13,14
 606 950 606 950 517 861.5 c 128,-1,15
 428 773 428 773 303 773 c 0,16,17
 177 773 177 773 88.5 861.5 c 128,-1,18
 0 950 0 950 0 1076 c 0,19,20
 0 1201 0 1201 88.5 1290 c 128,-1,21
 177 1379 177 1379 303 1379 c 0,22,23
 428 1379 428 1379 517 1290 c 128,-1,12
 606 1201 606 1201 606 1076 c 0,13,14
EndSplineSet
EndChar

StartChar: plusminus
Encoding: 177 177 114
Width: 1124
Flags: W
LayerCount: 2
Fore
SplineSet
0 0 m 1,0,-1
 0 91 l 1,1,-1
 1051 91 l 1,2,-1
 1051 0 l 1,3,-1
 0 0 l 1,0,-1
480 700 m 1,4,-1
 0 700 l 1,5,-1
 0 791 l 1,6,-1
 480 791 l 1,7,-1
 480 1271 l 1,8,-1
 571 1271 l 1,9,-1
 571 791 l 1,10,-1
 1051 791 l 1,11,-1
 1051 700 l 1,12,-1
 571 700 l 1,13,-1
 571 220 l 1,14,-1
 480 220 l 1,15,-1
 480 700 l 1,4,-1
EndSplineSet
EndChar

StartChar: second
Encoding: 178 8804 115
Width: 842
Flags: W
LayerCount: 2
Fore
SplineSet
0 798 m 1,0,1
 18 981 18 981 19 1125.5 c 128,-1,2
 20 1270 20 1270 70 1355 c 1,3,4
 107 1398 107 1398 185.5 1384 c 128,-1,5
 264 1370 264 1370 263 1308 c 1,6,7
 254 1224 254 1224 172 1048.5 c 128,-1,8
 90 873 90 873 33 778 c 1,9,-1
 0 798 l 1,0,1
360 798 m 1,10,11
 378 981 378 981 379 1125.5 c 128,-1,12
 380 1270 380 1270 430 1355 c 1,13,14
 467 1398 467 1398 545.5 1384 c 128,-1,15
 624 1370 624 1370 623 1308 c 1,16,17
 614 1224 614 1224 532 1048.5 c 128,-1,18
 450 873 450 873 393 778 c 1,19,-1
 360 798 l 1,10,11
EndSplineSet
EndChar

StartChar: greaterequal
Encoding: 179 8805 116
Width: 1124
Flags: W
LayerCount: 2
Fore
SplineSet
1056 92 m 1,0,-1
 1056 5 l 1,1,-1
 51 5 l 1,2,-1
 51 92 l 1,3,-1
 1056 92 l 1,0,-1
60 199 m 1,4,-1
 60 297 l 1,5,-1
 899 723 l 1,6,-1
 60 1150 l 1,7,-1
 60 1247 l 1,8,-1
 1051 745 l 1,9,-1
 1051 702 l 1,10,-1
 60 199 l 1,4,-1
EndSplineSet
EndChar

StartChar: multiply
Encoding: 180 165 117
Width: 1124
Flags: W
LayerCount: 2
Fore
SplineSet
443 582 m 1,0,-1
 828 967 l 1,1,-1
 885 910 l 1,2,-1
 500 525 l 1,3,-1
 885 139 l 1,4,-1
 828 82 l 1,5,-1
 443 468 l 1,6,-1
 57 82 l 1,7,-1
 0 139 l 1,8,-1
 386 525 l 1,9,-1
 0 910 l 1,10,-1
 57 967 l 1,11,-1
 443 582 l 1,0,-1
EndSplineSet
EndChar

StartChar: proportional
Encoding: 181 181 118
Width: 1460
Flags: W
LayerCount: 2
Fore
SplineSet
536 473 m 0,0,1
 553 506 553 506 570 542 c 0,2,3
 574 550 574 550 577 557 c 1,4,5
 524 636 524 636 464 684 c 0,6,7
 382 749 382 749 287 754 c 1,8,9
 159 752 159 752 96.5 661.5 c 128,-1,10
 34 571 34 571 37 485 c 0,11,12
 42 373 42 373 110 287.5 c 128,-1,13
 178 202 178 202 259 205 c 1,14,15
 387 189 387 189 536 473 c 0,0,1
640 671 m 0,16,17
 782 896 782 896 953 898 c 1,18,19
 1045 895 1045 895 1120 864.5 c 128,-1,20
 1195 834 1195 834 1249 798 c 1,21,-1
 1233 764 l 1,22,23
 1145 820 1145 820 1053 829.5 c 128,-1,24
 961 839 961 839 930 819 c 1,25,26
 850 786 850 786 722 562 c 0,27,28
 699 522 699 522 675 476 c 1,29,30
 708 404 708 404 741 346 c 0,31,32
 870 121 870 121 1005 112 c 1,33,34
 1079 103 1079 103 1136 121.5 c 128,-1,35
 1193 140 1193 140 1234 199 c 1,36,-1
 1245 152 l 1,37,38
 1209 103 1209 103 1140 69.5 c 128,-1,39
 1071 36 1071 36 1001 44 c 1,40,41
 843 46 843 46 707 307 c 0,42,43
 686 347 686 347 665 394 c 0,44,45
 657 412 657 412 649 428 c 1,46,47
 628 389 628 389 606 356 c 0,48,49
 466 139 466 139 315 140 c 0,50,51
 181 140 181 140 91.5 239.5 c 128,-1,52
 2 339 2 339 -1 495 c 1,53,54
 1 627 1 627 81 727.5 c 128,-1,55
 161 828 161 828 267 830 c 1,56,57
 396 829 396 829 501 734 c 0,58,59
 556 684 556 684 604 609 c 1,60,61
 622 642 622 642 640 671 c 0,16,17
EndSplineSet
EndChar

StartChar: partialdiff
Encoding: 182 8706 119
Width: 1012
Flags: W
LayerCount: 2
Fore
SplineSet
836 610 m 1,0,1
 811 719 811 719 754 779 c 0,2,3
 692 843 692 843 598 840 c 1,4,5
 472 840 472 840 344.5 697 c 128,-1,6
 217 554 217 554 149 352 c 1,7,8
 113 198 113 198 171 120 c 128,-1,9
 229 42 229 42 328 44 c 0,10,11
 501 46 501 46 671 303 c 0,12,13
 772 455 772 455 836 610 c 1,0,1
860 672 m 1,14,15
 888 749 888 749 907 827 c 1,16,17
 940 1048 940 1048 848.5 1169 c 128,-1,18
 757 1290 757 1290 597 1303 c 1,19,20
 338 1310 338 1310 279 1128 c 1,21,-1
 237 1113 l 1,22,23
 240 1199 240 1199 305 1293.5 c 128,-1,24
 370 1388 370 1388 529 1417 c 1,25,26
 729 1433 729 1433 860.5 1297 c 128,-1,27
 992 1161 992 1161 987 997 c 1,28,29
 984 777 984 777 791.5 395 c 128,-1,30
 599 13 599 13 355 -14 c 1,31,32
 122 -20 122 -20 51.5 78 c 128,-1,33
 -19 176 -19 176 6 351 c 1,34,35
 33 501 33 501 175 677.5 c 128,-1,36
 317 854 317 854 552 901 c 1,37,38
 705 916 705 916 779 828 c 0,39,40
 840 754 840 754 860 672 c 1,14,15
EndSplineSet
EndChar

StartChar: bullet
Encoding: 183 8721 120
Width: 942
Flags: W
LayerCount: 2
Fore
SplineSet
365 894 m 0,0,1
 515 894 515 894 622 787 c 128,-1,2
 729 680 729 680 729 530 c 0,3,4
 729 378 729 378 622 271.5 c 128,-1,5
 515 165 515 165 365 165 c 0,6,7
 214 165 214 165 107 271.5 c 128,-1,8
 0 378 0 378 0 530 c 0,9,10
 0 680 0 680 107 787 c 128,-1,11
 214 894 214 894 365 894 c 0,0,1
EndSplineSet
EndChar

StartChar: divide
Encoding: 184 8719 121
Width: 1124
Flags: W
LayerCount: 2
Fore
SplineSet
1049 568 m 1,0,-1
 1049 488 l 1,1,-1
 2 488 l 1,2,-1
 2 568 l 1,3,-1
 1049 568 l 1,0,-1
602.5 925 m 128,-1,5
 634 893 634 893 634 848 c 256,6,7
 634 803 634 803 602.5 771 c 128,-1,8
 571 739 571 739 526 739 c 256,9,10
 481 739 481 739 449 771 c 128,-1,11
 417 803 417 803 417 848 c 256,12,13
 417 893 417 893 449 925 c 128,-1,14
 481 957 481 957 526 957 c 256,15,4
 571 957 571 957 602.5 925 c 128,-1,5
602.5 285 m 128,-1,17
 634 253 634 253 634 208 c 256,18,19
 634 163 634 163 602.5 131 c 128,-1,20
 571 99 571 99 526 99 c 256,21,22
 481 99 481 99 449 131 c 128,-1,23
 417 163 417 163 417 208 c 256,24,25
 417 253 417 253 449 285 c 128,-1,26
 481 317 481 317 526 317 c 256,27,16
 571 317 571 317 602.5 285 c 128,-1,17
EndSplineSet
EndChar

StartChar: notequal
Encoding: 185 960 122
Width: 1124
Flags: W
LayerCount: 2
Fore
SplineSet
529 377 m 1,0,-1
 1052 377 l 1,1,-1
 1052 288 l 1,2,-1
 473 288 l 1,3,-1
 294 2 l 1,4,-1
 188 2 l 1,5,-1
 367 288 l 1,6,-1
 0 288 l 1,7,-1
 0 377 l 1,8,-1
 423 377 l 1,9,-1
 605 668 l 1,10,-1
 0 668 l 1,11,-1
 0 757 l 1,12,-1
 661 757 l 1,13,-1
 841 1044 l 1,14,-1
 946 1044 l 1,15,-1
 766 757 l 1,16,-1
 1052 757 l 1,17,-1
 1052 668 l 1,18,-1
 711 668 l 1,19,-1
 529 377 l 1,0,-1
EndSplineSet
EndChar

StartChar: equivalence
Encoding: 186 8747 123
Width: 1124
Flags: W
LayerCount: 2
Fore
SplineSet
1100 267 m 1,0,-1
 1100 178 l 1,1,-1
 0 178 l 1,2,-1
 0 267 l 1,3,-1
 1100 267 l 1,0,-1
1100 867 m 1,4,-1
 1100 778 l 1,5,-1
 0 778 l 1,6,-1
 0 867 l 1,7,-1
 1100 867 l 1,4,-1
1100 567 m 1,8,-1
 1100 478 l 1,9,-1
 0 478 l 1,10,-1
 0 567 l 1,11,-1
 1100 567 l 1,8,-1
EndSplineSet
EndChar

StartChar: approxequal
Encoding: 187 170 124
Width: 1124
Flags: W
LayerCount: 2
Fore
SplineSet
51 122 m 1,0,-1
 5 138 l 1,1,2
 0 298 0 298 79.5 390.5 c 128,-1,3
 159 483 159 483 275 486 c 1,4,5
 404 485 404 485 549.5 385.5 c 128,-1,6
 695 286 695 286 805 273 c 0,7,8
 902 262 902 262 942.5 336 c 128,-1,9
 983 410 983 410 973 470 c 1,10,-1
 1018 453 l 1,11,12
 1018 261 1018 261 938.5 189 c 128,-1,13
 859 117 859 117 793 120 c 1,14,15
 679 116 679 116 503 232 c 128,-1,16
 327 348 327 348 242 347 c 1,17,18
 156 349 156 349 101.5 287.5 c 128,-1,19
 47 226 47 226 51 122 c 1,0,-1
51 522 m 1,20,-1
 5 538 l 1,21,22
 0 698 0 698 79.5 790.5 c 128,-1,23
 159 883 159 883 275 886 c 1,24,25
 404 885 404 885 549.5 785.5 c 128,-1,26
 695 686 695 686 805 673 c 0,27,28
 902 662 902 662 942.5 736 c 128,-1,29
 983 810 983 810 973 870 c 1,30,-1
 1018 853 l 1,31,32
 1018 661 1018 661 938.5 589 c 128,-1,33
 859 517 859 517 793 520 c 1,34,35
 679 516 679 516 503 632 c 128,-1,36
 327 748 327 748 242 747 c 1,37,38
 156 749 156 749 101.5 687.5 c 128,-1,39
 47 626 47 626 51 522 c 1,20,-1
EndSplineSet
EndChar

StartChar: ellipsis
Encoding: 188 186 125
Width: 2048
Flags: W
LayerCount: 2
Fore
SplineSet
189.5 167.5 m 128,-1,1
 222 135 222 135 222 89 c 256,2,3
 222 43 222 43 189.5 10.5 c 128,-1,4
 157 -22 157 -22 111 -22 c 256,5,6
 65 -22 65 -22 32.5 10.5 c 128,-1,7
 0 43 0 43 0 89 c 256,8,9
 0 135 0 135 32.5 167.5 c 128,-1,10
 65 200 65 200 111 200 c 256,11,0
 157 200 157 200 189.5 167.5 c 128,-1,1
1555.5 167.5 m 128,-1,13
 1588 135 1588 135 1588 89 c 256,14,15
 1588 43 1588 43 1555.5 10.5 c 128,-1,16
 1523 -22 1523 -22 1477 -22 c 256,17,18
 1431 -22 1431 -22 1398.5 10.5 c 128,-1,19
 1366 43 1366 43 1366 89 c 256,20,21
 1366 135 1366 135 1398.5 167.5 c 128,-1,22
 1431 200 1431 200 1477 200 c 256,23,12
 1523 200 1523 200 1555.5 167.5 c 128,-1,13
872.5 167.5 m 128,-1,25
 905 135 905 135 905 89 c 256,26,27
 905 43 905 43 872.5 10.5 c 128,-1,28
 840 -22 840 -22 794 -22 c 256,29,30
 748 -22 748 -22 715.5 10.5 c 128,-1,31
 683 43 683 43 683 89 c 256,32,33
 683 135 683 135 715.5 167.5 c 128,-1,34
 748 200 748 200 794 200 c 256,35,24
 840 200 840 200 872.5 167.5 c 128,-1,25
EndSplineSet
EndChar

StartChar: arrowvertex
Encoding: 189 937 126
Width: 1235
Flags: W
LayerCount: 2
Fore
SplineSet
0 2059 m 1,0,-1
 95 2059 l 1,1,-1
 95 -220 l 1,2,-1
 0 -220 l 1,3,-1
 0 2059 l 1,0,-1
EndSplineSet
EndChar

StartChar: arrowhorizex
Encoding: 190 230 127
Width: 2048
Flags: W
LayerCount: 2
Fore
SplineSet
2280 545 m 1,0,-1
 2280 448 l 1,1,-1
 0 448 l 1,2,-1
 0 545 l 1,3,-1
 2280 545 l 1,0,-1
EndSplineSet
EndChar

StartChar: carriagereturn
Encoding: 191 248 128
Width: 1348
Flags: W
LayerCount: 2
Fore
SplineSet
1128 255 m 1,0,-1
 1128 1260 l 1,1,-1
 1227 1260 l 1,2,-1
 1227 155 l 1,3,-1
 354 155 l 1,4,-1
 354 -10 l 1,5,-1
 2 201 l 1,6,-1
 354 412 l 1,7,-1
 354 255 l 1,8,-1
 1128 255 l 1,0,-1
EndSplineSet
EndChar

StartChar: aleph
Encoding: 192 191 129
Width: 1686
Flags: W
LayerCount: 2
Fore
SplineSet
270 865 m 1,0,1
 167 760 167 760 136 690 c 1,2,3
 98 608 98 608 136 511 c 1,4,5
 187 398 187 398 295.5 293.5 c 128,-1,6
 404 189 404 189 401 92 c 0,7,8
 399 35 399 35 353 3.5 c 128,-1,9
 307 -28 307 -28 226 -34 c 1,10,11
 109 -27 109 -27 104 0 c 1,12,13
 99 9 99 9 131 15.5 c 128,-1,14
 163 22 163 22 187.5 51 c 128,-1,15
 212 80 212 80 207 128 c 1,16,17
 212 142 212 142 130.5 293.5 c 128,-1,18
 49 445 49 445 51 547 c 0,19,20
 52 617 52 617 117 719 c 0,21,22
 169 801 169 801 252 881 c 1,23,-1
 160 962 l 1,24,25
 30 1094 30 1094 -2 1155 c 1,26,27
 -24 1208 -24 1208 27.5 1279.5 c 128,-1,28
 79 1351 79 1351 120 1375 c 1,29,30
 147 1378 147 1378 144 1355 c 1,31,32
 133 1327 133 1327 132 1279 c 128,-1,33
 131 1231 131 1231 164.5 1187 c 128,-1,34
 198 1143 198 1143 366 1007 c 1,35,-1
 717 701 l 1,36,-1
 1052 1035 l 1,37,38
 1031 1056 1031 1056 1006 1078 c 0,39,40
 835 1220 835 1220 864 1293 c 1,41,42
 881 1345 881 1345 934 1378 c 128,-1,43
 987 1411 987 1411 1079 1406 c 1,44,45
 1007 1364 1007 1364 1018 1314 c 1,46,47
 1030 1269 1030 1269 1131 1174.5 c 128,-1,48
 1232 1080 1232 1080 1239 1033 c 1,49,50
 1256 935 1256 935 1221.5 892.5 c 128,-1,51
 1187 850 1187 850 1132 817 c 1,52,53
 1166 908 1166 908 1073 1013 c 1,54,-1
 740 680 l 1,55,-1
 1001 452 l 1,56,57
 1119 353 1119 353 1148.5 309 c 128,-1,58
 1178 265 1178 265 1180 234 c 0,59,60
 1183 166 1183 166 1138 99 c 128,-1,61
 1093 32 1093 32 1039 -23 c 1,62,63
 1016 -28 1016 -28 1016 -8 c 1,64,65
 1010 7 1010 7 1034 67.5 c 128,-1,66
 1058 128 1058 128 1025 180 c 1,67,68
 1005 222 1005 222 893 317 c 1,69,-1
 270 865 l 1,0,1
EndSplineSet
EndChar

StartChar: Ifrakur
Encoding: 193 161 130
Width: 1405
Flags: W
LayerCount: 2
Fore
SplineSet
396 900 m 1,0,-1
 414 883 l 1,1,2
 327 827 327 827 247.5 842.5 c 128,-1,3
 168 858 168 858 117 935 c 128,-1,4
 66 1012 66 1012 84 1117 c 1,5,6
 142 1360 142 1360 443 1408 c 1,7,8
 582 1416 582 1416 669.5 1373.5 c 128,-1,9
 757 1331 757 1331 859.5 1267 c 128,-1,10
 962 1203 962 1203 1043 1199 c 1,11,12
 1189 1199 1189 1199 1256 1356 c 1,13,-1
 1278 1334 l 1,14,15
 1194 1128 1194 1128 1065 1065 c 1,16,17
 899 987 899 987 675 1133.5 c 128,-1,18
 451 1280 451 1280 319 1237 c 1,19,20
 200 1192 200 1192 169 1117 c 128,-1,21
 138 1042 138 1042 157.5 971.5 c 128,-1,22
 177 901 177 901 241 875.5 c 128,-1,23
 305 850 305 850 396 900 c 1,0,-1
1270 950 m 1,24,-1
 1258 933 l 1,25,26
 1177 971 1177 971 1125 946 c 1,27,28
 1031 887 1031 887 1154 727.5 c 128,-1,29
 1277 568 1277 568 1256 399 c 1,30,31
 1217 208 1217 208 1043 85.5 c 128,-1,32
 869 -37 869 -37 649 -28 c 1,33,34
 446 -21 446 -21 363 119 c 128,-1,35
 280 259 280 259 136 226 c 1,36,37
 72 201 72 201 19 138 c 1,38,-1
 4 149 l 1,39,40
 95 288 95 288 276 306 c 1,41,42
 449 320 449 320 561.5 181.5 c 128,-1,43
 674 43 674 43 762 40 c 0,44,45
 883 35 883 35 991.5 141 c 128,-1,46
 1100 247 1100 247 1086 414 c 1,47,48
 1073 524 1073 524 977 662 c 128,-1,49
 881 800 881 800 927 892 c 128,-1,50
 973 984 973 984 1099 998 c 1,51,52
 1202 1012 1202 1012 1270 950 c 1,24,-1
EndSplineSet
EndChar

StartChar: Rfrakur
Encoding: 194 172 131
Width: 1628
Flags: W
LayerCount: 2
Fore
SplineSet
749 661 m 1,0,-1
 749 357 l 1,1,2
 712 253 712 253 670.5 198.5 c 128,-1,3
 629 144 629 144 480 53 c 1,4,-1
 309 -56 l 1,5,-1
 169 125 l 1,6,-1
 59 70 l 1,7,-1
 49 102 l 1,8,-1
 308 255 l 1,9,-1
 443 74 l 1,10,11
 556 134 556 134 554 297 c 1,12,-1
 554 1025 l 1,13,14
 560 1256 560 1256 425.5 1329.5 c 128,-1,15
 291 1403 291 1403 169 1271 c 1,16,17
 92 1155 92 1155 119.5 1060 c 128,-1,18
 147 965 147 965 249 911 c 1,19,20
 337 849 337 849 342 736 c 128,-1,21
 347 623 347 623 206 506 c 1,22,-1
 179 533 l 1,23,24
 236 563 236 563 240 641 c 1,25,26
 240 752 240 752 108 835.5 c 128,-1,27
 -24 919 -24 919 2 1025 c 1,28,29
 31 1235 31 1235 216 1361 c 1,30,31
 363 1445 363 1445 546 1353 c 0,32,33
 677 1287 677 1287 725 1146 c 1,34,35
 926 1268 926 1268 1100 1416 c 1,36,37
 1323 1317 1323 1317 1334 1187 c 1,38,39
 1352 1055 1352 1055 1207 935 c 0,40,41
 1148 886 1148 886 1058 830 c 1,42,43
 1110 781 1110 781 1157 690 c 1,44,45
 1189 605 1189 605 1194.5 541 c 128,-1,46
 1200 477 1200 477 1195 279 c 1,47,48
 1223 45 1223 45 1396 160 c 1,49,-1
 1411 134 l 1,50,-1
 1201 -50 l 1,51,52
 1025 68 1025 68 1039 291 c 1,53,54
 1052 615 1052 615 927 754 c 1,55,56
 846 710 846 710 749 661 c 1,0,-1
732 1121 m 1,57,58
 744 1076 744 1076 749 1025 c 1,59,-1
 749 693 l 1,60,61
 1025 844 1025 844 1121 934 c 0,62,63
 1220 1028 1220 1028 1171 1178 c 1,64,65
 1140 1246 1140 1246 1055 1259 c 0,66,67
 972 1271 972 1271 732 1121 c 1,57,58
EndSplineSet
EndChar

StartChar: weierstrass
Encoding: 195 8730 132
Width: 2021
Flags: W
LayerCount: 2
Fore
SplineSet
265 271 m 1,0,1
 249 256 249 256 233 241 c 0,2,3
 203 213 203 213 179 185 c 0,4,5
 30 16 30 16 36 -167 c 1,6,7
 36 -365 36 -365 229 -390 c 1,8,9
 430 -359 430 -359 378 -95 c 1,10,11
 333 91 333 91 279 232 c 0,12,13
 271 251 271 251 265 271 c 1,0,1
698 261 m 1,14,15
 708 274 708 274 721 283 c 0,16,17
 749 303 749 303 780.5 299.5 c 128,-1,18
 812 296 812 296 829 273 c 0,19,20
 845 250 845 250 836 219.5 c 128,-1,21
 827 189 827 189 798 169 c 0,22,23
 770 149 770 149 748 153 c 1,24,25
 729 149 729 149 721 132 c 1,26,27
 700 62 700 62 723 19.5 c 128,-1,28
 746 -23 746 -23 791 -30 c 1,29,30
 883 -41 883 -41 1020.5 141 c 128,-1,31
 1158 323 1158 323 1195 473 c 1,32,33
 1223 624 1223 624 1188 724 c 128,-1,34
 1153 824 1153 824 1084 833 c 1,35,36
 988 860 988 860 781 712 c 128,-1,37
 574 564 574 564 409 402 c 1,38,39
 432 261 432 261 513 40 c 1,40,41
 585 -237 585 -237 502 -342 c 128,-1,42
 419 -447 419 -447 258 -451 c 1,43,44
 153 -452 153 -452 72 -384.5 c 128,-1,45
 -9 -317 -9 -317 -7 -200 c 1,46,47
 -21 46 -21 46 154 230 c 0,48,49
 177 254 177 254 203 277 c 0,50,51
 228 299 228 299 252 320 c 1,52,53
 229 418 229 418 239 520 c 1,54,55
 259 651 259 651 381.5 786 c 128,-1,56
 504 921 504 921 716 1043 c 1,57,-1
 735 1004 l 1,58,59
 636 948 636 948 550 846.5 c 128,-1,60
 464 745 464 745 410 576 c 0,61,62
 396 529 396 529 402 454 c 1,63,64
 464 509 464 509 549.5 585.5 c 128,-1,65
 635 662 635 662 816.5 788.5 c 128,-1,66
 998 915 998 915 1130 898 c 1,67,68
 1273 884 1273 884 1335.5 776 c 128,-1,69
 1398 668 1398 668 1376 499 c 1,70,71
 1331 294 1331 294 1151.5 102.5 c 128,-1,72
 972 -89 972 -89 806 -82 c 0,73,74
 755 -80 755 -80 710.5 -43 c 128,-1,75
 666 -6 666 -6 654 81.5 c 128,-1,76
 642 169 642 169 698 261 c 1,14,15
EndSplineSet
EndChar

StartChar: circlemultiply
Encoding: 196 402 133
Width: 1573
Flags: W
LayerCount: 2
Fore
SplineSet
705 1381.5 m 128,-1,1
 997 1382 997 1382 1204 1175 c 0,2,3
 1411 969 1411 969 1411 677 c 128,-1,4
 1411 385 1411 385 1204 178 c 0,5,6
 998 -29 998 -29 706 -29 c 128,-1,7
 414 -29 414 -29 207 177 c 0,8,9
 0 384 0 384 0 676 c 128,-1,10
 0 968 0 968 206 1175 c 1,11,0
 413 1381 413 1381 705 1381.5 c 128,-1,1
270 1111 m 256,12,13
 90 931 90 931 90.5 676 c 128,-1,14
 91 421 91 421 271 241 c 256,15,16
 451 61 451 61 706 61 c 128,-1,17
 961 61 961 61 1141 242 c 0,18,19
 1321 422 1321 422 1320.5 677 c 128,-1,20
 1320 932 1320 932 1140 1112 c 256,21,22
 960 1292 960 1292 705 1291.5 c 128,-1,23
 450 1291 450 1291 270 1111 c 256,12,13
706 605 m 1,24,-1
 373 272 l 1,25,-1
 301 343 l 1,26,-1
 634 677 l 1,27,-1
 301 1009 l 1,28,-1
 372 1081 l 1,29,-1
 706 748 l 1,30,-1
 1038 1081 l 1,31,-1
 1110 1010 l 1,32,-1
 777 677 l 1,33,-1
 1110 344 l 1,34,-1
 1039 272 l 1,35,-1
 706 605 l 1,24,-1
EndSplineSet
EndChar

StartChar: circleplus
Encoding: 197 8776 134
Width: 1573
Flags: W
LayerCount: 2
Fore
SplineSet
1203.5 1175.5 m 128,-1,1
 1410 969 1410 969 1410 676 c 0,2,3
 1410 384 1410 384 1203.5 177.5 c 128,-1,4
 997 -29 997 -29 705 -29 c 256,5,6
 413 -29 413 -29 206.5 177.5 c 128,-1,7
 0 384 0 384 0 676 c 0,8,9
 0 969 0 969 206.5 1175.5 c 128,-1,10
 413 1382 413 1382 705 1382 c 256,11,0
 997 1382 997 1382 1203.5 1175.5 c 128,-1,1
705 1291 m 256,12,13
 450 1291 450 1291 270 1111 c 128,-1,14
 90 931 90 931 90 676 c 0,15,16
 90 422 90 422 270 241.5 c 128,-1,17
 450 61 450 61 705 61 c 256,18,19
 960 61 960 61 1140 241.5 c 128,-1,20
 1320 422 1320 422 1320 676 c 0,21,22
 1320 931 1320 931 1140 1111 c 128,-1,23
 960 1291 960 1291 705 1291 c 256,12,13
655 626 m 1,24,-1
 184 626 l 1,25,-1
 184 727 l 1,26,-1
 655 727 l 1,27,-1
 655 1198 l 1,28,-1
 756 1198 l 1,29,-1
 756 727 l 1,30,-1
 1227 727 l 1,31,-1
 1227 626 l 1,32,-1
 756 626 l 1,33,-1
 756 155 l 1,34,-1
 655 155 l 1,35,-1
 655 626 l 1,24,-1
EndSplineSet
EndChar

StartChar: emptyset
Encoding: 198 8710 135
AltUni2: 000394.ffffffff.0
Width: 1686
Flags: W
LayerCount: 2
Fore
SplineSet
339 219 m 1,0,1
 513 66 513 66 751 66 c 0,2,3
 1012 66 1012 66 1197 251 c 128,-1,4
 1382 436 1382 436 1382 697 c 0,5,6
 1382 935 1382 935 1229 1109 c 1,7,-1
 339 219 l 1,0,1
272 286 m 1,8,-1
 1162 1176 l 1,9,10
 988 1329 988 1329 751 1329 c 0,11,12
 489 1329 489 1329 304 1144 c 128,-1,13
 119 959 119 959 119 697 c 0,14,15
 119 460 119 460 272 286 c 1,8,-1
265 145 m 1,16,-1
 79 -41 l 1,17,-1
 12 26 l 1,18,-1
 198 212 l 1,19,20
 15 417 15 417 15 697 c 0,21,22
 15 1002 15 1002 230.5 1217.5 c 128,-1,23
 446 1433 446 1433 751 1433 c 0,24,25
 1031 1433 1031 1433 1236 1250 c 1,26,-1
 1440 1454 l 1,27,-1
 1507 1387 l 1,28,-1
 1303 1183 l 1,29,30
 1487 978 1487 978 1487 697 c 0,31,32
 1487 393 1487 393 1271 177 c 128,-1,33
 1055 -39 1055 -39 751 -39 c 0,34,35
 470 -39 470 -39 265 145 c 1,16,-1
EndSplineSet
EndChar

StartChar: intersection
Encoding: 199 171 136
Width: 1573
Flags: W
LayerCount: 2
Fore
SplineSet
1396 316 m 2,0,1
 1396 570 1396 570 1216.5 750 c 128,-1,2
 1037 930 1037 930 782 930 c 0,3,4
 528 930 528 930 348.5 750 c 128,-1,5
 169 570 169 570 169 316 c 2,6,-1
 169 7 l 1,7,-1
 76 7 l 1,8,-1
 76 310 l 1,9,-1
 77 310 l 1,10,-1
 77 316 l 2,11,12
 77 608 77 608 283.5 814.5 c 128,-1,13
 490 1021 490 1021 782 1021 c 256,14,15
 1074 1021 1074 1021 1280.5 814.5 c 128,-1,16
 1487 608 1487 608 1487 316 c 0,17,18
 1487 287 1487 287 1487 7 c 1,19,-1
 1396 7 l 1,20,-1
 1396 316 l 2,0,1
EndSplineSet
EndChar

StartChar: union
Encoding: 200 187 137
Width: 1573
Flags: W
LayerCount: 2
Fore
SplineSet
1396 1021 m 1,0,-1
 1487 1021 l 1,1,2
 1487 741 1487 741 1487 712 c 0,3,4
 1487 420 1487 420 1280.5 213.5 c 128,-1,5
 1074 7 1074 7 782 7 c 256,6,7
 490 7 490 7 283.5 213.5 c 128,-1,8
 77 420 77 420 77 712 c 2,9,-1
 77 718 l 1,10,-1
 76 718 l 1,11,-1
 76 1021 l 1,12,-1
 169 1021 l 1,13,-1
 169 712 l 2,14,15
 169 458 169 458 348.5 278 c 128,-1,16
 528 98 528 98 782 98 c 0,17,18
 1037 98 1037 98 1216.5 278 c 128,-1,19
 1396 458 1396 458 1396 712 c 2,20,-1
 1396 1021 l 1,0,-1
EndSplineSet
EndChar

StartChar: propersuperset
Encoding: 201 8230 138
Width: 1460
Flags: W
LayerCount: 2
Fore
SplineSet
59 809 m 1,0,-1
 59 900 l 1,1,-1
 901 900 l 2,2,3
 1088 900 1088 900 1219.5 768.5 c 128,-1,4
 1351 637 1351 637 1351 451 c 0,5,6
 1351 264 1351 264 1219.5 132.5 c 128,-1,7
 1088 1 1088 1 901 1 c 2,8,-1
 59 1 l 1,9,-1
 59 92 l 1,10,-1
 901 92 l 2,11,12
 1050 92 1050 92 1155 197 c 128,-1,13
 1260 302 1260 302 1260 451 c 0,14,15
 1260 599 1260 599 1155 704 c 128,-1,16
 1050 809 1050 809 901 809 c 2,17,-1
 59 809 l 1,0,-1
EndSplineSet
EndChar

StartChar: reflexsuperset
Encoding: 202 160 139
Width: 1460
Flags: W
LayerCount: 2
Fore
SplineSet
59 809 m 1,0,-1
 59 900 l 1,1,-1
 901 900 l 2,2,3
 1088 900 1088 900 1219.5 768.5 c 128,-1,4
 1351 637 1351 637 1351 451 c 0,5,6
 1351 264 1351 264 1219.5 132.5 c 128,-1,7
 1088 1 1088 1 901 1 c 2,8,-1
 59 1 l 1,9,-1
 59 92 l 1,10,-1
 901 92 l 2,11,12
 1050 92 1050 92 1155 197 c 128,-1,13
 1260 302 1260 302 1260 451 c 0,14,15
 1260 599 1260 599 1155 704 c 128,-1,16
 1050 809 1050 809 901 809 c 2,17,-1
 59 809 l 1,0,-1
1351 -291 m 1,18,-1
 59 -291 l 1,19,-1
 59 -200 l 1,20,-1
 1351 -200 l 1,21,-1
 1351 -291 l 1,18,-1
EndSplineSet
EndChar

StartChar: notsubset
Encoding: 203 192 140
Width: 1460
Flags: W
LayerCount: 2
Fore
SplineSet
580 1 m 1,0,-1
 498 -154 l 1,1,-1
 396 -154 l 1,2,-1
 479 2 l 1,3,4
 311 12 311 12 191 133 c 1,5,6
 59 264 59 264 59 451 c 0,7,8
 59 637 59 637 190.5 768.5 c 128,-1,9
 322 900 322 900 509 900 c 2,10,-1
 955 900 l 1,11,-1
 1045 1070 l 1,12,-1
 1147 1070 l 1,13,-1
 1057 900 l 1,14,-1
 1351 900 l 1,15,-1
 1351 809 l 1,16,-1
 1009 809 l 1,17,-1
 628 92 l 1,18,-1
 1351 92 l 1,19,-1
 1351 1 l 1,20,-1
 580 1 l 1,0,-1
526 92 m 1,21,-1
 907 809 l 1,22,-1
 509 809 l 2,23,24
 360 809 360 809 255 704 c 128,-1,25
 150 599 150 599 150 451 c 0,26,27
 150 302 150 302 255 197 c 128,-1,28
 360 92 360 92 509 92 c 2,29,-1
 526 92 l 1,21,-1
EndSplineSet
EndChar

StartChar: propersubset
Encoding: 204 195 141
Width: 1460
Flags: W
LayerCount: 2
Fore
SplineSet
509 809 m 2,0,1
 360 809 360 809 255 704 c 128,-1,2
 150 599 150 599 150 451 c 0,3,4
 150 302 150 302 255 197 c 128,-1,5
 360 92 360 92 509 92 c 2,6,-1
 1351 92 l 1,7,-1
 1351 1 l 1,8,-1
 509 1 l 2,9,10
 322 1 322 1 190.5 132.5 c 128,-1,11
 59 264 59 264 59 451 c 0,12,13
 59 637 59 637 190.5 768.5 c 128,-1,14
 322 900 322 900 509 900 c 2,15,-1
 1351 900 l 1,16,-1
 1351 809 l 1,17,-1
 509 809 l 2,0,1
EndSplineSet
EndChar

StartChar: reflexsubset
Encoding: 205 213 142
Width: 1460
Flags: W
LayerCount: 2
Fore
SplineSet
509 809 m 2,0,1
 360 809 360 809 255 704 c 128,-1,2
 150 599 150 599 150 451 c 0,3,4
 150 302 150 302 255 197 c 128,-1,5
 360 92 360 92 509 92 c 2,6,-1
 1351 92 l 1,7,-1
 1351 1 l 1,8,-1
 509 1 l 2,9,10
 322 1 322 1 190.5 132.5 c 128,-1,11
 59 264 59 264 59 451 c 0,12,13
 59 637 59 637 190.5 768.5 c 128,-1,14
 322 900 322 900 509 900 c 2,15,-1
 1351 900 l 1,16,-1
 1351 809 l 1,17,-1
 509 809 l 2,0,1
59 -200 m 1,18,-1
 1351 -200 l 1,19,-1
 1351 -291 l 1,20,-1
 59 -291 l 1,21,-1
 59 -200 l 1,18,-1
EndSplineSet
EndChar

StartChar: element
Encoding: 206 338 143
Width: 1460
Flags: W
LayerCount: 2
Fore
SplineSet
1032 505 m 1,0,-1
 1032 418 l 1,1,-1
 91 417 l 1,2,3
 105 292 105 292 197 201 c 0,4,5
 305 93 305 93 457 93 c 2,6,-1
 1032 93 l 1,7,-1
 1032 4 l 1,8,-1
 504 4 l 1,9,10
 481 2 481 2 458 2 c 0,11,12
 269 2 269 2 135 136 c 128,-1,13
 1 270 1 270 1 459 c 256,14,15
 1 648 1 648 135 782 c 0,16,17
 263 910 263 910 441 916 c 1,18,-1
 441 917 l 1,19,-1
 1032 917 l 1,20,-1
 1032 828 l 1,21,-1
 457 828 l 2,22,23
 305 828 305 828 197 721 c 0,24,25
 105 629 105 629 91 505 c 1,26,-1
 1032 505 l 1,0,-1
EndSplineSet
EndChar

StartChar: notelement
Encoding: 207 339 144
Width: 1460
Flags: W
LayerCount: 2
Fore
SplineSet
280 37 m 1,0,-1
 164 -133 l 1,1,-1
 55 -133 l 1,2,-1
 201 80 l 1,3,4
 167 104 167 104 135 136 c 0,5,6
 1 270 1 270 1 459 c 256,7,8
 1 648 1 648 135 782 c 0,9,10
 263 910 263 910 441 916 c 1,11,-1
 441 917 l 1,12,-1
 775 917 l 1,13,-1
 883 1075 l 1,14,-1
 992 1075 l 1,15,-1
 884 917 l 1,16,-1
 1032 917 l 1,17,-1
 1032 828 l 1,18,-1
 823 828 l 1,19,-1
 601 505 l 1,20,-1
 1032 505 l 1,21,-1
 1032 418 l 1,22,-1
 541 417 l 1,23,-1
 333 113 l 1,24,25
 391 93 391 93 457 93 c 2,26,-1
 1032 93 l 1,27,-1
 1032 4 l 1,28,-1
 504 4 l 1,29,30
 481 2 481 2 458 2 c 0,31,32
 362 2 362 2 280 37 c 1,0,-1
492 505 m 1,33,-1
 714 828 l 1,34,-1
 457 828 l 2,35,36
 305 828 305 828 197 721 c 0,37,38
 105 629 105 629 91 505 c 1,39,-1
 492 505 l 1,33,-1
252 155 m 1,40,-1
 432 417 l 1,41,-1
 91 417 l 1,42,43
 105 292 105 292 197 201 c 0,44,45
 223 175 223 175 252 155 c 1,40,-1
EndSplineSet
EndChar

StartChar: angle
Encoding: 208 8211 145
Width: 1573
Flags: W
LayerCount: 2
Fore
SplineSet
221 90 m 1,0,-1
 1355 90 l 1,1,-1
 1392 0 l 1,2,-1
 128 0 l 1,3,-1
 0 0 l 1,4,-1
 93 90 l 1,5,-1
 1408 1364 l 1,6,-1
 1448 1277 l 1,7,-1
 755 607 l 1,8,-1
 221 90 l 1,0,-1
EndSplineSet
EndChar

StartChar: gradient
Encoding: 209 8212 146
Width: 1460
Flags: W
LayerCount: 2
Fore
SplineSet
613 204 m 1,0,-1
 1244 1284 l 1,1,-1
 184 1284 l 1,2,-1
 613 204 l 1,0,-1
2 1349 m 1,3,-1
 1358 1349 l 1,4,-1
 551 -33 l 1,5,-1
 2 1349 l 1,3,-1
EndSplineSet
EndChar

StartChar: registerserif
Encoding: 210 8220 147
Width: 1618
Flags: W
LayerCount: 2
Fore
SplineSet
1437 677 m 256,0,1
 1437 381 1437 381 1226.5 171.5 c 128,-1,2
 1016 -38 1016 -38 719 -38 c 0,3,4
 421 -38 421 -38 210.5 171.5 c 128,-1,5
 0 381 0 381 0 677 c 256,6,7
 0 973 0 973 210.5 1182 c 128,-1,8
 421 1391 421 1391 719 1391 c 0,9,10
 1016 1391 1016 1391 1226.5 1182 c 128,-1,11
 1437 973 1437 973 1437 677 c 256,0,1
724 1322 m 256,12,13
 455 1322 455 1322 265 1133 c 128,-1,14
 75 944 75 944 75 677 c 0,15,16
 75 409 75 409 265 220 c 128,-1,17
 455 31 455 31 724 31 c 256,18,19
 993 31 993 31 1183 220 c 128,-1,20
 1373 409 1373 409 1373 677 c 0,21,22
 1373 944 1373 944 1183 1133 c 128,-1,23
 993 1322 993 1322 724 1322 c 256,12,13
575 662 m 1,24,-1
 658 662 l 1,25,26
 736 664 736 664 781 677.5 c 128,-1,27
 826 691 826 691 856 740.5 c 128,-1,28
 886 790 886 790 884 847 c 1,29,30
 883 950 883 950 796 997 c 128,-1,31
 709 1044 709 1044 575 991 c 1,32,-1
 575 662 l 1,24,-1
1092 284 m 2,34,-1
 1126 284 l 1,35,-1
 1126 260 l 1,36,-1
 923 260 l 1,37,-1
 684 618 l 1,38,-1
 575 618 l 1,39,-1
 575 367 l 2,40,41
 575 286 575 286 699 286 c 1,42,-1
 699 262 l 1,43,-1
 350 262 l 1,44,-1
 350 286 l 1,45,46
 467 286 467 286 467 370 c 2,47,-1
 467 672 l 1,48,-1
 467 993 l 2,49,50
 467 1058 467 1058 350 1058 c 1,51,-1
 350 1082 l 1,52,-1
 705 1082 l 1,53,54
 874 1073 874 1073 932 1005 c 128,-1,55
 990 937 990 937 986 849 c 1,56,57
 985 755 985 755 938.5 703.5 c 128,-1,58
 892 652 892 652 804 634 c 1,59,-1
 994 372 l 2,60,33
 1057 284 1057 284 1092 284 c 2,34,-1
EndSplineSet
EndChar

StartChar: copyrightserif
Encoding: 211 8221 148
Width: 1618
Flags: W
LayerCount: 2
Fore
SplineSet
980 409 m 0,1,2
 873 296 873 296 721 296 c 0,3,4
 570 296 570 296 463 408.5 c 128,-1,5
 356 521 356 521 356 680 c 256,6,7
 356 839 356 839 463 951.5 c 128,-1,8
 570 1064 570 1064 721 1064 c 1,9,10
 837 1061 837 1061 893.5 1029.5 c 128,-1,11
 950 998 950 998 949 1061 c 1,12,-1
 984 1061 l 1,13,-1
 1002 855 l 1,14,-1
 962 848 l 1,15,16
 955 876 955 876 936 908 c 1,17,18
 898 1006 898 1006 728 1023 c 1,19,20
 588 1011 588 1011 533 920.5 c 128,-1,21
 478 830 478 830 483 682 c 1,22,23
 481 526 481 526 544 436 c 128,-1,24
 607 346 607 346 723 342 c 1,25,26
 822 345 822 345 889.5 386.5 c 128,-1,27
 957 428 957 428 993 492 c 1,28,-1
 1032 478 l 1,29,0
 1010 441 1010 441 980 409 c 0,1,2
1437 677 m 256,30,31
 1437 381 1437 381 1226.5 171.5 c 128,-1,32
 1016 -38 1016 -38 719 -38 c 0,33,34
 421 -38 421 -38 210.5 171.5 c 128,-1,35
 0 381 0 381 0 677 c 256,36,37
 0 973 0 973 210.5 1182 c 128,-1,38
 421 1391 421 1391 719 1391 c 0,39,40
 1016 1391 1016 1391 1226.5 1182 c 128,-1,41
 1437 973 1437 973 1437 677 c 256,30,31
724 1322 m 256,42,43
 455 1322 455 1322 265 1133 c 128,-1,44
 75 944 75 944 75 677 c 0,45,46
 75 409 75 409 265 220 c 128,-1,47
 455 31 455 31 724 31 c 256,48,49
 993 31 993 31 1183 220 c 128,-1,50
 1373 409 1373 409 1373 677 c 0,51,52
 1373 944 1373 944 1183 1133 c 128,-1,53
 993 1322 993 1322 724 1322 c 256,42,43
EndSplineSet
EndChar

StartChar: trademarkserif
Encoding: 212 8216 149
Width: 1823
Flags: W
LayerCount: 2
Fore
SplineSet
1552 1350 m 1,0,-1
 1760 1350 l 1,1,-1
 1760 1313 l 1,2,3
 1666 1308 1666 1308 1656 1228 c 1,4,-1
 1656 691 l 1,5,6
 1674 650 1674 650 1760 650 c 1,7,-1
 1760 613 l 1,8,-1
 1451 613 l 1,9,-1
 1451 650 l 1,10,11
 1550 648 1550 648 1552 691 c 1,12,-1
 1552 1236 l 1,13,-1
 1251 614 l 1,14,-1
 1251 612 l 1,15,-1
 1170 612 l 1,16,-1
 903 1242 l 1,17,-1
 903 691 l 1,18,19
 912 652 912 652 993 650 c 1,20,-1
 993 613 l 1,21,-1
 750 613 l 1,22,-1
 750 650 l 1,23,24
 841 650 841 650 843 691 c 1,25,-1
 843 1228 l 1,26,27
 841 1308 841 1308 750 1313 c 1,28,-1
 750 1350 l 1,29,-1
 963 1350 l 1,30,-1
 1239 701 l 1,31,-1
 1552 1350 l 1,0,-1
49 1170 m 1,33,-1
 9 1180 l 1,34,-1
 50 1350 l 1,35,-1
 650 1350 l 1,36,-1
 690 1180 l 1,37,-1
 651 1170 l 1,38,39
 617 1313 617 1313 402 1313 c 1,40,-1
 402 691 l 1,41,42
 413 653 413 653 484 650 c 1,43,-1
 484 613 l 1,44,-1
 216 613 l 1,45,-1
 216 650 l 1,46,47
 292 651 292 651 298 691 c 1,48,-1
 298 1313 l 1,49,32
 83 1313 83 1313 49 1170 c 1,33,-1
EndSplineSet
EndChar

StartChar: product
Encoding: 213 8217 150
Width: 1686
Flags: W
LayerCount: 2
Fore
SplineSet
1100 -161 m 1,0,1
 1287 -155 1287 -155 1299 -42 c 1,2,-1
 1299 1436 l 1,3,-1
 351 1436 l 1,4,-1
 351 -42 l 1,5,6
 365 -169 365 -169 550 -161 c 1,7,-1
 550 -204 l 1,8,-1
 0 -204 l 1,9,-1
 0 -161 l 1,10,11
 176 -166 176 -166 199 -42 c 1,12,-1
 199 1346 l 1,13,14
 193 1469 193 1469 0 1476 c 1,15,-1
 0 1519 l 1,16,-1
 1649 1519 l 1,17,-1
 1649 1476 l 1,18,19
 1463 1468 1463 1468 1451 1346 c 1,20,-1
 1451 -42 l 1,21,22
 1459 -151 1459 -151 1649 -161 c 1,23,-1
 1649 -204 l 1,24,-1
 1100 -204 l 1,25,-1
 1100 -161 l 1,0,1
EndSplineSet
EndChar

StartChar: radical
Encoding: 214 247 151
Width: 1124
Flags: W
LayerCount: 2
Fore
SplineSet
1 927 m 1,0,-1
 269 1071 l 1,1,-1
 704 187 l 1,2,-1
 1064 1949 l 1,3,-1
 1118 1949 l 1,4,-1
 709 -86 l 1,5,-1
 197 970 l 1,6,-1
 30 881 l 1,7,-1
 1 927 l 1,0,-1
EndSplineSet
EndChar

StartChar: dotmath
Encoding: 215 9674 152
Width: 512
Flags: W
LayerCount: 2
Fore
SplineSet
84 405 m 256,0,1
 49 405 49 405 24.5 429.5 c 128,-1,2
 0 454 0 454 0 489 c 256,3,4
 0 524 0 524 24.5 549 c 128,-1,5
 49 574 49 574 84 574 c 256,6,7
 119 574 119 574 144 549 c 128,-1,8
 169 524 169 524 169 489 c 256,9,10
 169 454 169 454 144 429.5 c 128,-1,11
 119 405 119 405 84 405 c 256,0,1
EndSplineSet
EndChar

StartChar: logicalnot
Encoding: 216 255 153
Width: 1460
Flags: W
LayerCount: 2
Fore
SplineSet
1284 516 m 1,0,-1
 0 516 l 1,1,-1
 0 600 l 1,2,-1
 1367 600 l 1,3,-1
 1367 0 l 1,4,-1
 1284 0 l 1,5,-1
 1284 516 l 1,0,-1
EndSplineSet
EndChar

StartChar: logicaland
Encoding: 217 376 154
Width: 1235
Flags: W
LayerCount: 2
Fore
SplineSet
540 917 m 1,0,-1
 653 917 l 1,1,-1
 652 916 l 1,2,-1
 1143 2 l 1,3,-1
 1035 2 l 1,4,-1
 597 813 l 1,5,-1
 158 2 l 1,6,-1
 50 2 l 1,7,-1
 541 916 l 1,8,-1
 540 917 l 1,0,-1
EndSplineSet
EndChar

StartChar: logicalor
Encoding: 218 8260 155
Width: 1235
Flags: W
LayerCount: 2
Fore
SplineSet
541 3 m 1,0,-1
 50 917 l 1,1,-1
 158 917 l 1,2,-1
 597 106 l 1,3,-1
 1035 917 l 1,4,-1
 1143 917 l 1,5,-1
 652 3 l 1,6,-1
 653 2 l 1,7,-1
 540 2 l 1,8,-1
 541 3 l 1,0,-1
EndSplineSet
EndChar

StartChar: arrowdblboth
Encoding: 219 8364 156
Width: 2134
Flags: W
LayerCount: 2
Fore
SplineSet
538 593 m 1,0,1
 645 507 645 507 730 394 c 1,2,-1
 617 394 l 1,3,4
 353 686 353 686 0 874 c 1,5,-1
 0 932 l 1,6,7
 337 1097 337 1097 613 1429 c 1,8,-1
 733 1429 l 1,9,10
 646 1311 646 1311 521 1193 c 1,11,-1
 1576 1193 l 1,12,13
 1451 1311 1451 1311 1364 1429 c 1,14,-1
 1484 1429 l 1,15,16
 1761 1097 1761 1097 2097 932 c 1,17,-1
 2097 874 l 1,18,19
 1745 686 1745 686 1480 394 c 1,20,-1
 1367 394 l 1,21,22
 1452 507 1452 507 1559 593 c 1,23,-1
 538 593 l 1,0,1
1662 695 m 1,24,25
 1798 810 1798 810 1974 906 c 1,26,27
 1803 1001 1803 1001 1678 1095 c 1,28,-1
 419 1095 l 1,29,30
 294 1001 294 1001 123 906 c 1,31,32
 300 810 300 810 435 695 c 1,33,-1
 1662 695 l 1,24,25
EndSplineSet
EndChar

StartChar: arrowdblleft
Encoding: 220 8249 157
Width: 2021
Flags: W
LayerCount: 2
Fore
SplineSet
617 593 m 1,0,1
 724 507 724 507 809 394 c 1,2,-1
 696 394 l 1,3,4
 432 686 432 686 79 874 c 1,5,-1
 79 932 l 1,6,7
 416 1097 416 1097 692 1429 c 1,8,-1
 812 1429 l 1,9,10
 725 1311 725 1311 600 1193 c 1,11,-1
 1956 1193 l 1,12,-1
 1956 1095 l 1,13,-1
 498 1095 l 1,14,15
 373 1001 373 1001 202 906 c 1,16,17
 379 810 379 810 514 695 c 1,18,-1
 1956 695 l 1,19,-1
 1956 594 l 1,20,-1
 617 593 l 1,0,1
EndSplineSet
EndChar

StartChar: arrowdblup
Encoding: 221 8250 158
Width: 1235
Flags: W
LayerCount: 2
Fore
SplineSet
299 1312 m 1,0,1
 213 1205 213 1205 100 1120 c 1,2,-1
 100 1233 l 1,3,4
 392 1498 392 1498 580 1850 c 1,5,-1
 638 1850 l 1,6,7
 803 1514 803 1514 1135 1237 c 1,8,-1
 1135 1117 l 1,9,10
 1017 1204 1017 1204 899 1329 c 1,11,-1
 899 -27 l 1,12,-1
 801 -27 l 1,13,-1
 801 1431 l 1,14,15
 707 1556 707 1556 612 1727 c 1,16,17
 516 1551 516 1551 401 1415 c 1,18,-1
 401 -27 l 1,19,-1
 300 -27 l 1,20,-1
 299 1312 l 1,0,1
EndSplineSet
EndChar

StartChar: arrowdblright
Encoding: 222 64257 159
Width: 2021
Flags: W
LayerCount: 2
Fore
SplineSet
79 594 m 1,0,-1
 79 695 l 1,1,-1
 1521 695 l 1,2,3
 1657 810 1657 810 1833 906 c 1,4,5
 1662 1001 1662 1001 1537 1095 c 1,6,-1
 79 1095 l 1,7,-1
 79 1193 l 1,8,-1
 1435 1193 l 1,9,10
 1310 1311 1310 1311 1223 1429 c 1,11,-1
 1343 1429 l 1,12,13
 1620 1097 1620 1097 1956 932 c 1,14,-1
 1956 874 l 1,15,16
 1604 686 1604 686 1339 394 c 1,17,-1
 1226 394 l 1,18,19
 1311 507 1311 507 1418 593 c 1,20,-1
 79 594 l 1,0,-1
EndSplineSet
EndChar

StartChar: arrowdbldown
Encoding: 223 64258 160
Width: 1235
Flags: W
LayerCount: 2
Fore
SplineSet
300 1850 m 1,0,-1
 401 1850 l 1,1,-1
 401 408 l 1,2,3
 516 273 516 273 612 96 c 1,4,5
 707 267 707 267 801 392 c 1,6,-1
 801 1850 l 1,7,-1
 899 1850 l 1,8,-1
 899 494 l 1,9,10
 1017 619 1017 619 1135 706 c 1,11,-1
 1135 586 l 1,12,13
 803 310 803 310 638 -27 c 1,14,-1
 580 -27 l 1,15,16
 392 326 392 326 100 590 c 1,17,-1
 100 703 l 1,18,19
 213 618 213 618 299 511 c 1,20,-1
 300 1850 l 1,0,-1
EndSplineSet
EndChar

StartChar: lozenge
Encoding: 224 8225 161
Width: 1012
Flags: W
LayerCount: 2
Fore
SplineSet
401 1422 m 1,0,-1
 514 1422 l 1,1,-1
 955 721 l 1,2,-1
 514 -2 l 1,3,-1
 401 -2 l 1,4,-1
 0 721 l 1,5,-1
 401 1422 l 1,0,-1
458 65 m 1,6,-1
 868 721 l 1,7,-1
 458 1367 l 1,8,-1
 88 721 l 1,9,-1
 458 65 l 1,6,-1
EndSplineSet
EndChar

StartChar: angleleft
Encoding: 225 183 162
Width: 674
Flags: W
LayerCount: 2
Fore
SplineSet
137 521 m 1,0,-1
 601 -372 l 1,1,-1
 487 -372 l 1,2,-1
 35 525 l 1,3,-1
 488 1411 l 1,4,-1
 602 1411 l 1,5,-1
 137 521 l 1,0,-1
EndSplineSet
EndChar

StartChar: registersans
Encoding: 226 8218 163
Width: 1618
Flags: W
LayerCount: 2
Fore
SplineSet
1437 677 m 256,0,1
 1437 381 1437 381 1226.5 171.5 c 128,-1,2
 1016 -38 1016 -38 719 -38 c 0,3,4
 421 -38 421 -38 210.5 171.5 c 128,-1,5
 0 381 0 381 0 677 c 256,6,7
 0 973 0 973 210.5 1182 c 128,-1,8
 421 1391 421 1391 719 1391 c 0,9,10
 1016 1391 1016 1391 1226.5 1182 c 128,-1,11
 1437 973 1437 973 1437 677 c 256,0,1
724 1322 m 256,12,13
 455 1322 455 1322 265 1133 c 128,-1,14
 75 944 75 944 75 677 c 0,15,16
 75 409 75 409 265 220 c 128,-1,17
 455 31 455 31 724 31 c 256,18,19
 993 31 993 31 1183 220 c 128,-1,20
 1373 409 1373 409 1373 677 c 0,21,22
 1373 944 1373 944 1183 1133 c 128,-1,23
 993 1322 993 1322 724 1322 c 256,12,13
451 1082 m 1,24,-1
 753 1082 l 1,25,26
 945 1074 945 1074 995 1015 c 128,-1,27
 1045 956 1045 956 1042 880 c 1,28,29
 1041 799 1041 799 981 751 c 128,-1,30
 921 703 921 703 815 694 c 1,31,32
 877 682 877 682 922.5 627 c 128,-1,33
 968 572 968 572 1025 484 c 1,34,-1
 1085 370 l 1,35,-1
 949 370 l 1,36,-1
 896 487 l 1,37,38
 821 623 821 623 753.5 654.5 c 128,-1,39
 686 686 686 686 591 680 c 1,40,-1
 545 680 l 1,41,-1
 545 372 l 1,42,-1
 451 372 l 1,43,-1
 451 1082 l 1,24,-1
545 757 m 1,44,-1
 617 757 l 1,45,46
 754 756 754 756 849 772 c 1,47,48
 925 786 925 786 951 809.5 c 128,-1,49
 977 833 977 833 975 882 c 1,50,51
 978 936 978 936 937 968 c 128,-1,52
 896 1000 896 1000 701 1003 c 1,53,-1
 545 1003 l 1,54,-1
 545 757 l 1,44,-1
EndSplineSet
EndChar

StartChar: copyrightsans
Encoding: 227 8222 164
Width: 1618
Flags: W
LayerCount: 2
Fore
SplineSet
980 409 m 0,1,2
 873 296 873 296 721 296 c 0,3,4
 570 296 570 296 463 408.5 c 128,-1,5
 356 521 356 521 356 680 c 256,6,7
 356 839 356 839 463 951.5 c 128,-1,8
 570 1064 570 1064 721 1064 c 0,9,10
 873 1064 873 1064 980 952 c 0,11,12
 1013 917 1013 917 1035 877 c 1,13,-1
 962 848 l 1,14,15
 955 876 955 876 932 901 c 0,16,17
 845 991 845 991 723 991 c 256,18,19
 601 991 601 991 521.5 911.5 c 128,-1,20
 442 832 442 832 439 682 c 1,21,22
 438 534 438 534 519.5 453 c 128,-1,23
 601 372 601 372 723 372 c 256,24,25
 845 372 845 372 932 463 c 0,26,27
 953 485 953 485 956 511 c 1,28,-1
 1032 478 l 1,29,0
 1010 441 1010 441 980 409 c 0,1,2
1437 677 m 256,30,31
 1437 381 1437 381 1226.5 171.5 c 128,-1,32
 1016 -38 1016 -38 719 -38 c 0,33,34
 421 -38 421 -38 210.5 171.5 c 128,-1,35
 0 381 0 381 0 677 c 256,36,37
 0 973 0 973 210.5 1182 c 128,-1,38
 421 1391 421 1391 719 1391 c 0,39,40
 1016 1391 1016 1391 1226.5 1182 c 128,-1,41
 1437 973 1437 973 1437 677 c 256,30,31
724 1322 m 256,42,43
 455 1322 455 1322 265 1133 c 128,-1,44
 75 944 75 944 75 677 c 0,45,46
 75 409 75 409 265 220 c 128,-1,47
 455 31 455 31 724 31 c 256,48,49
 993 31 993 31 1183 220 c 128,-1,50
 1373 409 1373 409 1373 677 c 0,51,52
 1373 944 1373 944 1183 1133 c 128,-1,53
 993 1322 993 1322 724 1322 c 256,42,43
EndSplineSet
EndChar

StartChar: trademarksans
Encoding: 228 8240 165
Width: 1610
Flags: W
LayerCount: 2
Fore
SplineSet
0 1348 m 1,0,-1
 615 1348 l 1,1,-1
 615 1263 l 1,2,-1
 348 1263 l 1,3,-1
 348 602 l 1,4,-1
 259 602 l 1,5,-1
 259 1263 l 1,6,-1
 0 1263 l 1,7,-1
 0 1348 l 1,0,-1
1147 726 m 1,8,-1
 1390 1348 l 1,9,-1
 1536 1348 l 1,10,-1
 1536 602 l 1,11,-1
 1447 602 l 1,12,-1
 1447 1254 l 1,13,-1
 1199 602 l 1,14,-1
 1102 602 l 1,15,-1
 858 1263 l 1,16,-1
 858 602 l 1,17,-1
 769 602 l 1,18,-1
 769 1348 l 1,19,-1
 912 1348 l 1,20,-1
 1147 726 l 1,8,-1
EndSplineSet
EndChar

StartChar: summation
Encoding: 229 194 166
Width: 1460
Flags: W
LayerCount: 2
Fore
SplineSet
0 1519 m 1,0,-1
 1292 1519 l 1,1,-1
 1349 1199 l 1,2,-1
 1307 1229 l 1,3,4
 1280 1335 1280 1335 1218.5 1381 c 128,-1,5
 1157 1427 1157 1427 1016 1433 c 1,6,-1
 229 1433 l 1,7,-1
 632 744 l 1,8,-1
 144 -60 l 1,9,-1
 1111 -60 l 1,10,11
 1235 -59 1235 -59 1288.5 18.5 c 128,-1,12
 1342 96 1342 96 1373 227 c 1,13,-1
 1425 250 l 1,14,-1
 1339 -204 l 1,15,-1
 0 -204 l 1,16,-1
 0 -150 l 1,17,-1
 482 655 l 1,18,-1
 0 1462 l 1,19,-1
 0 1519 l 1,0,-1
EndSplineSet
EndChar

StartChar: parenlefttp
Encoding: 230 202 167
Width: 786
Flags: W
LayerCount: 2
Fore
SplineSet
189 -162 m 1,0,-1
 84 -162 l 1,1,-1
 84 317 l 1,2,3
 63 1426 63 1426 677 1884 c 1,4,-1
 716 1876 l 1,5,6
 155 1459 155 1459 189 329 c 1,7,-1
 189 -162 l 1,0,-1
EndSplineSet
EndChar

StartChar: parenleftex
Encoding: 231 193 168
Width: 786
Flags: W
LayerCount: 2
Fore
SplineSet
189 -162 m 1,0,-1
 84 -162 l 1,1,-1
 84 1884 l 1,2,-1
 189 1884 l 1,3,-1
 189 -162 l 1,0,-1
EndSplineSet
EndChar

StartChar: parenleftbt
Encoding: 232 203 169
Width: 786
Flags: W
LayerCount: 2
Fore
SplineSet
189 1393 m 1,0,1
 155 263 155 263 716 -153 c 1,2,-1
 677 -162 l 1,3,4
 63 297 63 297 84 1405 c 1,5,-1
 84 1884 l 1,6,-1
 189 1884 l 1,7,-1
 189 1393 l 1,0,1
EndSplineSet
EndChar

StartChar: bracketlefttp
Encoding: 233 200 170
Width: 786
Flags: W
LayerCount: 2
Fore
SplineSet
105 -165 m 1,0,-1
 0 -165 l 1,1,-1
 0 1883 l 1,2,-1
 492 1883 l 1,3,-1
 507 1781 l 1,4,-1
 105 1781 l 1,5,-1
 105 -165 l 1,0,-1
EndSplineSet
EndChar

StartChar: bracketleftex
Encoding: 234 205 171
Width: 786
Flags: W
LayerCount: 2
Fore
SplineSet
0 1886 m 1,0,-1
 105 1886 l 1,1,-1
 105 -162 l 1,2,-1
 0 -161 l 1,3,-1
 0 1886 l 1,0,-1
EndSplineSet
EndChar

StartChar: bracketleftbt
Encoding: 235 206 172
Width: 786
Flags: W
LayerCount: 2
Fore
SplineSet
105 -63 m 1,0,-1
 506 -63 l 1,1,-1
 492 -165 l 1,2,-1
 0 -165 l 1,3,-1
 0 1883 l 1,4,-1
 105 1883 l 1,5,-1
 105 -63 l 1,0,-1
EndSplineSet
EndChar

StartChar: bracelefttp
Encoding: 236 207 173
Width: 1012
Flags: W
LayerCount: 2
Fore
SplineSet
525 -162 m 1,0,-1
 420 -162 l 1,1,-1
 420 1290 l 1,2,3
 437 1883 437 1883 872 1884 c 1,4,-1
 926 1836 l 1,5,6
 509 1835 509 1835 525 1302 c 1,7,-1
 525 -162 l 1,0,-1
EndSplineSet
EndChar

StartChar: braceleftmid
Encoding: 237 204 174
Width: 1012
Flags: W
LayerCount: 2
Fore
SplineSet
525 1444 m 1,0,1
 516 1265 516 1265 476 1159.5 c 128,-1,2
 436 1054 436 1054 369 989 c 128,-1,3
 302 924 302 924 100 858 c 1,4,5
 302 768 302 768 368 693.5 c 128,-1,6
 434 619 434 619 479.5 506.5 c 128,-1,7
 525 394 525 394 525 268 c 2,8,-1
 525 -162 l 1,9,-1
 420 -162 l 1,10,-1
 420 250 l 1,11,12
 422 463 422 463 342.5 596 c 128,-1,13
 263 729 263 729 56 827 c 1,14,-1
 56 899 l 1,15,16
 262 949 262 949 344 1080.5 c 128,-1,17
 426 1212 426 1212 420 1476 c 1,18,-1
 420 1885 l 1,19,-1
 525 1885 l 1,20,-1
 525 1444 l 1,0,1
EndSplineSet
EndChar

StartChar: braceleftbt
Encoding: 238 211 175
Width: 1012
Flags: W
LayerCount: 2
Fore
SplineSet
525 420 m 1,0,1
 509 -113 509 -113 926 -113 c 1,2,-1
 872 -162 l 1,3,4
 437 -160 437 -160 420 432 c 1,5,-1
 420 1884 l 1,6,-1
 525 1884 l 1,7,-1
 525 420 l 1,0,1
EndSplineSet
EndChar

StartChar: braceex
Encoding: 239 212 176
Width: 1012
Flags: W
LayerCount: 2
Fore
SplineSet
519 1899 m 1,0,-1
 519 -161 l 1,1,-1
 420 -161 l 1,2,-1
 420 1899 l 1,3,-1
 519 1899 l 1,0,-1
EndSplineSet
EndChar

StartChar: dummy
Encoding: 240 63743 177
AltUni2: 00e01e.ffffffff.0
Width: 1618
Flags: W
LayerCount: 2
Fore
SplineSet
1 744 m 1,0,1
 13 899 13 899 107 1054 c 1,2,3
 229 1204 229 1204 453 1201 c 1,4,5
 548 1197 548 1197 635 1169 c 128,-1,6
 722 1141 722 1141 763 1143 c 1,7,8
 798 1137 798 1137 898.5 1173 c 128,-1,9
 999 1209 999 1209 1098 1205 c 1,10,11
 1269 1179 1269 1179 1410 1046 c 1,12,13
 1338 978 1338 978 1297 903.5 c 128,-1,14
 1256 829 1256 829 1252 715 c 1,15,16
 1255 628 1255 628 1301 544.5 c 128,-1,17
 1347 461 1347 461 1452 400 c 1,18,19
 1382 167 1382 167 1199 22 c 1,20,21
 1091 -33 1091 -33 1003 -35 c 1,22,23
 945 -35 945 -35 861 -7.5 c 128,-1,24
 777 20 777 20 751 26 c 1,25,26
 728 25 728 25 648 -9 c 128,-1,27
 568 -43 568 -43 511 -35 c 1,28,29
 399 -38 399 -38 266 51 c 1,30,31
 136 193 136 193 67.5 387 c 128,-1,32
 -1 581 -1 581 1 744 c 1,0,1
772 1201 m 1,33,34
 765 1209 765 1209 762 1232 c 1,35,36
 771 1307 771 1307 818 1389.5 c 128,-1,37
 865 1472 865 1472 918 1516 c 0,38,39
 992 1578 992 1578 1100 1591 c 1,40,41
 1102 1534 1102 1534 1091 1483 c 1,42,43
 1055 1397 1055 1397 1014 1342.5 c 128,-1,44
 973 1288 973 1288 891 1237 c 1,45,46
 836 1206 836 1206 772 1201 c 1,33,34
EndSplineSet
EndChar

StartChar: angleright
Encoding: 241 210 178
Width: 674
Flags: W
LayerCount: 2
Fore
SplineSet
35 1411 m 1,0,-1
 149 1411 l 1,1,-1
 602 525 l 1,2,-1
 150 -372 l 1,3,-1
 36 -372 l 1,4,-1
 500 521 l 1,5,-1
 35 1411 l 1,0,-1
EndSplineSet
EndChar

StartChar: integral
Encoding: 242 218 179
Width: 561
Flags: W
LayerCount: 2
Fore
SplineSet
353 796 m 1,0,1
 334 70 334 70 219 -91 c 0,2,3
 195 -125 195 -125 164 -143.5 c 128,-1,4
 133 -162 133 -162 94 -162 c 0,5,6
 56 -162 56 -162 28.5 -135 c 128,-1,7
 1 -108 1 -108 1 -69 c 256,8,9
 1 -30 1 -30 28.5 -2.5 c 128,-1,10
 56 25 56 25 94 25 c 0,11,12
 133 25 133 25 160.5 -2.5 c 128,-1,13
 188 -30 188 -30 222 76.5 c 128,-1,14
 256 183 256 183 198 796 c 1,15,-1
 198 907 l 1,16,17
 217 1633 217 1633 332 1794 c 0,18,19
 356 1828 356 1828 387 1846.5 c 128,-1,20
 418 1865 418 1865 457 1865 c 0,21,22
 495 1865 495 1865 522.5 1838 c 128,-1,23
 550 1811 550 1811 550 1772 c 256,24,25
 550 1733 550 1733 522.5 1705.5 c 128,-1,26
 495 1678 495 1678 457 1678 c 0,27,28
 418 1678 418 1678 390.5 1705.5 c 128,-1,29
 363 1733 363 1733 329 1626.5 c 128,-1,30
 295 1520 295 1520 353 907 c 1,31,-1
 353 796 l 1,0,1
EndSplineSet
EndChar

StartChar: integraltp
Encoding: 243 219 180
Width: 1405
Flags: W
LayerCount: 2
Fore
SplineSet
1383 1804 m 1,0,1
 1295 1844 1295 1844 1213 1794 c 1,2,3
 1068 1725 1068 1725 972.5 1503 c 128,-1,4
 877 1281 877 1281 851 850 c 1,5,-1
 851 -162 l 1,6,-1
 711 -162 l 1,7,-1
 711 679 l 1,8,9
 724 1158 724 1158 821 1411.5 c 128,-1,10
 918 1665 918 1665 1052 1777 c 128,-1,11
 1186 1889 1186 1889 1313 1884 c 1,12,13
 1387 1885 1387 1885 1440 1830 c 128,-1,14
 1493 1775 1493 1775 1493 1692 c 1,15,16
 1494 1680 1494 1680 1492 1669 c 0,17,18
 1485 1619 1485 1619 1444 1588 c 1,19,20
 1404 1556 1404 1556 1353.5 1562 c 128,-1,21
 1303 1568 1303 1568 1273 1608 c 1,22,23
 1242 1647 1242 1647 1249 1697 c 128,-1,24
 1256 1747 1256 1747 1297 1779 c 0,25,26
 1335 1809 1335 1809 1383 1804 c 1,0,1
EndSplineSet
EndChar

StartChar: integralex
Encoding: 244 217 181
Width: 1405
Flags: W
LayerCount: 2
Fore
SplineSet
851 1885 m 1,0,-1
 851 -162 l 1,1,-1
 711 -162 l 1,2,-1
 711 1886 l 1,3,-1
 851 1885 l 1,0,-1
EndSplineSet
EndChar

StartChar: integralbt
Encoding: 245 305 182
Width: 1405
Flags: W
LayerCount: 2
Fore
SplineSet
178 -82 m 1,0,1
 266 -122 266 -122 348 -73 c 1,2,3
 494 -3 494 -3 589.5 219 c 128,-1,4
 685 441 685 441 711 872 c 5,5,-1
 711 1884 l 1,6,-1
 851 1884 l 1,7,-1
 851 1043 l 1,8,9
 838 564 838 564 741 310.5 c 128,-1,10
 644 57 644 57 510 -55 c 128,-1,11
 376 -167 376 -167 249 -162 c 1,12,13
 175 -163 175 -163 122 -108 c 128,-1,14
 69 -53 69 -53 68 30 c 0,15,16
 68 41 68 41 70 53 c 0,17,18
 77 103 77 103 118 134 c 1,19,20
 158 166 158 166 208.5 160 c 128,-1,21
 259 154 259 154 289 114 c 1,22,23
 320 75 320 75 313 25 c 128,-1,24
 306 -25 306 -25 265 -57 c 0,25,26
 226 -87 226 -87 178 -82 c 1,0,1
EndSplineSet
EndChar

StartChar: parenrighttp
Encoding: 246 710 183
Width: 786
Flags: W
LayerCount: 2
Fore
SplineSet
427 329 m 1,0,1
 461 1459 461 1459 -100 1876 c 1,2,-1
 -61 1884 l 1,3,4
 553 1426 553 1426 532 317 c 1,5,-1
 532 -162 l 1,6,-1
 427 -162 l 1,7,-1
 427 329 l 1,0,1
EndSplineSet
EndChar

StartChar: parenrightex
Encoding: 247 732 184
Width: 786
Flags: W
LayerCount: 2
Fore
SplineSet
427 1884 m 1,0,-1
 532 1884 l 1,1,-1
 532 -164 l 1,2,-1
 427 -163 l 1,3,-1
 427 1884 l 1,0,-1
EndSplineSet
EndChar

StartChar: parenrightbt
Encoding: 248 175 185
Width: 786
Flags: W
LayerCount: 2
Fore
SplineSet
427 1884 m 1,0,-1
 532 1884 l 1,1,-1
 532 1405 l 1,2,3
 553 297 553 297 -61 -162 c 1,4,-1
 -100 -153 l 1,5,6
 461 263 461 263 427 1393 c 1,7,-1
 427 1884 l 1,0,-1
EndSplineSet
EndChar

StartChar: bracketrighttp
Encoding: 249 728 186
Width: 786
Flags: W
LayerCount: 2
Fore
SplineSet
427 1782 m 1,0,-1
 26 1782 l 1,1,-1
 40 1884 l 1,2,-1
 532 1884 l 1,3,-1
 532 -164 l 1,4,-1
 427 -164 l 1,5,-1
 427 1782 l 1,0,-1
EndSplineSet
EndChar

StartChar: bracketrightex
Encoding: 250 729 187
Width: 786
Flags: W
LayerCount: 2
Fore
SplineSet
427 1884 m 1,0,-1
 532 1884 l 1,1,-1
 532 -164 l 1,2,-1
 427 -163 l 1,3,-1
 427 1884 l 1,0,-1
EndSplineSet
EndChar

StartChar: bracketrightbt
Encoding: 251 730 188
Width: 786
Flags: W
LayerCount: 2
Fore
SplineSet
427 1884 m 1,0,-1
 532 1884 l 1,1,-1
 532 -164 l 1,2,-1
 40 -164 l 1,3,-1
 26 -62 l 1,4,-1
 427 -62 l 1,5,-1
 427 1884 l 1,0,-1
EndSplineSet
EndChar

StartChar: bracerighttp
Encoding: 252 184 189
Width: 1012
Flags: W
LayerCount: 2
Fore
SplineSet
420 1302 m 1,0,1
 436 1835 436 1835 19 1836 c 1,2,-1
 73 1884 l 1,3,4
 508 1883 508 1883 525 1290 c 1,5,-1
 525 -162 l 1,6,-1
 420 -162 l 1,7,-1
 420 1302 l 1,0,1
EndSplineSet
EndChar

StartChar: bracerightmid
Encoding: 253 733 190
Width: 1012
Flags: W
LayerCount: 2
Fore
SplineSet
420 1884 m 1,0,-1
 525 1884 l 1,1,-1
 525 1475 l 1,2,3
 520 1211 520 1211 601.5 1079.5 c 128,-1,4
 683 948 683 948 889 898 c 1,5,-1
 889 826 l 1,6,7
 683 728 683 728 603 595 c 128,-1,8
 523 462 523 462 525 249 c 1,9,-1
 525 -163 l 1,10,-1
 420 -163 l 1,11,-1
 420 267 l 2,12,13
 420 393 420 393 466 505.5 c 128,-1,14
 512 618 512 618 577.5 692.5 c 128,-1,15
 643 767 643 767 845 857 c 1,16,17
 643 923 643 923 576.5 988 c 128,-1,18
 510 1053 510 1053 469.5 1158.5 c 128,-1,19
 429 1264 429 1264 420 1443 c 1,20,-1
 420 1884 l 1,0,-1
EndSplineSet
EndChar

StartChar: bracerightbt
Encoding: 254 731 191
Width: 1012
Flags: W
LayerCount: 2
Fore
SplineSet
420 1884 m 1,0,-1
 525 1884 l 1,1,-1
 525 432 l 1,2,3
 508 -160 508 -160 73 -162 c 1,4,-1
 19 -113 l 1,5,6
 436 -113 436 -113 420 420 c 1,7,-1
 420 1884 l 1,0,-1
EndSplineSet
EndChar
